<svg width="12" height="7" viewBox="0 0 12 7" fill="none" xmlns="http://www.w3.org/2000/svg">
<path d="M1.04523 0.611344C0.992104 0.559967 0.929609 0.519802 0.861314 0.493142C0.793019 0.466482 0.720261 0.453848 0.647195 0.455963C0.574129 0.458079 0.502186 0.474901 0.435472 0.50547C0.368759 0.536038 0.308583 0.579754 0.258379 0.634123C0.208175 0.688491 0.168927 0.752447 0.142875 0.822337C0.116824 0.892228 0.104479 0.966685 0.106546 1.04146C0.108613 1.11623 0.125051 1.18986 0.154922 1.25813C0.184792 1.3264 0.227511 1.38798 0.280638 1.43936L5.28889 6.27989C5.39221 6.37985 5.529 6.43555 5.67119 6.43555C5.81337 6.43555 5.95017 6.37985 6.05349 6.27989L11.0623 1.43936C11.1166 1.38832 11.1604 1.32675 11.1913 1.25823C11.2221 1.18971 11.2393 1.1156 11.242 1.0402C11.2446 0.964805 11.2325 0.889629 11.2065 0.819039C11.1805 0.748449 11.141 0.683851 11.0904 0.628999C11.0398 0.574147 10.9791 0.530134 10.9117 0.499515C10.8443 0.468897 10.7717 0.452284 10.698 0.450641C10.6242 0.448998 10.551 0.462359 10.4823 0.489946C10.4137 0.517534 10.3512 0.558799 10.2983 0.611344L5.67119 5.08285L1.04523 0.611344Z" fill="black"/>
</svg>
