<svg width="19" height="19" viewBox="0 0 19 19" fill="none" xmlns="http://www.w3.org/2000/svg">
<path d="M17.7136 8.23574L10.3318 0.853891C10.1914 0.719481 10.0258 0.61412 9.8446 0.543853C9.48516 0.39619 9.08199 0.39619 8.72255 0.543853C8.54133 0.61412 8.37576 0.719481 8.23535 0.853891L0.8535 8.23574C0.715845 8.3734 0.606652 8.53682 0.532154 8.71667C0.457656 8.89653 0.419312 9.08929 0.419312 9.28397C0.419312 9.67713 0.575494 10.0542 0.8535 10.3322C1.13151 10.6102 1.50856 10.7664 1.90172 10.7664C2.29488 10.7664 2.67194 10.6102 2.94995 10.3322L7.8072 5.46017V16.6658C7.8072 17.0574 7.96275 17.4329 8.23962 17.7098C8.5165 17.9866 8.89202 18.1422 9.28358 18.1422C9.67513 18.1422 10.0507 17.9866 10.3275 17.7098C10.6044 17.4329 10.7599 17.0574 10.7599 16.6658V5.46017L15.6172 10.3322C15.7545 10.4706 15.9177 10.5804 16.0976 10.6554C16.2776 10.7303 16.4705 10.7689 16.6654 10.7689C16.8603 10.7689 17.0533 10.7303 17.2332 10.6554C17.4131 10.5804 17.5764 10.4706 17.7136 10.3322C17.852 10.1949 17.9619 10.0317 18.0368 9.85175C18.1118 9.67184 18.1504 9.47887 18.1504 9.28397C18.1504 9.08907 18.1118 8.8961 18.0368 8.71619C17.9619 8.53628 17.852 8.37299 17.7136 8.23574Z" fill="#FEFFFE"/>
</svg>
