<svg width="25" height="25" viewBox="0 0 25 25" fill="none" xmlns="http://www.w3.org/2000/svg">
<path d="M23.4166 16.0493L17.8983 13.5755L17.8772 13.5661C17.5185 13.4114 17.1267 13.3492 16.7378 13.385C16.3488 13.4208 15.975 13.5536 15.6506 13.7712C15.6051 13.8016 15.5613 13.8345 15.5194 13.8696L12.9049 16.0962C11.3815 15.27 9.80765 13.7091 8.98031 12.2044L11.2139 9.5489C11.2498 9.50604 11.2831 9.46104 11.3135 9.41413C11.5254 9.09088 11.654 8.72025 11.6879 8.33525C11.7219 7.95025 11.6601 7.56283 11.508 7.20749C11.5044 7.20069 11.5013 7.19364 11.4987 7.1864L9.02601 1.65867C8.82304 1.19639 8.47664 0.811737 8.03807 0.561637C7.5995 0.311537 7.09206 0.209278 6.59085 0.269993C4.88972 0.493462 3.32811 1.32852 2.19766 2.6192C1.0672 3.90988 0.445226 5.56792 0.447884 7.28367C0.447884 16.8473 8.22796 24.6274 17.7916 24.6274C19.5074 24.6301 21.1654 24.0081 22.4561 22.8776C23.7468 21.7472 24.5818 20.1856 24.8053 18.4844C24.866 17.9832 24.7638 17.4758 24.5137 17.0372C24.2636 16.5987 23.8789 16.2523 23.4166 16.0493ZM17.7916 21.8149C13.9391 21.8103 10.2458 20.2778 7.52163 17.5537C4.7975 14.8295 3.26504 11.1362 3.26038 7.28367C3.2577 6.31276 3.58732 5.37017 4.19446 4.61251C4.80161 3.85486 5.64973 3.32777 6.59788 3.11882L8.80335 8.0407L6.55804 10.7149C6.52175 10.7582 6.48809 10.8036 6.45726 10.8509C6.23595 11.189 6.10584 11.5786 6.07955 11.9819C6.05327 12.3852 6.13171 12.7884 6.30726 13.1524C7.41117 15.4118 9.68577 17.6712 11.9686 18.7774C12.335 18.9511 12.7403 19.0268 13.1447 18.997C13.5492 18.9672 13.939 18.833 14.276 18.6075C14.3213 18.5769 14.3648 18.5437 14.4061 18.5079L17.0346 16.2731L21.9565 18.4774C21.7475 19.4256 21.2204 20.2737 20.4628 20.8808C19.7051 21.488 18.7625 21.8176 17.7916 21.8149Z" fill="#2362B6"/>
</svg>
