<svg width="21" height="24" viewBox="0 0 21 24" fill="none" xmlns="http://www.w3.org/2000/svg">
<path fill-rule="evenodd" clip-rule="evenodd" d="M10.5336 0.45166C5.08458 0.45166 0.666656 5.12183 0.666656 10.3683C0.666656 15.574 3.81544 21.2323 8.72918 23.4047C9.29396 23.6548 9.90997 23.7845 10.5336 23.7845C11.1572 23.7845 11.7732 23.6548 12.338 23.4047C17.2518 21.2323 20.4005 15.574 20.4005 10.3683C20.4005 5.12183 15.9826 0.45166 10.5336 0.45166ZM10.5336 12.1183C11.1878 12.1183 11.8152 11.8725 12.2778 11.4349C12.7404 10.9973 13.0003 10.4038 13.0003 9.78499C13.0003 9.16615 12.7404 8.57266 12.2778 8.13508C11.8152 7.69749 11.1878 7.45166 10.5336 7.45166C9.87938 7.45166 9.25196 7.69749 8.78935 8.13508C8.32675 8.57266 8.06686 9.16615 8.06686 9.78499C8.06686 10.4038 8.32675 10.9973 8.78935 11.4349C9.25196 11.8725 9.87938 12.1183 10.5336 12.1183Z" fill="#2362B6"/>
</svg>
