<svg width="26" height="26" viewBox="0 0 26 26" fill="none" xmlns="http://www.w3.org/2000/svg">
<path d="M20.5258 19.5422C20.2008 18.5422 19.2633 17.8047 18.1508 17.8047H16.9008V14.0547C16.9008 13.7232 16.7691 13.4052 16.5347 13.1708C16.3003 12.9364 15.9823 12.8047 15.6508 12.8047H8.15082V10.3047H10.6508C10.9823 10.3047 11.3003 10.173 11.5347 9.93857C11.7691 9.70415 11.9008 9.38621 11.9008 9.05469V6.55469H14.4008C15.0639 6.55469 15.6997 6.2913 16.1686 5.82245C16.6374 5.35361 16.9008 4.71773 16.9008 4.05469V3.54219C18.3964 4.14514 19.7236 5.10153 20.7689 6.32948C21.8141 7.55743 22.5462 9.02037 22.9025 10.5931C23.2588 12.1658 23.2287 13.8014 22.8148 15.3599C22.4009 16.9185 21.6155 18.3535 20.5258 19.5422ZM11.9008 22.7172C6.96332 22.1047 3.15082 17.9047 3.15082 12.8047C3.15082 12.0297 3.25082 11.2797 3.41332 10.5672L9.40082 16.5547V17.8047C9.40082 18.4677 9.66421 19.1036 10.1331 19.5725C10.6019 20.0413 11.2378 20.3047 11.9008 20.3047M13.1508 0.304688C11.5093 0.304687 9.88384 0.62801 8.36727 1.25619C6.8507 1.88438 5.47272 2.80512 4.31198 3.96585C1.96778 6.31006 0.650818 9.48948 0.650818 12.8047C0.650818 16.1199 1.96778 19.2993 4.31198 21.6435C5.47272 22.8043 6.8507 23.725 8.36727 24.3532C9.88384 24.9814 11.5093 25.3047 13.1508 25.3047C16.466 25.3047 19.6454 23.9877 21.9897 21.6435C24.3339 19.2993 25.6508 16.1199 25.6508 12.8047C25.6508 11.1632 25.3275 9.53771 24.6993 8.02114C24.0711 6.50457 23.1504 5.12659 21.9897 3.96585C20.8289 2.80512 19.4509 1.88438 17.9344 1.25619C16.4178 0.62801 14.7923 0.304688 13.1508 0.304688Z" fill="#222222"/>
</svg>
