<svg width="51" height="51" viewBox="0 0 51 51" fill="none" xmlns="http://www.w3.org/2000/svg">
<path d="M13.4296 43.6316C11.6935 43.6316 10.2178 42.9768 9.00252 41.6674C7.78725 40.3579 7.17961 38.7679 7.17961 36.8973H3.01294V12.2049C3.01294 10.9703 3.42127 9.91297 4.23794 9.03303C5.05461 8.15308 6.03516 7.71385 7.17961 7.71535H36.3463V16.6944H42.5963L48.8463 25.6735V36.8973H44.6796C44.6796 38.7679 44.072 40.3579 42.8567 41.6674C41.6414 42.9768 40.1657 43.6316 38.4296 43.6316C36.6935 43.6316 35.2178 42.9768 34.0025 41.6674C32.7872 40.3579 32.1796 38.7679 32.1796 36.8973H19.6796C19.6796 38.7679 19.072 40.3579 17.8567 41.6674C16.6414 42.9768 15.1657 43.6316 13.4296 43.6316ZM13.4296 39.142C14.0199 39.142 14.515 38.9265 14.915 38.4955C15.315 38.0645 15.5143 37.5318 15.5129 36.8973C15.5129 36.2613 15.3129 35.7277 14.9129 35.2968C14.5129 34.8658 14.0185 34.651 13.4296 34.6525C12.8393 34.6525 12.3442 34.868 11.9442 35.299C11.5442 35.73 11.3449 36.2627 11.3463 36.8973C11.3463 37.5333 11.5463 38.0668 11.9463 38.4978C12.3463 38.9288 12.8407 39.1435 13.4296 39.142ZM7.17961 32.4077H8.84627C9.43655 31.7343 10.1136 31.1918 10.8775 30.7803C11.6414 30.3687 12.4921 30.163 13.4296 30.163C14.3671 30.163 15.2178 30.3687 15.9817 30.7803C16.7456 31.1918 17.4227 31.7343 18.0129 32.4077H32.1796V12.2049H7.17961V32.4077ZM38.4296 39.142C39.0199 39.142 39.515 38.9265 39.915 38.4955C40.315 38.0645 40.5143 37.5318 40.5129 36.8973C40.5129 36.2613 40.3129 35.7277 39.9129 35.2968C39.5129 34.8658 39.0185 34.651 38.4296 34.6525C37.8393 34.6525 37.3442 34.868 36.9442 35.299C36.5442 35.73 36.3449 36.2627 36.3463 36.8973C36.3463 37.5333 36.5463 38.0668 36.9463 38.4978C37.3463 38.9288 37.8407 39.1435 38.4296 39.142ZM36.3463 27.9182H45.2004L40.5129 21.1839H36.3463V27.9182Z" fill="#2362B6"/>
</svg>
