<svg width="51" height="52" viewBox="0 0 51 52" fill="none" xmlns="http://www.w3.org/2000/svg">
<path d="M40.9347 14.5614L29.9972 4.47623C29.6847 4.18808 29.3722 4.04401 28.9034 4.04401H13.2784C11.5597 4.04401 10.1534 5.34067 10.1534 6.92547V41.503C10.1534 43.0878 11.5597 44.3845 13.2784 44.3845H38.2784C39.9972 44.3845 41.4034 43.0878 41.4034 41.503V15.5699C41.4034 15.1376 41.2472 14.8495 40.9347 14.5614ZM28.9034 7.50176L37.6534 15.5699H28.9034V7.50176ZM38.2784 41.503H13.2784V6.92547H25.7784V15.5699C25.7784 17.1547 27.1847 18.4513 28.9034 18.4513H38.2784V41.503Z" fill="#2362B6"/>
<path d="M16.4034 33.9862H35.1534V37.138H16.4034V33.9862ZM16.4034 24.5308H35.1534V27.6826H16.4034V24.5308Z" fill="#2362B6"/>
</svg>
