<svg width="51" height="51" viewBox="0 0 51 51" fill="none" xmlns="http://www.w3.org/2000/svg">
<path d="M23.011 5.59011C23.6299 5.24644 24.3261 5.0661 25.0339 5.0661C25.7418 5.0661 26.438 5.24644 27.0569 5.59011L42.7131 14.2859C43.0377 14.4664 43.3081 14.7304 43.4964 15.0506C43.6847 15.3707 43.7839 15.7354 43.7839 16.1068V33.263C43.7838 34.006 43.5849 34.7355 43.208 35.3758C42.831 36.0161 42.2898 36.544 41.6402 36.9047L27.0569 45.0089C26.438 45.3525 25.7418 45.5329 25.0339 45.5329C24.3261 45.5329 23.6299 45.3525 23.011 45.0089L8.42769 36.9047C7.77843 36.5441 7.23733 36.0166 6.86042 35.3767C6.48351 34.7368 6.28448 34.0078 6.28394 33.2651V16.1068C6.28392 15.7354 6.38319 15.3707 6.57147 15.0506C6.75974 14.7304 7.03018 14.4664 7.35477 14.2859L23.011 5.59011Z" stroke="#2362B6" stroke-width="4.16667" stroke-linecap="round" stroke-linejoin="round"/>
<path d="M6.28394 14.8818L25.0339 25.2984M25.0339 25.2984L43.7839 14.8818M25.0339 25.2984V46.1318" stroke="#2362B6" stroke-width="4.16667" stroke-linejoin="round"/>
<path d="M15.6589 20.0901L34.4089 9.67345M12.5339 25.9818L18.7839 29.4651" stroke="#2362B6" stroke-width="4.16667" stroke-linecap="round" stroke-linejoin="round"/>
</svg>
