<svg width="51" height="51" viewBox="0 0 51 51" fill="none" xmlns="http://www.w3.org/2000/svg">
<path d="M25.3255 4.44907C13.838 4.44907 4.49219 13.7949 4.49219 25.2824V33.9137C4.49219 36.047 6.36094 37.7824 8.65885 37.7824H10.7422C11.2947 37.7824 11.8246 37.5629 12.2153 37.1722C12.606 36.7815 12.8255 36.2516 12.8255 35.6991V24.9845C12.8255 24.432 12.606 23.902 12.2153 23.5113C11.8246 23.1206 11.2947 22.9012 10.7422 22.9012H8.85052C10.0089 14.8387 16.9464 8.61573 25.3255 8.61573C33.7047 8.61573 40.6422 14.8387 41.8005 22.9012H39.9089C39.3563 22.9012 38.8264 23.1206 38.4357 23.5113C38.045 23.902 37.8255 24.432 37.8255 24.9845V37.7824C37.8255 40.0803 35.9568 41.9491 33.6589 41.9491H29.4922V39.8657H21.1589V46.1157H33.6589C38.2547 46.1157 41.9922 42.3782 41.9922 37.7824C44.2901 37.7824 46.1589 36.047 46.1589 33.9137V25.2824C46.1589 13.7949 36.813 4.44907 25.3255 4.44907Z" fill="#2362B6"/>
</svg>
