<svg width="1439" height="310" viewBox="0 0 1439 310" fill="none" xmlns="http://www.w3.org/2000/svg">
<path d="M0.0499573 30.0186V115.903C0.0499573 131.109 11.4263 143.91 26.5268 145.695L322.662 180.715L686.357 223.635C751.493 235.931 904.205 262.795 948.079 271.5C985.314 278.887 1079.74 304.055 1200.95 308.527C1289.37 311.789 1353.47 306.04 1420.18 283.961C1431.95 280.063 1439.67 268.922 1439.78 256.517L1441.84 30.2916C1441.99 13.617 1428.52 0.0185852 1411.84 0.0185852H30.05C13.4814 0.0185852 0.0499573 13.4501 0.0499573 30.0186Z" fill="#BFBFBF"/>
<path opacity="0.979" fill-rule="evenodd" clip-rule="evenodd" d="M1107.29 79.6105C1117.4 78.6957 1126.9 80.4656 1135.79 84.921C1143.88 90.4082 1148.99 97.7744 1151.13 107.019C1144.31 107.077 1137.49 107.019 1130.67 106.848C1126.73 97.7442 1119.54 93.8614 1109.12 95.1993C1102.18 96.9079 1097.25 100.848 1094.33 107.019C1089.66 117.881 1090.39 128.388 1096.52 138.54C1102.14 144.753 1109.27 147.094 1117.89 145.563C1124.72 143.55 1128.98 139.267 1130.67 132.715C1137.61 132.316 1144.55 132.259 1151.5 132.544C1145.88 154.578 1131.03 164.056 1106.93 160.981C1088.39 158.541 1077 148.777 1072.77 131.687C1069.7 117.897 1072.38 105.22 1080.81 93.6576C1087.63 85.635 1096.46 80.9528 1107.29 79.6105Z" fill="#FEFFFE"/>
<path opacity="0.986" fill-rule="evenodd" clip-rule="evenodd" d="M1231.13 79.9531C1240.51 79.9531 1249.89 79.9531 1259.26 79.9531C1264.02 98.3747 1268.95 116.762 1274.06 135.114C1279.53 116.735 1284.95 98.3486 1290.31 79.9531C1299.33 79.9531 1308.33 79.9531 1317.35 79.9531C1317.35 107.019 1317.35 134.086 1317.35 161.152C1311.02 161.152 1304.68 161.152 1298.35 161.152C1298.41 144.821 1298.35 128.49 1298.17 112.159C1293.18 128.453 1288.37 144.784 1283.74 161.152C1277.4 161.266 1271.07 161.152 1264.74 160.81C1260 144.952 1255.31 129.078 1250.68 113.186C1250.5 129.174 1250.43 145.163 1250.5 161.152C1244.04 161.152 1237.59 161.152 1231.13 161.152C1231.13 134.086 1231.13 107.019 1231.13 79.9531Z" fill="#FEFFFE"/>
<path opacity="0.985" fill-rule="evenodd" clip-rule="evenodd" d="M861.442 80.2959C882.386 80.2959 903.331 80.2959 924.275 80.2959C924.275 85.6636 924.275 91.031 924.275 96.3987C909.785 96.3987 895.294 96.3987 880.804 96.3987C880.804 101.88 880.804 107.362 880.804 112.844C893.711 112.844 906.619 112.844 919.526 112.844C919.526 117.983 919.526 123.122 919.526 128.262C906.619 128.262 893.711 128.262 880.804 128.262C880.804 139.339 880.804 150.417 880.804 161.495C874.35 161.495 867.896 161.495 861.442 161.495C861.442 134.429 861.442 107.362 861.442 80.2959Z" fill="#FEFFFE"/>
<path opacity="0.986" fill-rule="evenodd" clip-rule="evenodd" d="M927.563 80.2959C948.994 80.2959 970.426 80.2959 991.857 80.2959C991.857 85.6636 991.857 91.031 991.857 96.3987C976.879 96.3987 961.902 96.3987 946.924 96.3987C946.924 101.081 946.924 105.763 946.924 110.446C959.832 110.446 972.739 110.446 985.647 110.446C985.647 115.471 985.647 120.496 985.647 125.521C972.739 125.521 959.832 125.521 946.924 125.521C946.924 131.802 946.924 138.083 946.924 144.364C961.902 144.364 976.879 144.364 991.857 144.364C991.857 150.075 991.857 155.785 991.857 161.495C970.426 161.495 948.994 161.495 927.563 161.495C927.563 134.429 927.563 107.362 927.563 80.2959Z" fill="#FEFFFE"/>
<path opacity="0.984" fill-rule="evenodd" clip-rule="evenodd" d="M998.067 80.2956C1014.75 80.2384 1031.43 80.2956 1048.11 80.4669C1062.51 84.0342 1069.03 92.7708 1067.66 106.677C1066.33 112.709 1062.98 117.448 1057.61 120.895C1061.39 123.076 1063.77 126.216 1064.74 130.317C1065.13 134.13 1065.31 137.956 1065.28 141.794C1065.13 148.247 1065.01 154.7 1064.92 161.152C1058.34 161.152 1051.77 161.152 1045.19 161.152C1045.07 153.599 1045.2 146.061 1045.56 138.54C1045.1 133.275 1042.18 129.905 1036.79 128.433C1030.46 128.261 1024.13 128.204 1017.79 128.261C1017.79 139.225 1017.79 150.188 1017.79 161.152C1011.22 161.152 1004.64 161.152 998.067 161.152C998.067 134.2 998.067 107.248 998.067 80.2956ZM1017.79 95.0279C1025.34 94.9707 1032.89 95.0279 1040.44 95.1992C1045.65 97.035 1047.78 100.518 1046.84 105.649C1045.8 108.447 1043.79 110.331 1040.81 111.302C1037.6 111.668 1034.37 111.839 1031.13 111.816C1026.68 111.727 1022.24 111.612 1017.79 111.473C1017.79 105.992 1017.79 100.51 1017.79 95.0279Z" fill="#FEFFFE"/>
<path opacity="0.984" fill-rule="evenodd" clip-rule="evenodd" d="M1175.97 80.2959C1183.76 80.2959 1191.56 80.2959 1199.35 80.2959C1209.03 107.248 1218.9 134.143 1228.94 160.981C1221.88 161.209 1214.82 161.209 1207.75 160.981C1205.81 155.728 1203.86 150.474 1201.91 145.221C1192.17 144.992 1182.43 144.992 1172.68 145.221C1170.74 150.474 1168.79 155.728 1166.84 160.981C1159.9 161.152 1152.96 161.209 1146.02 161.152C1156 134.204 1165.98 107.252 1175.97 80.2959ZM1187.3 103.936C1190.72 112.301 1194 120.752 1197.16 129.289C1190.83 129.632 1184.5 129.746 1178.16 129.632C1181.13 121.045 1184.18 112.48 1187.3 103.936Z" fill="#FEFFFE"/>
<path opacity="0.849" fill-rule="evenodd" clip-rule="evenodd" d="M1093.41 178.283C1095.7 178.236 1096.61 179.263 1096.15 181.366C1095.36 182.321 1094.33 182.606 1093.05 182.223C1091.56 180.79 1091.68 179.477 1093.41 178.283Z" fill="#FEFFFE"/>
<path opacity="0.863" fill-rule="evenodd" clip-rule="evenodd" d="M1125.19 178.282C1127.2 178.279 1128.11 179.193 1127.93 181.023C1127.18 182.322 1126.03 182.722 1124.46 182.222C1123.34 180.653 1123.58 179.34 1125.19 178.282Z" fill="#FEFFFE"/>
<path opacity="0.885" fill-rule="evenodd" clip-rule="evenodd" d="M1172.32 178.283C1175.77 177.617 1178.21 178.76 1179.63 181.709C1178.99 182.378 1178.2 182.835 1177.25 183.08C1176.51 182.214 1175.6 181.529 1174.51 181.024C1172.29 181.59 1171.75 182.846 1172.87 184.793C1175.17 187.697 1177.55 190.552 1179.99 193.358C1180.59 192.339 1181.32 191.426 1182.18 190.617C1182.99 191.051 1183.72 191.565 1184.37 192.159C1183.5 193.328 1182.77 194.584 1182.18 195.927C1182.79 196.723 1183.4 197.523 1184.01 198.326C1183.32 199.076 1182.53 199.704 1181.63 200.21C1181.02 199.69 1180.47 199.119 1179.99 198.497C1176.43 200.796 1172.9 200.739 1169.4 198.326C1167.06 196.198 1166.27 193.629 1167.02 190.617C1167.79 188.99 1168.83 187.562 1170.13 186.334C1168.11 182.922 1168.84 180.239 1172.32 178.283ZM1171.95 188.904C1174.07 191.18 1176.14 193.521 1178.16 195.927C1175.57 197.882 1173.07 197.711 1170.68 195.414C1169.17 192.862 1169.6 190.692 1171.95 188.904Z" fill="#FEFFFE"/>
<path opacity="0.99" fill-rule="evenodd" clip-rule="evenodd" d="M861.442 178.625C917.578 178.625 973.713 178.625 1029.85 178.625C1029.85 185.591 1029.85 192.558 1029.85 199.524C973.713 199.524 917.578 199.524 861.442 199.524C861.442 192.558 861.442 185.591 861.442 178.625Z" fill="#FEFFFE"/>
<path opacity="0.906" fill-rule="evenodd" clip-rule="evenodd" d="M1042.63 178.625C1043.73 178.625 1044.83 178.625 1045.92 178.625C1045.92 184.678 1045.92 190.73 1045.92 196.783C1049.09 196.783 1052.25 196.783 1055.42 196.783C1055.42 197.697 1055.42 198.611 1055.42 199.524C1051.16 199.524 1046.9 199.524 1042.63 199.524C1042.63 192.558 1042.63 185.591 1042.63 178.625Z" fill="#FEFFFE"/>
<path opacity="0.907" fill-rule="evenodd" clip-rule="evenodd" d="M1190.95 178.625C1196.06 178.625 1201.18 178.625 1206.29 178.625C1206.29 179.539 1206.29 180.452 1206.29 181.366C1204.35 181.366 1202.39 181.366 1200.45 181.366C1200.45 187.419 1200.45 193.471 1200.45 199.524C1199.35 199.524 1198.26 199.524 1197.16 199.524C1197.16 193.471 1197.16 187.419 1197.16 181.366C1195.09 181.366 1193.02 181.366 1190.95 181.366C1190.95 180.452 1190.95 179.539 1190.95 178.625Z" fill="#FEFFFE"/>
<path opacity="0.884" fill-rule="evenodd" clip-rule="evenodd" d="M1114.6 180.681C1115.7 180.681 1116.79 180.681 1117.89 180.681C1117.89 182.166 1117.89 183.651 1117.89 185.135C1119.11 185.135 1120.32 185.135 1121.54 185.135C1121.54 186.049 1121.54 186.962 1121.54 187.876C1120.32 187.876 1119.11 187.876 1117.89 187.876C1117.83 190.619 1117.89 193.36 1118.07 196.099C1118.88 197.208 1119.92 197.437 1121.18 196.784C1121.27 197.619 1121.51 198.419 1121.91 199.182C1119.41 200.312 1117.16 199.97 1115.15 198.154C1114.63 194.756 1114.45 191.33 1114.6 187.876C1113.75 187.876 1112.9 187.876 1112.04 187.876C1112.04 186.962 1112.04 186.049 1112.04 185.135C1112.9 185.135 1113.75 185.135 1114.6 185.135C1114.6 183.651 1114.6 182.166 1114.6 180.681Z" fill="#FEFFFE"/>
<path opacity="0.886" fill-rule="evenodd" clip-rule="evenodd" d="M1311.14 180.681C1312.23 180.681 1313.33 180.681 1314.42 180.681C1314.42 182.166 1314.42 183.651 1314.42 185.135C1315.64 185.135 1316.86 185.135 1318.08 185.135C1318.08 186.049 1318.08 186.962 1318.08 187.876C1316.86 187.876 1315.64 187.876 1314.42 187.876C1314.36 190.619 1314.42 193.36 1314.61 196.099C1315.42 197.208 1316.45 197.437 1317.71 196.784C1317.81 197.619 1318.05 198.419 1318.44 199.182C1316.17 200.231 1314.04 200.002 1312.05 198.497C1311.8 198.04 1311.56 197.583 1311.32 197.127C1311.14 194.045 1311.07 190.962 1311.14 187.876C1310.28 187.876 1309.43 187.876 1308.58 187.876C1308.58 186.962 1308.58 186.049 1308.58 185.135C1309.43 185.135 1310.28 185.135 1311.14 185.135C1311.14 183.651 1311.14 182.166 1311.14 180.681Z" fill="#FEFFFE"/>
<path opacity="0.893" fill-rule="evenodd" clip-rule="evenodd" d="M1062 184.792C1069.84 184.327 1073.19 187.753 1072.04 195.071C1069.65 199.839 1065.82 201.267 1060.53 199.353C1056.83 196.798 1055.67 193.429 1057.06 189.246C1058.06 187.101 1059.71 185.616 1062 184.792ZM1063.09 187.533C1066.68 187.36 1068.76 188.959 1069.3 192.33C1069.11 195.304 1067.47 197.017 1064.37 197.469C1059.89 196.048 1058.67 193.308 1060.72 189.246C1061.44 188.544 1062.23 187.973 1063.09 187.533Z" fill="#FEFFFE"/>
<path opacity="0.884" fill-rule="evenodd" clip-rule="evenodd" d="M1078.8 184.792C1081.49 184.382 1083.86 184.953 1085.92 186.505C1086.1 186.062 1086.16 185.605 1086.11 185.135C1087.2 185.135 1088.3 185.135 1089.39 185.135C1089.46 189.933 1089.39 194.729 1089.21 199.525C1088.88 203.969 1086.32 206.253 1081.54 206.377C1078.24 206.345 1075.86 204.975 1074.42 202.265C1075.05 201.597 1075.84 201.14 1076.79 200.895C1077.49 201.454 1078.16 202.082 1078.8 202.779C1083.55 204.411 1085.92 202.869 1085.92 198.154C1082.19 201.016 1078.65 200.788 1075.33 197.469C1072.33 192.151 1073.49 187.926 1078.8 184.792ZM1080.26 187.533C1084.86 187.571 1086.75 189.741 1085.92 194.043C1084.54 197.061 1082.29 197.917 1079.17 196.612C1076.96 194.764 1076.41 192.537 1077.52 189.931C1078.16 188.819 1079.07 188.02 1080.26 187.533Z" fill="#FEFFFE"/>
<path opacity="0.879" fill-rule="evenodd" clip-rule="evenodd" d="M1102.18 184.792C1105.43 184.188 1108.17 184.988 1110.4 187.19C1110.68 187.685 1110.62 188.142 1110.22 188.561C1108.92 189.519 1107.82 189.405 1106.93 188.218C1105.5 187.398 1104.04 187.341 1102.55 188.047C1101.46 189.32 1101.82 190.119 1103.64 190.445C1106.27 190.694 1108.52 191.664 1110.4 193.357C1111.54 197.719 1109.66 200.004 1104.74 200.21C1101.65 200.053 1099.46 198.682 1098.16 196.098C1098.79 195.429 1099.58 194.973 1100.54 194.728C1101.59 196.122 1102.99 197.036 1104.74 197.469C1105.88 197.363 1106.79 196.906 1107.48 196.098C1107.74 195.459 1107.55 194.945 1106.93 194.556C1105.16 193.828 1103.34 193.257 1101.45 192.843C1098.65 191.591 1097.86 189.592 1099.07 186.848C1100.05 186.025 1101.09 185.339 1102.18 184.792Z" fill="#FEFFFE"/>
<path opacity="0.884" fill-rule="evenodd" clip-rule="evenodd" d="M1135.06 184.792C1139.36 184.001 1142.53 185.371 1144.56 188.904C1143.62 189.315 1142.7 189.772 1141.82 190.274C1140.07 187.365 1137.69 186.794 1134.69 188.561C1132.17 191.355 1132.29 194.038 1135.06 196.612C1136.46 197.547 1137.92 197.661 1139.44 196.955C1140.49 196.316 1141.4 195.574 1142.18 194.728C1142.96 194.98 1143.69 195.323 1144.37 195.756C1143.32 198.689 1141.07 200.173 1137.62 200.21C1132.54 199.848 1129.86 197.278 1129.58 192.501C1129.73 188.849 1131.55 186.279 1135.06 184.792Z" fill="#FEFFFE"/>
<path opacity="0.88" fill-rule="evenodd" clip-rule="evenodd" d="M1149.67 184.793C1153.43 184.042 1156.35 185.127 1158.44 188.047C1157.63 188.643 1156.72 189.043 1155.7 189.247C1154.16 187.501 1152.27 187.101 1150.04 188.047C1149.29 188.526 1149.17 189.096 1149.67 189.76C1151.43 190.489 1153.26 191.06 1155.15 191.474C1157.97 192.474 1159 194.358 1158.25 197.127C1156.92 199.126 1154.97 200.154 1152.41 200.21C1149.23 200.134 1146.98 198.764 1145.65 196.099C1146.33 195.389 1147.18 194.932 1148.21 194.728C1149.02 195.887 1150.12 196.744 1151.5 197.298C1152.76 197.437 1153.91 197.152 1154.97 196.441C1155.3 195.479 1155 194.737 1154.05 194.214C1151.78 193.74 1149.59 193.054 1147.48 192.159C1145.07 188.864 1145.8 186.408 1149.67 184.793Z" fill="#FEFFFE"/>
<path opacity="0.886" fill-rule="evenodd" clip-rule="evenodd" d="M1212.5 184.792C1213.89 184.677 1215.23 184.848 1216.52 185.306C1216.02 186.095 1215.78 186.951 1215.79 187.876C1213.64 187.48 1211.87 188.051 1210.49 189.589C1209.98 192.873 1209.79 196.185 1209.95 199.525C1208.85 199.525 1207.75 199.525 1206.66 199.525C1206.66 194.728 1206.66 189.932 1206.66 185.135C1207.63 185.135 1208.61 185.135 1209.58 185.135C1209.52 185.717 1209.58 186.288 1209.76 186.848C1210.53 185.95 1211.45 185.265 1212.5 184.792Z" fill="#FEFFFE"/>
<path opacity="0.903" fill-rule="evenodd" clip-rule="evenodd" d="M1220.54 184.792C1222.94 184.593 1225.25 184.878 1227.48 185.649C1228.71 186.459 1229.5 187.544 1229.85 188.903C1230.04 192.442 1230.1 195.982 1230.04 199.524C1229.06 199.524 1228.09 199.524 1227.12 199.524C1227.17 199.054 1227.11 198.597 1226.93 198.154C1224.34 200.51 1221.47 200.795 1218.35 199.01C1217.66 198.482 1217.11 197.854 1216.7 197.126C1215.62 193.817 1216.78 191.59 1220.17 190.445C1222.53 190.323 1224.85 190.266 1227.12 190.274C1226.1 187.97 1224.27 187.114 1221.64 187.704C1220.85 188.152 1220.12 188.666 1219.44 189.246C1218.67 188.915 1217.93 188.515 1217.25 188.047C1216.9 187.801 1216.84 187.515 1217.07 187.19C1218.1 186.171 1219.26 185.371 1220.54 184.792ZM1222 192.672C1223.85 192.47 1225.56 192.812 1227.12 193.7C1226.11 196.646 1224.04 197.731 1220.9 196.955C1219.22 195.067 1219.59 193.64 1222 192.672Z" fill="#FEFFFE"/>
<path opacity="0.924" fill-rule="evenodd" clip-rule="evenodd" d="M1238.81 184.792C1240.55 184.686 1242.25 184.858 1243.92 185.306C1244.83 185.706 1245.5 186.334 1245.93 187.191C1246.45 191.276 1246.64 195.387 1246.48 199.525C1245.5 199.525 1244.53 199.525 1243.55 199.525C1243.7 195.962 1243.52 192.422 1243.01 188.904C1240.41 186.853 1238.22 187.196 1236.43 189.931C1236.25 193.127 1236.19 196.325 1236.25 199.525C1235.15 199.525 1234.06 199.525 1232.96 199.525C1232.96 194.728 1232.96 189.931 1232.96 185.135C1233.94 185.135 1234.91 185.135 1235.88 185.135C1235.82 185.717 1235.89 186.288 1236.07 186.848C1236.2 186.534 1236.38 186.248 1236.61 185.991C1237.43 185.669 1238.16 185.269 1238.81 184.792Z" fill="#FEFFFE"/>
<path opacity="0.883" fill-rule="evenodd" clip-rule="evenodd" d="M1252.69 184.792C1255.47 184.37 1257.97 184.941 1260.18 186.505C1260.75 187.094 1261.05 187.779 1261.09 188.561C1260.25 188.638 1259.46 188.866 1258.71 189.246C1257.93 188.738 1257.14 188.224 1256.34 187.705C1254.97 187.386 1253.7 187.558 1252.5 188.218C1252.2 188.973 1252.39 189.601 1253.05 190.103C1255.29 190.684 1257.48 191.369 1259.63 192.159C1262.2 194.821 1261.96 197.22 1258.9 199.353C1254.27 201.097 1250.74 199.955 1248.3 195.927C1249.17 195.464 1250.09 195.064 1251.04 194.728C1252.41 197.021 1254.42 197.763 1257.07 196.955C1258.35 196.288 1258.47 195.489 1257.44 194.557C1255.91 193.941 1254.32 193.485 1252.69 193.186C1249.08 192.186 1248.04 190.073 1249.58 186.848C1250.43 185.856 1251.47 185.171 1252.69 184.792Z" fill="#FEFFFE"/>
<path opacity="0.917" fill-rule="evenodd" clip-rule="evenodd" d="M1269.13 184.792C1276.14 184.576 1279.25 187.773 1278.44 194.385C1276.51 199.717 1272.79 201.259 1267.3 199.011C1267 198.725 1266.69 198.44 1266.39 198.154C1266.2 200.778 1266.14 203.405 1266.2 206.034C1265.23 206.034 1264.26 206.034 1263.28 206.034C1263.28 199.068 1263.28 192.101 1263.28 185.135C1264.26 185.135 1265.23 185.135 1266.2 185.135C1266.14 185.605 1266.21 186.062 1266.39 186.505C1267.27 185.837 1268.19 185.265 1269.13 184.792ZM1269.49 187.533C1272.29 187.129 1274.17 188.156 1275.15 190.617C1276.11 194.282 1274.65 196.566 1270.77 197.469C1266.73 196.261 1265.38 193.748 1266.75 189.931C1267.39 188.819 1268.3 188.02 1269.49 187.533Z" fill="#FEFFFE"/>
<path opacity="0.885" fill-rule="evenodd" clip-rule="evenodd" d="M1285.56 184.792C1293.22 184.263 1296.57 187.575 1295.61 194.728C1293.38 199.655 1289.54 201.196 1284.1 199.353C1280.17 196.731 1279.01 193.248 1280.63 188.903C1281.67 186.852 1283.32 185.482 1285.56 184.792ZM1286.66 187.533C1289.36 187.283 1291.24 188.311 1292.32 190.616C1293.26 194.296 1291.8 196.58 1287.94 197.469C1283.33 196.123 1282.11 193.382 1284.29 189.246C1285.01 188.544 1285.79 187.972 1286.66 187.533Z" fill="#FEFFFE"/>
<path opacity="0.877" fill-rule="evenodd" clip-rule="evenodd" d="M1303.83 184.792C1304.81 184.792 1305.78 184.792 1306.75 184.792C1306.75 185.82 1306.75 186.848 1306.75 187.876C1304.48 187.49 1302.71 188.175 1301.46 189.931C1300.94 193.101 1300.75 196.299 1300.91 199.525C1299.81 199.525 1298.72 199.525 1297.62 199.525C1297.62 194.728 1297.62 189.931 1297.62 185.135C1298.72 185.135 1299.81 185.135 1300.91 185.135C1300.85 185.605 1300.91 186.062 1301.09 186.505C1301.88 185.709 1302.8 185.138 1303.83 184.792Z" fill="#FEFFFE"/>
<path opacity="0.988" fill-rule="evenodd" clip-rule="evenodd" d="M1092.68 185.135C1093.66 185.135 1094.63 185.135 1095.6 185.135C1095.6 189.932 1095.6 194.728 1095.6 199.525C1094.63 199.525 1093.66 199.525 1092.68 199.525C1092.68 194.728 1092.68 189.932 1092.68 185.135Z" fill="#FEFFFE"/>
<path opacity="0.879" fill-rule="evenodd" clip-rule="evenodd" d="M1124.1 185.135C1125.19 185.135 1126.29 185.135 1127.39 185.135C1127.39 189.932 1127.39 194.728 1127.39 199.525C1126.29 199.525 1125.19 199.525 1124.1 199.525C1124.1 194.728 1124.1 189.932 1124.1 185.135Z" fill="#FEFFFE"/>
</svg>
