<svg width="1440" height="274" viewBox="0 0 1440 274" fill="none" xmlns="http://www.w3.org/2000/svg">
<path d="M1442.78 243.699V175.064C1442.78 159.697 1431.17 146.815 1415.89 145.225L1119.39 114.387L754.81 76.5458C689.516 65.7053 536.433 42.0207 492.452 34.3458C455.127 27.8323 360.468 5.64279 238.971 1.70078C150.789 -1.16034 86.7373 3.84056 20.243 23.0585C7.91455 26.6217 -0.344116 38.0298 -0.476929 50.8622L-2.46912 243.389C-2.64185 260.078 10.8394 273.699 27.5293 273.699H1412.78C1429.35 273.699 1442.78 260.268 1442.78 243.699Z" fill="#BFBFBF"/>
<g clip-path="url(#clip0_432_1994)">
<path fill-rule="evenodd" clip-rule="evenodd" d="M74.3369 114.876C93.9234 114.876 113.51 114.876 133.096 114.876C133.096 120.102 133.096 125.327 133.096 130.553C119.433 130.553 105.77 130.553 92.1069 130.553C92.1069 136.086 92.1069 141.619 92.1069 147.152C104.191 147.152 116.274 147.152 128.358 147.152C128.358 152.148 128.358 157.143 128.358 162.138C116.274 162.138 104.191 162.138 92.1069 162.138C92.1069 172.974 92.1069 183.809 92.1069 194.645C86.1836 194.645 80.2603 194.645 74.3369 194.645C74.3369 168.055 74.3369 141.466 74.3369 114.876Z" fill="#FEFFFE"/>
<path fill-rule="evenodd" clip-rule="evenodd" d="M136.921 114.876C158.42 114.876 179.92 114.876 201.419 114.876C201.419 120.102 201.419 125.327 201.419 130.553C186.293 130.553 171.167 130.553 156.041 130.553C156.041 135.241 156.041 139.929 156.041 144.616C169.042 144.616 182.044 144.616 195.046 144.616C195.046 149.458 195.046 154.299 195.046 159.141C182.044 159.141 169.042 159.141 156.041 159.141C156.041 165.442 156.041 171.744 156.041 178.046C171.167 178.046 186.293 178.046 201.419 178.046C201.419 183.579 201.419 189.112 201.419 194.645C179.92 194.645 158.42 194.645 136.921 194.645C136.921 168.055 136.921 141.466 136.921 114.876Z" fill="#FEFFFE"/>
<path fill-rule="evenodd" clip-rule="evenodd" d="M208.048 114.876C224.109 114.876 240.169 114.876 256.23 114.876C265.861 116.092 272.702 120.703 276.753 128.709C280.473 139.48 277.371 148.241 267.448 154.991C271.738 157.29 274.33 160.671 275.223 165.135C275.351 174.971 275.393 184.808 275.351 194.645C268.806 194.652 262.262 194.575 255.721 194.414C255.763 186.268 255.721 178.122 255.593 169.976C254.372 165.525 251.27 162.873 246.288 162.023C240.085 161.907 233.882 161.869 227.678 161.907C227.678 172.743 227.678 183.579 227.678 194.414C221.134 194.414 214.591 194.414 208.048 194.414C208.048 167.902 208.048 141.389 208.048 114.876ZM227.678 128.939C235.42 128.835 243.153 128.95 250.877 129.285C256.105 131.092 258.271 134.512 257.378 139.544C256.315 142.657 254.063 144.693 250.622 145.654C249.06 145.876 247.488 145.991 245.906 146C239.832 145.799 233.756 145.722 227.678 145.769C227.678 140.159 227.678 134.549 227.678 128.939Z" fill="#FEFFFE"/>
<path fill-rule="evenodd" clip-rule="evenodd" d="M315.121 114.876C320.984 114.876 326.848 114.876 332.711 114.876C346.172 117.017 355.39 123.857 360.372 135.395C361.147 137.266 361.868 139.149 362.539 141.043C355.653 141.235 348.77 141.197 341.889 140.928C339.097 133.256 333.234 129.26 324.298 128.939C316.449 129.01 310.543 132.084 306.58 138.161C301.152 147.805 300.473 157.718 304.541 167.902C309.96 178.07 318.755 181.72 330.927 178.852C336.869 176.434 340.525 172.322 341.889 166.518C348.688 166.518 355.485 166.518 362.284 166.518C360.644 174.937 356.397 182.045 349.537 187.844C344.591 191.116 339.067 193.191 332.966 194.068C323.881 195.271 315.043 194.426 306.453 191.532C293.462 186.153 285.771 177.047 283.381 164.213C280.871 152.32 282.995 141.177 289.755 130.784C295.838 122.367 304.293 117.065 315.121 114.876Z" fill="#FEFFFE"/>
<path fill-rule="evenodd" clip-rule="evenodd" d="M388.032 114.876C395.68 114.876 403.328 114.876 410.976 114.876C420.781 141.324 430.64 167.76 440.549 194.184C433.582 194.414 426.614 194.491 419.644 194.414C417.931 189.149 416.06 183.923 414.036 178.737C404.009 178.507 393.982 178.43 383.953 178.507C382.136 183.744 380.267 188.969 378.345 194.184C371.464 194.414 364.581 194.491 357.695 194.414C367.757 167.887 377.868 141.374 388.032 114.876ZM398.994 137.239C402.571 145.942 406.056 154.703 409.447 163.521C402.734 163.79 396.022 163.829 389.307 163.636C392.664 154.876 395.892 146.076 398.994 137.239Z" fill="#FEFFFE"/>
<path fill-rule="evenodd" clip-rule="evenodd" d="M443.353 114.876C452.1 114.876 460.845 114.876 469.591 114.876C474.324 133.097 479.094 151.31 483.903 169.515C489.256 151.353 494.425 133.14 499.407 114.876C506.881 114.876 514.356 114.876 521.829 114.876C521.829 141.389 521.829 167.902 521.829 194.414C516.899 194.414 511.971 194.414 507.04 194.414C507.081 177.892 507.04 161.369 506.921 144.847C502.229 161.293 497.54 177.738 492.848 194.184C489.924 194.336 486.983 194.413 484.022 194.414C481.026 194.412 478.085 194.258 475.197 193.953C470.622 177.574 466.011 161.206 461.362 144.847C461.243 161.369 461.202 177.892 461.243 194.414C455.28 194.414 449.316 194.414 443.353 194.414C443.353 167.902 443.353 141.389 443.353 114.876Z" fill="#FEFFFE"/>
<path fill-rule="evenodd" clip-rule="evenodd" d="M69.8725 210.091C162.584 210.091 255.296 210.091 348.007 210.091C348.007 219.236 348.007 228.381 348.007 237.526C255.296 237.526 162.584 237.526 69.8725 237.526C69.8725 228.381 69.8725 219.236 69.8725 210.091Z" fill="#00479A"/>
<path fill-rule="evenodd" clip-rule="evenodd" d="M359.479 210.322C366.279 210.322 373.075 210.322 379.874 210.322C379.874 211.398 379.874 212.474 379.874 213.55C377.07 213.55 374.266 213.55 371.461 213.55C371.461 221.465 371.461 229.38 371.461 237.296C370.271 237.296 369.083 237.296 367.892 237.296C367.892 229.38 367.892 221.465 367.892 213.55C365.088 213.55 362.284 213.55 359.479 213.55C359.479 212.474 359.479 211.398 359.479 210.322Z" fill="#FEFFFE"/>
<path fill-rule="evenodd" clip-rule="evenodd" d="M527.227 218.852C527.227 219.928 527.227 221.004 527.227 222.08C526.462 222.08 525.697 222.08 524.933 222.08C524.889 225.616 524.933 229.15 525.06 232.685C525.371 233.697 526.093 234.235 527.227 234.299C527.227 235.451 527.227 236.604 527.227 237.757C524.509 237.816 522.597 236.741 521.491 234.529C521.121 230.392 520.994 226.242 521.109 222.08C519.918 222.08 518.73 222.08 517.54 222.08C517.54 221.004 517.54 219.928 517.54 218.852C518.73 218.852 519.918 218.852 521.109 218.852C521.109 216.931 521.109 215.01 521.109 213.088C522.383 213.088 523.658 213.088 524.933 213.088C524.933 215.01 524.933 216.931 524.933 218.852C525.697 218.852 526.462 218.852 527.227 218.852Z" fill="white"/>
<path fill-rule="evenodd" clip-rule="evenodd" d="M401.034 218.16C404.779 217.765 407.882 218.841 410.339 221.388C411.071 222.449 411.494 223.602 411.614 224.846C411.741 228.995 411.785 233.145 411.741 237.296C410.551 237.296 409.363 237.296 408.172 237.296C408.496 234.667 407.902 234.398 406.388 236.489C404.356 237.908 402.061 238.37 399.504 237.872C394.972 236.628 393.144 233.9 394.023 229.688C395.693 226.606 398.454 225.146 402.309 225.307C404.261 225.363 406.13 225.747 407.917 226.46C408.047 223.347 406.347 221.656 402.818 221.388C400.692 221.427 398.992 222.196 397.72 223.694C396.527 223.155 395.423 222.502 394.406 221.734C396.134 219.763 398.344 218.572 401.034 218.16ZM402.054 228.074C404.289 227.961 406.329 228.461 408.172 229.572C407.499 232.756 405.373 234.562 401.799 234.99C398.365 234.697 397.133 233.083 398.102 230.149C399.196 229.06 400.514 228.369 402.054 228.074Z" fill="white"/>
<path fill-rule="evenodd" clip-rule="evenodd" d="M424.998 218.16C428.511 217.809 431.188 218.962 433.028 221.619C433.388 222.439 433.643 223.284 433.793 224.155C433.921 228.534 433.964 232.915 433.921 237.296C432.646 237.296 431.371 237.296 430.097 237.296C430.211 232.826 430.084 228.369 429.714 223.924C428.83 222.236 427.343 221.39 425.253 221.388C422.479 221.552 420.738 222.858 420.027 225.307C419.899 229.303 419.856 233.299 419.899 237.296C418.54 237.296 417.179 237.296 415.82 237.296C415.82 231.148 415.82 225 415.82 218.852C417.095 218.852 418.37 218.852 419.644 218.852C419.601 219.701 419.644 220.546 419.772 221.388C421.077 219.705 422.818 218.629 424.998 218.16Z" fill="#FEFFFE"/>
<path fill-rule="evenodd" clip-rule="evenodd" d="M443.863 218.16C448.006 217.79 451.149 219.173 453.296 222.31C452.414 222.988 451.394 223.449 450.237 223.694C447.988 221.253 445.268 220.753 442.079 222.195C440.99 223.281 441.074 224.28 442.334 225.192C445.125 226.073 447.929 226.918 450.746 227.728C453.586 229.518 454.308 231.862 452.913 234.76C450.479 237.569 447.292 238.607 443.353 237.872C440.291 237.253 438.165 235.639 436.98 233.031C437.016 232.853 437.102 232.699 437.235 232.57C438.262 232.239 439.239 231.817 440.167 231.302C441.783 234.588 444.46 235.626 448.197 234.414C450.129 233.223 450.214 231.916 448.452 230.495C445.806 229.762 443.172 228.993 440.549 228.189C437.329 226.4 436.605 223.979 438.382 220.927C439.84 219.366 441.668 218.443 443.863 218.16Z" fill="#FEFFFE"/>
<path fill-rule="evenodd" clip-rule="evenodd" d="M460.434 243.29C459.159 243.29 457.885 243.29 456.61 243.29C456.61 235.144 456.61 226.998 456.61 218.852C457.8 218.852 458.988 218.852 460.179 218.852C460.136 219.701 460.179 220.546 460.306 221.388C463.468 218.128 467.248 217.398 471.651 219.198C476.268 222.347 477.841 226.458 476.367 231.532C473.815 237.47 469.27 239.276 462.728 236.95C461.846 236.382 461.038 235.729 460.306 234.99C460.401 237.75 460.442 240.516 460.434 243.29ZM465.533 221.388C470.466 221.43 473.015 223.697 473.181 228.189C473.051 232.085 470.884 234.353 466.68 234.99C462.473 234.348 460.306 232.081 460.179 228.189C460.258 224.764 462.043 222.497 465.533 221.388Z" fill="#FEFFFE"/>
<path fill-rule="evenodd" clip-rule="evenodd" d="M488.222 218.16C494.17 217.97 498.034 220.429 499.822 225.538C500.846 229.981 499.444 233.631 495.615 236.489C491.633 238.486 487.641 238.486 483.633 236.489C478.981 232.583 478.002 228.01 480.701 222.771C482.427 220.171 484.933 218.634 488.222 218.16ZM488.477 221.388C493.55 221.325 496.184 223.592 496.38 228.189C496.176 232.137 493.925 234.404 489.624 234.99C486.195 234.501 484.069 232.734 483.251 229.688C482.573 225.605 484.314 222.839 488.477 221.388Z" fill="#FEFFFE"/>
<path fill-rule="evenodd" clip-rule="evenodd" d="M388.797 218.391C390.253 218.348 391.698 218.425 393.131 218.622C392.871 219.715 392.532 220.791 392.111 221.849C388.726 221.324 386.304 222.477 384.845 225.307C384.473 229.288 384.346 233.284 384.463 237.296C383.188 237.296 381.914 237.296 380.639 237.296C380.639 231.148 380.639 225 380.639 218.852C381.83 218.852 383.018 218.852 384.208 218.852C384.165 219.854 384.208 220.853 384.336 221.849C385.478 220.317 386.964 219.164 388.797 218.391Z" fill="#FEFFFE"/>
<path fill-rule="evenodd" clip-rule="evenodd" d="M511.676 218.391C512.696 218.391 513.715 218.391 514.735 218.391C514.779 219.623 514.735 220.853 514.608 222.08C511.472 221.424 509.091 222.346 507.47 224.846C507.097 228.98 506.97 233.13 507.087 237.296C505.728 237.296 504.367 237.296 503.008 237.296C503.008 231.148 503.008 225 503.008 218.852C504.283 218.852 505.558 218.852 506.832 218.852C506.789 219.854 506.832 220.853 506.96 221.849C507.977 220.044 509.547 218.891 511.676 218.391Z" fill="white"/>
</g>
<defs>
<clipPath id="clip0_432_1994">
<rect width="457.355" height="128.414" fill="white" transform="translate(70 114.991)"/>
</clipPath>
</defs>
</svg>
