<svg width="165" height="51" viewBox="0 0 165 51" fill="none" xmlns="http://www.w3.org/2000/svg">
<g clip-path="url(#clip0_449_6572)">
<path fill-rule="evenodd" clip-rule="evenodd" d="M1.82556 0.306152C8.86954 0.306152 15.9135 0.306152 22.9575 0.306152C22.9575 2.35961 22.9575 4.41307 22.9575 6.46653C18.0437 6.46653 13.13 6.46653 8.21626 6.46653C8.21626 8.64078 8.21626 10.815 8.21626 12.9893C12.5619 12.9893 16.9076 12.9893 21.2533 12.9893C21.2533 14.9522 21.2533 16.915 21.2533 18.8779C16.9076 18.8779 12.5619 18.8779 8.21626 18.8779C8.21626 23.1358 8.21626 27.3937 8.21626 31.6516C6.08603 31.6516 3.9558 31.6516 1.82556 31.6516C1.82556 21.2031 1.82556 10.7546 1.82556 0.306152Z" fill="#FEFFFE"/>
<path fill-rule="evenodd" clip-rule="evenodd" d="M24.3328 0.306152C32.0647 0.306152 39.7967 0.306152 47.5287 0.306152C47.5287 2.35961 47.5287 4.41307 47.5287 6.46653C42.0888 6.46653 36.6489 6.46653 31.209 6.46653C31.209 8.3086 31.209 10.1507 31.209 11.9927C35.8849 11.9927 40.5607 11.9927 45.2366 11.9927C45.2366 13.8952 45.2366 15.7977 45.2366 17.7002C40.5607 17.7002 35.8849 17.7002 31.209 17.7002C31.209 20.1764 31.209 22.6526 31.209 25.1288C36.6489 25.1288 42.0888 25.1288 47.5287 25.1288C47.5287 27.3031 47.5287 29.4773 47.5287 31.6516C39.7967 31.6516 32.0647 31.6516 24.3328 31.6516C24.3328 21.2031 24.3328 10.7546 24.3328 0.306152Z" fill="#FEFFFE"/>
<path fill-rule="evenodd" clip-rule="evenodd" d="M49.9125 0.306152C55.6885 0.306152 61.4646 0.306152 67.2406 0.306152C70.7043 0.783926 73.1645 2.5958 74.6212 5.74178C75.959 9.97441 74.8435 13.417 71.2747 16.0695C72.8177 16.9729 73.7497 18.3016 74.0711 20.0556C74.1169 23.9208 74.1322 27.7861 74.1169 31.6516C71.7631 31.6544 69.41 31.6242 67.0573 31.561C67.0726 28.3599 67.0573 25.1589 67.0114 21.9581C66.5724 20.2087 65.4569 19.1669 63.665 18.8326C61.4342 18.7873 59.2033 18.7722 56.9721 18.7873C56.9721 23.0452 56.9721 27.3031 56.9721 31.561C54.6189 31.561 52.2657 31.561 49.9125 31.561C49.9125 21.1427 49.9125 10.7244 49.9125 0.306152ZM56.9721 5.83237C59.7565 5.79137 62.5376 5.83667 65.3153 5.96826C67.1954 6.67819 67.9747 8.02201 67.6532 9.99969C67.2712 11.2227 66.4613 12.0229 65.2236 12.4004C64.662 12.4876 64.0965 12.5329 63.5275 12.5363C61.3431 12.4573 59.158 12.4271 56.9721 12.4457C56.9721 10.2413 56.9721 8.03682 56.9721 5.83237Z" fill="#FEFFFE"/>
<path fill-rule="evenodd" clip-rule="evenodd" d="M88.4195 0.306152C90.5282 0.306152 92.6369 0.306152 94.7457 0.306152C99.5866 1.14755 102.902 3.83516 104.693 8.369C104.972 9.10455 105.232 9.84441 105.473 10.5885C102.996 10.664 100.521 10.649 98.0463 10.5432C97.0423 7.52853 94.9336 5.95823 91.7201 5.83237C88.8974 5.85998 86.7733 7.06789 85.3481 9.45612C83.3961 13.2456 83.1516 17.1411 84.6146 21.1427C86.5635 25.1384 89.7265 26.5729 94.1039 25.4459C96.241 24.4954 97.5558 22.8799 98.0463 20.5992C100.491 20.5992 102.936 20.5992 105.381 20.5992C104.791 23.9072 103.264 26.7005 100.797 28.9791C99.0181 30.2649 97.0313 31.0802 94.8374 31.4251C91.57 31.8977 88.3916 31.5656 85.3023 30.4286C80.6303 28.3148 77.8645 24.7364 77.0049 19.6932C76.102 15.0198 76.866 10.6411 79.297 6.55712C81.4848 3.24984 84.5255 1.16618 88.4195 0.306152Z" fill="#FEFFFE"/>
<path fill-rule="evenodd" clip-rule="evenodd" d="M114.641 0.306152C117.391 0.306152 120.142 0.306152 122.892 0.306152C126.419 10.6988 129.964 21.0869 133.528 31.4704C131.022 31.561 128.516 31.5912 126.01 31.561C125.394 29.4919 124.721 27.4384 123.993 25.4006C120.387 25.31 116.781 25.2799 113.174 25.31C112.52 27.368 111.848 29.4214 111.157 31.4704C108.682 31.561 106.207 31.5912 103.731 31.561C107.349 21.137 110.986 10.7187 114.641 0.306152ZM118.583 9.09375C119.87 12.5136 121.123 15.9561 122.342 19.4214C119.928 19.5272 117.514 19.5422 115.099 19.4667C116.307 16.0241 117.468 12.5664 118.583 9.09375Z" fill="#FEFFFE"/>
<path fill-rule="evenodd" clip-rule="evenodd" d="M134.536 0.306152C137.682 0.306152 140.827 0.306152 143.972 0.306152C145.674 7.46627 147.39 14.6231 149.119 21.7769C151.044 14.64 152.903 7.4831 154.695 0.306152C157.383 0.306152 160.071 0.306152 162.759 0.306152C162.759 10.7244 162.759 21.1427 162.759 31.561C160.986 31.561 159.213 31.561 157.44 31.561C157.455 25.0684 157.44 18.5758 157.397 12.0833C155.71 18.5457 154.024 25.0081 152.336 31.4704C151.285 31.5304 150.227 31.5606 149.162 31.561C148.085 31.5601 147.027 31.4997 145.988 31.3798C144.343 24.9437 142.685 18.5115 141.013 12.0833C140.97 18.5758 140.955 25.0684 140.97 31.561C138.825 31.561 136.681 31.561 134.536 31.561C134.536 21.1427 134.536 10.7244 134.536 0.306152Z" fill="#FEFFFE"/>
<path fill-rule="evenodd" clip-rule="evenodd" d="M0.220032 37.7214C33.0144 37.7214 65.8087 37.7214 98.6031 37.7214C98.6031 41.315 98.6031 44.9085 98.6031 48.5021C65.8087 48.5021 33.0144 48.5021 0.220032 48.5021C0.220032 44.9085 0.220032 41.315 0.220032 37.7214Z" fill="#D74D00"/>
<path d="M100.519 46.8123V37.7123H103.47C104.536 37.7123 105.412 37.8986 106.096 38.2713C106.79 38.6439 107.301 39.1726 107.63 39.8573C107.968 40.5333 108.137 41.3393 108.137 42.2753C108.137 43.2026 107.968 44.0086 107.63 44.6933C107.301 45.3693 106.79 45.8936 106.096 46.2663C105.412 46.6303 104.536 46.8123 103.47 46.8123H100.519ZM101.897 45.6423H103.418C104.242 45.6423 104.892 45.5079 105.368 45.2393C105.854 44.9706 106.2 44.5849 106.408 44.0823C106.625 43.5796 106.733 42.9773 106.733 42.2753C106.733 41.5733 106.625 40.9666 106.408 40.4553C106.2 39.9439 105.854 39.5539 105.368 39.2853C104.892 39.0079 104.242 38.8693 103.418 38.8693H101.897V45.6423ZM109.738 39.1423C109.478 39.1423 109.261 39.0643 109.088 38.9083C108.923 38.7436 108.841 38.5399 108.841 38.2973C108.841 38.0546 108.923 37.8553 109.088 37.6993C109.261 37.5346 109.478 37.4523 109.738 37.4523C109.998 37.4523 110.21 37.5346 110.375 37.6993C110.548 37.8553 110.635 38.0546 110.635 38.2973C110.635 38.5399 110.548 38.7436 110.375 38.9083C110.21 39.0643 109.998 39.1423 109.738 39.1423ZM109.049 46.8123V40.3643H110.427V46.8123H109.049ZM114.17 46.9683C113.355 46.9683 112.684 46.7689 112.155 46.3703C111.626 45.9716 111.323 45.4429 111.245 44.7843H112.636C112.705 45.0789 112.87 45.3346 113.13 45.5513C113.39 45.7593 113.732 45.8633 114.157 45.8633C114.573 45.8633 114.876 45.7766 115.067 45.6033C115.258 45.4299 115.353 45.2306 115.353 45.0053C115.353 44.6759 115.219 44.4549 114.95 44.3423C114.69 44.2209 114.326 44.1126 113.858 44.0173C113.494 43.9393 113.13 43.8353 112.766 43.7053C112.411 43.5753 112.112 43.3933 111.869 43.1593C111.635 42.9166 111.518 42.5916 111.518 42.1843C111.518 41.6209 111.735 41.1529 112.168 40.7803C112.601 40.3989 113.208 40.2083 113.988 40.2083C114.707 40.2083 115.288 40.3816 115.73 40.7283C116.181 41.0749 116.445 41.5646 116.523 42.1973H115.197C115.154 41.9199 115.024 41.7033 114.807 41.5473C114.599 41.3913 114.317 41.3133 113.962 41.3133C113.615 41.3133 113.347 41.3869 113.156 41.5343C112.965 41.6729 112.87 41.8549 112.87 42.0803C112.87 42.3056 113 42.4833 113.26 42.6133C113.529 42.7433 113.88 42.8603 114.313 42.9643C114.746 43.0596 115.145 43.1723 115.509 43.3023C115.882 43.4236 116.181 43.6056 116.406 43.8483C116.631 44.0909 116.744 44.4463 116.744 44.9143C116.753 45.5036 116.523 45.9933 116.055 46.3833C115.596 46.7733 114.967 46.9683 114.17 46.9683ZM120.061 46.8123C119.428 46.8123 118.926 46.6606 118.553 46.3573C118.18 46.0453 117.994 45.4949 117.994 44.7063V41.5213H116.889V40.3643H117.994L118.163 38.7263H119.372V40.3643H121.192V41.5213H119.372V44.7063C119.372 45.0616 119.446 45.3086 119.593 45.4473C119.749 45.5773 120.013 45.6423 120.386 45.6423H121.127V46.8123H120.061ZM121.963 46.8123V40.3643H123.198L123.315 41.5863C123.54 41.1616 123.852 40.8279 124.251 40.5853C124.658 40.3339 125.148 40.2083 125.72 40.2083V41.6513H125.343C124.962 41.6513 124.619 41.7163 124.316 41.8463C124.021 41.9676 123.783 42.1799 123.601 42.4833C123.428 42.7779 123.341 43.1896 123.341 43.7183V46.8123H121.963ZM127.031 39.1423C126.771 39.1423 126.555 39.0643 126.381 38.9083C126.217 38.7436 126.134 38.5399 126.134 38.2973C126.134 38.0546 126.217 37.8553 126.381 37.6993C126.555 37.5346 126.771 37.4523 127.031 37.4523C127.291 37.4523 127.504 37.5346 127.668 37.6993C127.842 37.8553 127.928 38.0546 127.928 38.2973C127.928 38.5399 127.842 38.7436 127.668 38.9083C127.504 39.0643 127.291 39.1423 127.031 39.1423ZM126.342 46.8123V40.3643H127.72V46.8123H126.342ZM132.516 46.9683C132.014 46.9683 131.567 46.8686 131.177 46.6693C130.796 46.4699 130.493 46.1883 130.267 45.8243L130.124 46.8123H128.889V37.4523H130.267V41.3653C130.475 41.0619 130.761 40.7933 131.125 40.5593C131.489 40.3253 131.957 40.2083 132.529 40.2083C133.153 40.2083 133.704 40.3556 134.18 40.6503C134.657 40.9449 135.03 41.3479 135.298 41.8593C135.576 42.3706 135.714 42.9513 135.714 43.6013C135.714 44.2513 135.576 44.8319 135.298 45.3433C135.03 45.8459 134.657 46.2446 134.18 46.5393C133.704 46.8253 133.149 46.9683 132.516 46.9683ZM132.282 45.7723C132.872 45.7723 133.357 45.5729 133.738 45.1743C134.12 44.7669 134.31 44.2383 134.31 43.5883C134.31 43.1636 134.224 42.7866 134.05 42.4573C133.877 42.1279 133.639 41.8723 133.335 41.6903C133.032 41.4996 132.681 41.4043 132.282 41.4043C131.693 41.4043 131.208 41.6079 130.826 42.0153C130.454 42.4226 130.267 42.9469 130.267 43.5883C130.267 44.2383 130.454 44.7669 130.826 45.1743C131.208 45.5729 131.693 45.7723 132.282 45.7723ZM138.934 46.9683C138.154 46.9683 137.539 46.7256 137.088 46.2403C136.646 45.7549 136.425 45.0313 136.425 44.0693V40.3643H137.803V43.9263C137.803 45.1743 138.314 45.7983 139.337 45.7983C139.848 45.7983 140.269 45.6163 140.598 45.2523C140.927 44.8883 141.092 44.3683 141.092 43.6923V40.3643H142.47V46.8123H141.248L141.144 45.6813C140.945 46.0799 140.65 46.3963 140.26 46.6303C139.879 46.8556 139.437 46.9683 138.934 46.9683ZM146.277 46.8123C145.644 46.8123 145.142 46.6606 144.769 46.3573C144.396 46.0453 144.21 45.4949 144.21 44.7063V41.5213H143.105V40.3643H144.21L144.379 38.7263H145.588V40.3643H147.408V41.5213H145.588V44.7063C145.588 45.0616 145.662 45.3086 145.809 45.4473C145.965 45.5773 146.229 45.6423 146.602 45.6423H147.343V46.8123H146.277ZM148.959 39.1423C148.699 39.1423 148.482 39.0643 148.309 38.9083C148.144 38.7436 148.062 38.5399 148.062 38.2973C148.062 38.0546 148.144 37.8553 148.309 37.6993C148.482 37.5346 148.699 37.4523 148.959 37.4523C149.219 37.4523 149.431 37.5346 149.596 37.6993C149.769 37.8553 149.856 38.0546 149.856 38.2973C149.856 38.5399 149.769 38.7436 149.596 38.9083C149.431 39.0643 149.219 39.1423 148.959 39.1423ZM148.27 46.8123V40.3643H149.648V46.8123H148.27ZM153.833 46.9683C153.217 46.9683 152.663 46.8296 152.169 46.5523C151.683 46.2663 151.298 45.8719 151.012 45.3693C150.726 44.8579 150.583 44.2643 150.583 43.5883C150.583 42.9123 150.726 42.3229 151.012 41.8203C151.306 41.3089 151.701 40.9146 152.195 40.6373C152.689 40.3513 153.239 40.2083 153.846 40.2083C154.461 40.2083 155.011 40.3513 155.497 40.6373C155.991 40.9146 156.381 41.3089 156.667 41.8203C156.961 42.3229 157.109 42.9123 157.109 43.5883C157.109 44.2643 156.961 44.8579 156.667 45.3693C156.381 45.8719 155.991 46.2663 155.497 46.5523C155.003 46.8296 154.448 46.9683 153.833 46.9683ZM153.833 45.7853C154.162 45.7853 154.465 45.7029 154.743 45.5383C155.029 45.3736 155.258 45.1309 155.432 44.8103C155.605 44.4809 155.692 44.0736 155.692 43.5883C155.692 43.1029 155.605 42.6999 155.432 42.3793C155.267 42.0499 155.042 41.8029 154.756 41.6383C154.478 41.4736 154.175 41.3913 153.846 41.3913C153.516 41.3913 153.209 41.4736 152.923 41.6383C152.645 41.8029 152.42 42.0499 152.247 42.3793C152.073 42.6999 151.987 43.1029 151.987 43.5883C151.987 44.0736 152.073 44.4809 152.247 44.8103C152.42 45.1309 152.645 45.3736 152.923 45.5383C153.2 45.7029 153.503 45.7853 153.833 45.7853ZM157.949 46.8123V40.3643H159.171L159.275 41.4953C159.474 41.0966 159.765 40.7846 160.146 40.5593C160.536 40.3253 160.982 40.2083 161.485 40.2083C162.265 40.2083 162.876 40.4509 163.318 40.9363C163.769 41.4216 163.994 42.1453 163.994 43.1073V46.8123H162.629V43.2503C162.629 42.0023 162.118 41.3783 161.095 41.3783C160.584 41.3783 160.159 41.5603 159.821 41.9243C159.492 42.2883 159.327 42.8083 159.327 43.4843V46.8123H157.949Z" fill="white"/>
</g>
<defs>
<clipPath id="clip0_449_6572">
<rect width="164.48" height="50.4607" fill="white" transform="translate(0.265869 0.351562)"/>
</clipPath>
</defs>
</svg>
