<svg width="165" height="49" viewBox="0 0 165 49" fill="none" xmlns="http://www.w3.org/2000/svg">
<g clip-path="url(#clip0_449_6461)">
<path fill-rule="evenodd" clip-rule="evenodd" d="M1.73657 -0.041748C8.78055 -0.041748 15.8245 -0.041748 22.8685 -0.041748C22.8685 1.92551 22.8685 3.89276 22.8685 5.86001C17.9547 5.86001 13.041 5.86001 8.12727 5.86001C8.12727 7.94299 8.12727 10.026 8.12727 12.1089C12.473 12.1089 16.8186 12.1089 21.1643 12.1089C21.1643 13.9894 21.1643 15.8698 21.1643 17.7503C16.8186 17.7503 12.473 17.7503 8.12727 17.7503C8.12727 21.8295 8.12727 25.9086 8.12727 29.9878C5.99704 29.9878 3.86681 29.9878 1.73657 29.9878C1.73657 19.978 1.73657 9.96807 1.73657 -0.041748Z" fill="#FEFFFE"/>
<path fill-rule="evenodd" clip-rule="evenodd" d="M24.2438 -0.041748C31.9757 -0.041748 39.7077 -0.041748 47.4397 -0.041748C47.4397 1.92551 47.4397 3.89276 47.4397 5.86001C41.9998 5.86001 36.5599 5.86001 31.12 5.86001C31.12 7.62475 31.12 9.38953 31.12 11.1542C35.7959 11.1542 40.4717 11.1542 45.1476 11.1542C45.1476 12.9768 45.1476 14.7994 45.1476 16.622C40.4717 16.622 35.7959 16.622 31.12 16.622C31.12 18.9943 31.12 21.3666 31.12 23.7389C36.5599 23.7389 41.9998 23.7389 47.4397 23.7389C47.4397 25.8218 47.4397 27.9048 47.4397 29.9878C39.7077 29.9878 31.9757 29.9878 24.2438 29.9878C24.2438 19.978 24.2438 9.96807 24.2438 -0.041748Z" fill="#FEFFFE"/>
<path fill-rule="evenodd" clip-rule="evenodd" d="M49.8235 -0.041748C55.5995 -0.041748 61.3756 -0.041748 67.1517 -0.041748C70.6153 0.415968 73.0755 2.15178 74.5322 5.16569C75.87 9.22063 74.7545 12.5187 71.1857 15.0598C72.7287 15.9253 73.6607 17.1983 73.9821 18.8786C74.0279 22.5815 74.0432 26.2846 74.0279 29.9878C71.6741 29.9905 69.321 29.9616 66.9683 29.901C66.9836 26.8343 66.9683 23.7677 66.9224 20.7012C66.4834 19.0253 65.3679 18.0272 63.576 17.7069C61.3453 17.6635 59.1143 17.649 56.8831 17.6635C56.8831 21.7427 56.8831 25.8219 56.8831 29.901C54.5299 29.901 52.1767 29.901 49.8235 29.901C49.8235 19.9201 49.8235 9.93917 49.8235 -0.041748ZM56.8831 5.25248C59.6675 5.2132 62.4486 5.25659 65.2263 5.38266C67.1064 6.06279 67.8857 7.35019 67.5642 9.24485C67.1822 10.4165 66.3723 11.1831 65.1346 11.5448C64.573 11.6283 64.0076 11.6717 63.4385 11.675C61.2541 11.5993 59.069 11.5704 56.8831 11.5882C56.8831 9.47632 56.8831 7.36438 56.8831 5.25248Z" fill="#FEFFFE"/>
<path fill-rule="evenodd" clip-rule="evenodd" d="M88.3305 -0.041748C90.4392 -0.041748 92.548 -0.041748 94.6567 -0.041748C99.4976 0.764323 102.813 3.33911 104.604 7.68262C104.883 8.38729 105.143 9.09609 105.384 9.80898C102.907 9.88128 100.432 9.86687 97.9573 9.76559C96.9533 6.87743 94.8446 5.37306 91.6311 5.25248C88.8084 5.27892 86.6843 6.43613 85.2591 8.7241C83.3071 12.3545 83.0626 16.0865 84.5257 19.9201C86.4745 23.7481 89.6376 25.1223 94.0149 24.0426C96.152 23.132 97.4668 21.5843 97.9573 19.3993C100.402 19.3993 102.847 19.3993 105.292 19.3993C104.702 22.5685 103.175 25.2445 100.708 27.4275C98.9291 28.6593 96.9423 29.4404 94.7484 29.7708C91.481 30.2236 88.3026 29.9054 85.2133 28.8161C80.5413 26.7911 77.7755 23.3629 76.9159 18.5314C76.013 14.0542 76.777 9.85932 79.208 5.9468C81.3958 2.77837 84.4365 0.782177 88.3305 -0.041748Z" fill="#FEFFFE"/>
<path fill-rule="evenodd" clip-rule="evenodd" d="M114.552 -0.041748C117.302 -0.041748 120.053 -0.041748 122.804 -0.041748C126.33 9.91461 129.875 19.8666 133.439 29.8142C130.933 29.901 128.427 29.9299 125.921 29.901C125.305 27.9188 124.632 25.9515 123.904 23.9992C120.298 23.9125 116.692 23.8836 113.085 23.9125C112.431 25.884 111.759 27.8512 111.068 29.8142C108.593 29.901 106.118 29.9299 103.642 29.901C107.26 19.9146 110.897 9.9337 114.552 -0.041748ZM118.494 8.37694C119.781 11.6532 121.034 14.9512 122.253 18.2711C119.839 18.3724 117.425 18.3868 115.01 18.3145C116.218 15.0163 117.379 11.7038 118.494 8.37694Z" fill="#FEFFFE"/>
<path fill-rule="evenodd" clip-rule="evenodd" d="M134.447 -0.041748C137.593 -0.041748 140.738 -0.041748 143.883 -0.041748C145.585 6.81778 147.301 13.6742 149.03 20.5276C150.955 13.6903 152.814 6.83391 154.606 -0.041748C157.294 -0.041748 159.982 -0.041748 162.67 -0.041748C162.67 9.93917 162.67 19.9201 162.67 29.901C160.897 29.901 159.124 29.901 157.351 29.901C157.366 23.681 157.351 17.461 157.308 11.241C155.621 17.4321 153.935 23.6232 152.247 29.8142C151.196 29.8717 150.138 29.9006 149.073 29.901C147.996 29.9001 146.938 29.8423 145.899 29.7274C144.254 23.5615 142.596 17.3993 140.924 11.241C140.881 17.461 140.866 23.681 140.881 29.901C138.736 29.901 136.592 29.901 134.447 29.901C134.447 19.9201 134.447 9.93917 134.447 -0.041748Z" fill="#FEFFFE"/>
<path fill-rule="evenodd" clip-rule="evenodd" d="M0.131042 35.8027C33.4733 35.8027 66.8154 35.8027 100.158 35.8027C100.158 39.2455 100.158 42.6881 100.158 46.1308C66.8154 46.1308 33.4733 46.1308 0.131042 46.1308C0.131042 42.6881 0.131042 39.2455 0.131042 35.8027Z" fill="#00479A"/>
<path fill-rule="evenodd" clip-rule="evenodd" d="M104.283 35.8896C106.729 35.8896 109.173 35.8896 111.618 35.8896C111.618 36.2947 111.618 36.6997 111.618 37.1047C110.61 37.1047 109.601 37.1047 108.593 37.1047C108.593 40.0845 108.593 43.0644 108.593 46.0441C108.164 46.0441 107.737 46.0441 107.309 46.0441C107.309 43.0644 107.309 40.0845 107.309 37.1047C106.3 37.1047 105.292 37.1047 104.283 37.1047C104.283 36.6997 104.283 36.2947 104.283 35.8896Z" fill="#FEFFFE"/>
<path fill-rule="evenodd" clip-rule="evenodd" d="M164.611 39.1009C164.611 39.506 164.611 39.9109 164.611 40.316C164.336 40.316 164.061 40.316 163.786 40.316C163.77 41.6471 163.786 42.9779 163.832 44.3084C163.944 44.6895 164.203 44.8921 164.611 44.9159C164.611 45.3498 164.611 45.7838 164.611 46.2177C163.634 46.2401 162.946 45.8352 162.548 45.0027C162.415 43.4453 162.37 41.8831 162.411 40.316C161.983 40.316 161.555 40.316 161.127 40.316C161.127 39.9109 161.127 39.506 161.127 39.1009C161.555 39.1009 161.983 39.1009 162.411 39.1009C162.411 38.3777 162.411 37.6544 162.411 36.9312C162.869 36.9312 163.328 36.9312 163.786 36.9312C163.786 37.6544 163.786 38.3777 163.786 39.1009C164.061 39.1009 164.336 39.1009 164.611 39.1009Z" fill="white"/>
<path fill-rule="evenodd" clip-rule="evenodd" d="M119.228 38.8406C120.575 38.6916 121.69 39.0966 122.574 40.0557C122.837 40.4551 122.99 40.889 123.033 41.3575C123.079 42.9195 123.094 44.4817 123.079 46.0442C122.65 46.0442 122.223 46.0442 121.795 46.0442C121.911 45.0548 121.698 44.9535 121.153 45.7405C120.422 46.2749 119.597 46.4485 118.678 46.2612C117.048 45.7931 116.39 44.7661 116.707 43.1801C117.307 42.02 118.3 41.4704 119.686 41.5311C120.389 41.5521 121.061 41.6967 121.703 41.9651C121.75 40.793 121.139 40.1565 119.87 40.0557C119.105 40.0705 118.493 40.3598 118.036 40.9236C117.607 40.7208 117.21 40.475 116.844 40.1859C117.466 39.4439 118.261 38.9954 119.228 38.8406ZM119.595 42.5726C120.399 42.5302 121.132 42.7183 121.795 43.1367C121.553 44.3351 120.788 45.015 119.503 45.1763C118.268 45.066 117.825 44.4585 118.173 43.3537C118.567 42.944 119.041 42.6836 119.595 42.5726Z" fill="white"/>
<path fill-rule="evenodd" clip-rule="evenodd" d="M127.846 38.8405C129.109 38.7083 130.072 39.1423 130.734 40.1424C130.863 40.4511 130.955 40.7694 131.009 41.0971C131.055 42.7458 131.071 44.3949 131.055 46.0441C130.597 46.0441 130.138 46.0441 129.68 46.0441C129.721 44.3615 129.675 42.6835 129.542 41.0103C129.224 40.3747 128.69 40.0565 127.938 40.0556C126.94 40.1172 126.314 40.609 126.058 41.531C126.012 43.0351 125.997 44.5395 126.012 46.0441C125.524 46.0441 125.034 46.0441 124.545 46.0441C124.545 43.7297 124.545 41.4153 124.545 39.1009C125.004 39.1009 125.462 39.1009 125.921 39.1009C125.905 39.4205 125.921 39.7386 125.967 40.0556C126.436 39.4219 127.062 39.017 127.846 38.8405Z" fill="#FEFFFE"/>
<path fill-rule="evenodd" clip-rule="evenodd" d="M134.631 38.8404C136.121 38.701 137.251 39.2218 138.023 40.4027C137.706 40.6578 137.339 40.8314 136.923 40.9234C136.114 40.0046 135.136 39.8166 133.989 40.3593C133.597 40.768 133.628 41.144 134.081 41.4875C135.084 41.8192 136.093 42.1374 137.106 42.4422C138.127 43.116 138.387 43.9984 137.885 45.0894C137.01 46.147 135.864 46.5375 134.447 46.261C133.346 46.028 132.582 45.4205 132.155 44.4384C132.168 44.3714 132.199 44.3135 132.247 44.2648C132.616 44.1406 132.968 43.9814 133.301 43.7875C133.883 45.0248 134.845 45.4153 136.189 44.9592C136.884 44.5107 136.914 44.019 136.281 43.4837C135.329 43.2078 134.382 42.9185 133.439 42.6158C132.281 41.9422 132.02 41.0309 132.659 39.8819C133.184 39.2941 133.841 38.9469 134.631 38.8404Z" fill="#FEFFFE"/>
<path fill-rule="evenodd" clip-rule="evenodd" d="M140.59 48.3007C140.132 48.3007 139.673 48.3007 139.215 48.3007C139.215 45.2341 139.215 42.1675 139.215 39.1009C139.643 39.1009 140.07 39.1009 140.498 39.1009C140.483 39.4205 140.498 39.7386 140.544 40.0556C141.681 38.8285 143.041 38.5536 144.624 39.2311C146.285 40.4166 146.85 41.9643 146.32 43.8744C145.403 46.1099 143.768 46.7897 141.415 45.914C141.098 45.7002 140.807 45.4543 140.544 45.1763C140.578 46.215 140.593 47.2565 140.59 48.3007ZM142.424 40.0556C144.198 40.0713 145.115 40.9247 145.174 42.6159C145.128 44.0827 144.348 44.9362 142.836 45.1763C141.324 44.9345 140.544 44.0811 140.498 42.6159C140.527 41.3267 141.169 40.4732 142.424 40.0556Z" fill="#FEFFFE"/>
<path fill-rule="evenodd" clip-rule="evenodd" d="M150.584 38.8405C152.723 38.7688 154.112 39.6946 154.755 41.6178C155.124 43.2904 154.619 44.6645 153.242 45.7404C151.81 46.4922 150.375 46.4922 148.933 45.7404C147.26 44.2701 146.908 42.5487 147.879 40.5764C148.5 39.5974 149.401 39.0189 150.584 38.8405ZM150.675 40.0556C152.5 40.032 153.447 40.8854 153.517 42.6159C153.444 44.1022 152.635 44.9557 151.088 45.1763C149.855 44.9922 149.09 44.3268 148.796 43.1801C148.552 41.6433 149.178 40.6018 150.675 40.0556Z" fill="#FEFFFE"/>
<path fill-rule="evenodd" clip-rule="evenodd" d="M114.827 38.9272C115.351 38.911 115.87 38.9399 116.386 39.014C116.292 39.4257 116.17 39.8306 116.019 40.2291C114.801 40.0314 113.93 40.4653 113.406 41.5309C113.272 43.0293 113.226 44.5336 113.268 46.0441C112.81 46.0441 112.352 46.0441 111.893 46.0441C111.893 43.7296 111.893 41.4153 111.893 39.1008C112.321 39.1008 112.749 39.1008 113.177 39.1008C113.161 39.478 113.177 39.8541 113.223 40.2291C113.633 39.6522 114.168 39.2182 114.827 38.9272Z" fill="#FEFFFE"/>
<path fill-rule="evenodd" clip-rule="evenodd" d="M159.018 38.9272C159.385 38.9272 159.752 38.9272 160.119 38.9272C160.134 39.3911 160.119 39.8539 160.073 40.3159C158.945 40.0689 158.089 40.4161 157.506 41.3574C157.372 42.9136 157.326 44.4759 157.368 46.0441C156.88 46.0441 156.39 46.0441 155.901 46.0441C155.901 43.7296 155.901 41.4153 155.901 39.1008C156.36 39.1008 156.818 39.1008 157.276 39.1008C157.261 39.478 157.276 39.8541 157.322 40.2291C157.688 39.5494 158.253 39.1154 159.018 38.9272Z" fill="white"/>
</g>
<defs>
<clipPath id="clip0_449_6461">
<rect width="164.48" height="48.3424" fill="white" transform="translate(0.17688 0.00170898)"/>
</clipPath>
</defs>
</svg>
