<svg width="168" height="27" viewBox="0 0 168 27" fill="none" xmlns="http://www.w3.org/2000/svg">
<path d="M12.2887 26.2926C9.81534 26.2926 7.69201 25.7676 5.91867 24.7176C4.14534 23.6442 2.78034 22.1626 1.82367 20.2726C0.867005 18.3592 0.388672 16.1542 0.388672 13.6576C0.388672 11.1609 0.867005 8.95589 1.82367 7.04256C2.78034 5.12922 4.14534 3.63589 5.91867 2.56256C7.69201 1.48922 9.81534 0.952558 12.2887 0.952558C15.2287 0.952558 17.632 1.68756 19.4987 3.15756C21.3887 4.60422 22.567 6.64589 23.0337 9.28256H18.0987C17.7953 7.95256 17.142 6.91422 16.1387 6.16756C15.1587 5.39756 13.852 5.01256 12.2187 5.01256C9.95534 5.01256 8.18201 5.78256 6.89867 7.32256C5.61534 8.86256 4.97367 10.9742 4.97367 13.6576C4.97367 16.3409 5.61534 18.4526 6.89867 19.9926C8.18201 21.5092 9.95534 22.2676 12.2187 22.2676C13.852 22.2676 15.1587 21.9176 16.1387 21.2176C17.142 20.4942 17.7953 19.5026 18.0987 18.2426H23.0337C22.567 20.7626 21.3887 22.7342 19.4987 24.1576C17.632 25.5809 15.2287 26.2926 12.2887 26.2926ZM36.6243 26.2926C34.8277 26.2926 33.206 25.9426 31.7593 25.2426C30.3127 24.5192 29.1577 23.4342 28.2943 21.9876C27.4543 20.5409 27.0343 18.7092 27.0343 16.4926V1.37256H31.5143V16.5276C31.5143 18.4409 31.9693 19.8642 32.8793 20.7976C33.8127 21.7309 35.096 22.1976 36.7293 22.1976C38.3393 22.1976 39.611 21.7309 40.5443 20.7976C41.4777 19.8642 41.9443 18.4409 41.9443 16.5276V1.37256H46.4243V16.4926C46.4243 18.7092 45.981 20.5409 45.0943 21.9876C44.2077 23.4342 43.0177 24.5192 41.5243 25.2426C40.0543 25.9426 38.421 26.2926 36.6243 26.2926ZM59.5376 26.2926C57.7409 26.2926 56.1542 25.9892 54.7776 25.3826C53.4009 24.7526 52.3159 23.8659 51.5226 22.7226C50.7292 21.5559 50.3209 20.1442 50.2976 18.4876H55.0226C55.0692 19.6309 55.4776 20.5992 56.2476 21.3926C57.0409 22.1626 58.1259 22.5476 59.5026 22.5476C60.6926 22.5476 61.6376 22.2676 62.3376 21.7076C63.0376 21.1242 63.3876 20.3542 63.3876 19.3976C63.3876 18.3942 63.0726 17.6126 62.4426 17.0526C61.8359 16.4926 61.0192 16.0376 59.9926 15.6876C58.9659 15.3376 57.8692 14.9642 56.7026 14.5676C54.8126 13.9142 53.3659 13.0742 52.3626 12.0476C51.3826 11.0209 50.8926 9.65589 50.8926 7.95256C50.8692 6.50589 51.2076 5.26922 51.9076 4.24256C52.6309 3.19256 53.6109 2.38756 54.8476 1.82756C56.0842 1.24422 57.5076 0.952558 59.1176 0.952558C60.7509 0.952558 62.1859 1.24422 63.4226 1.82756C64.6826 2.41089 65.6626 3.22756 66.3626 4.27756C67.0859 5.32756 67.4709 6.57589 67.5176 8.02256H62.7226C62.6992 7.15922 62.3609 6.40089 61.7076 5.74756C61.0776 5.07089 60.1909 4.73256 59.0476 4.73256C58.0676 4.70922 57.2392 4.95422 56.5626 5.46756C55.9092 5.95756 55.5826 6.68089 55.5826 7.63756C55.5826 8.45422 55.8392 9.10756 56.3526 9.59756C56.8659 10.0642 57.5659 10.4609 58.4526 10.7876C59.3392 11.1142 60.3542 11.4642 61.4976 11.8376C62.7109 12.2576 63.8192 12.7476 64.8226 13.3076C65.8259 13.8676 66.6309 14.6142 67.2376 15.5476C67.8442 16.4576 68.1476 17.6359 68.1476 19.0826C68.1476 20.3659 67.8209 21.5559 67.1676 22.6526C66.5142 23.7492 65.5459 24.6359 64.2626 25.3126C62.9792 25.9659 61.4042 26.2926 59.5376 26.2926ZM77.6287 25.8726V4.97756H70.4887V1.37256H89.2837V4.97756H82.1087V25.8726H77.6287ZM103.369 26.2926C100.919 26.2926 98.7721 25.7559 96.9288 24.6826C95.1088 23.6092 93.6738 22.1276 92.6238 20.2376C91.5971 18.3242 91.0838 16.1192 91.0838 13.6226C91.0838 11.1259 91.5971 8.93256 92.6238 7.04256C93.6738 5.12922 95.1088 3.63589 96.9288 2.56256C98.7721 1.48922 100.919 0.952558 103.369 0.952558C105.795 0.952558 107.93 1.48922 109.774 2.56256C111.617 3.63589 113.052 5.12922 114.079 7.04256C115.105 8.93256 115.619 11.1259 115.619 13.6226C115.619 16.1192 115.105 18.3242 114.079 20.2376C113.052 22.1276 111.617 23.6092 109.774 24.6826C107.93 25.7559 105.795 26.2926 103.369 26.2926ZM103.369 22.2676C105.702 22.2676 107.557 21.4976 108.934 19.9576C110.334 18.4176 111.034 16.3059 111.034 13.6226C111.034 10.9392 110.334 8.82756 108.934 7.28756C107.557 5.74756 105.702 4.97756 103.369 4.97756C101.035 4.97756 99.1688 5.74756 97.7688 7.28756C96.3688 8.82756 95.6688 10.9392 95.6688 13.6226C95.6688 16.3059 96.3688 18.4176 97.7688 19.9576C99.1688 21.4976 101.035 22.2676 103.369 22.2676ZM119.749 25.8726V1.37256H125.069L132.874 16.9126L140.574 1.37256H145.894V25.8726H141.414V8.96756L134.589 22.3726H131.054L124.229 8.96756V25.8726H119.749ZM159.188 26.2926C157.391 26.2926 155.804 25.9892 154.428 25.3826C153.051 24.7526 151.966 23.8659 151.173 22.7226C150.379 21.5559 149.971 20.1442 149.948 18.4876H154.673C154.719 19.6309 155.128 20.5992 155.898 21.3926C156.691 22.1626 157.776 22.5476 159.153 22.5476C160.343 22.5476 161.288 22.2676 161.988 21.7076C162.688 21.1242 163.038 20.3542 163.038 19.3976C163.038 18.3942 162.723 17.6126 162.093 17.0526C161.486 16.4926 160.669 16.0376 159.643 15.6876C158.616 15.3376 157.519 14.9642 156.353 14.5676C154.463 13.9142 153.016 13.0742 152.013 12.0476C151.033 11.0209 150.543 9.65589 150.543 7.95256C150.519 6.50589 150.858 5.26922 151.558 4.24256C152.281 3.19256 153.261 2.38756 154.498 1.82756C155.734 1.24422 157.158 0.952558 158.768 0.952558C160.401 0.952558 161.836 1.24422 163.073 1.82756C164.333 2.41089 165.313 3.22756 166.013 4.27756C166.736 5.32756 167.121 6.57589 167.168 8.02256H162.373C162.349 7.15922 162.011 6.40089 161.358 5.74756C160.728 5.07089 159.841 4.73256 158.698 4.73256C157.718 4.70922 156.889 4.95422 156.213 5.46756C155.559 5.95756 155.233 6.68089 155.233 7.63756C155.233 8.45422 155.489 9.10756 156.003 9.59756C156.516 10.0642 157.216 10.4609 158.103 10.7876C158.989 11.1142 160.004 11.4642 161.148 11.8376C162.361 12.2576 163.469 12.7476 164.473 13.3076C165.476 13.8676 166.281 14.6142 166.888 15.5476C167.494 16.4576 167.798 17.6359 167.798 19.0826C167.798 20.3659 167.471 21.5559 166.818 22.6526C166.164 23.7492 165.196 24.6359 163.913 25.3126C162.629 25.9659 161.054 26.2926 159.188 26.2926Z" fill="#FEFFFE"/>
</svg>
