<svg width="165" height="52" viewBox="0 0 165 52" fill="none" xmlns="http://www.w3.org/2000/svg">
<g clip-path="url(#clip0_449_6495)">
<path fill-rule="evenodd" clip-rule="evenodd" d="M1.57764 0.840576C8.62161 0.840576 15.6656 0.840576 22.7096 0.840576C22.7096 2.89404 22.7096 4.94749 22.7096 7.00095C17.7958 7.00095 12.8821 7.00095 7.96834 7.00095C7.96834 9.1752 7.96834 11.3495 7.96834 13.5237C12.314 13.5237 16.6597 13.5237 21.0054 13.5237C21.0054 15.4866 21.0054 17.4494 21.0054 19.4123C16.6597 19.4123 12.314 19.4123 7.96834 19.4123C7.96834 23.6702 7.96834 27.9281 7.96834 32.186C5.8381 32.186 3.70787 32.186 1.57764 32.186C1.57764 21.7376 1.57764 11.289 1.57764 0.840576Z" fill="#FEFFFE"/>
<path fill-rule="evenodd" clip-rule="evenodd" d="M24.0848 0.840576C31.8168 0.840576 39.5488 0.840576 47.2808 0.840576C47.2808 2.89404 47.2808 4.94749 47.2808 7.00095C41.8409 7.00095 36.401 7.00095 30.9611 7.00095C30.9611 8.84302 30.9611 10.6851 30.9611 12.5272C35.637 12.5272 40.3128 12.5272 44.9887 12.5272C44.9887 14.4296 44.9887 16.3321 44.9887 18.2346C40.3128 18.2346 35.637 18.2346 30.9611 18.2346C30.9611 20.7108 30.9611 23.1871 30.9611 25.6633C36.401 25.6633 41.8409 25.6633 47.2808 25.6633C47.2808 27.8375 47.2808 30.0118 47.2808 32.186C39.5488 32.186 31.8168 32.186 24.0848 32.186C24.0848 21.7376 24.0848 11.289 24.0848 0.840576Z" fill="#FEFFFE"/>
<path fill-rule="evenodd" clip-rule="evenodd" d="M49.6646 0.840576C55.4406 0.840576 61.2167 0.840576 66.9927 0.840576C70.4563 1.31835 72.9166 3.13023 74.3732 6.2762C75.7111 10.5088 74.5956 13.9514 71.0268 16.6039C72.5697 17.5073 73.5018 18.836 73.8231 20.59C73.869 24.4552 73.8843 28.3206 73.869 32.186C71.5152 32.1888 69.162 32.1587 66.8094 32.0954C66.8247 28.8943 66.8094 25.6933 66.7635 22.4925C66.3244 20.7431 65.2089 19.7013 63.4171 19.367C61.1863 19.3217 58.9554 19.3066 56.7242 19.3217C56.7242 23.5796 56.7242 27.8375 56.7242 32.0954C54.3709 32.0954 52.0178 32.0954 49.6646 32.0954C49.6646 21.6771 49.6646 11.2589 49.6646 0.840576ZM56.7242 6.3668C59.5086 6.32579 62.2896 6.37109 65.0674 6.50269C66.9474 7.21262 67.7267 8.55643 67.4053 10.5341C67.0233 11.7571 66.2134 12.5573 64.9757 12.9348C64.414 13.022 63.8486 13.0673 63.2795 13.0707C61.0952 12.9917 58.9101 12.9616 56.7242 12.9801C56.7242 10.7757 56.7242 8.57124 56.7242 6.3668Z" fill="#FEFFFE"/>
<path fill-rule="evenodd" clip-rule="evenodd" d="M88.1715 0.840576C90.2802 0.840576 92.389 0.840576 94.4977 0.840576C99.3386 1.68197 102.654 4.36958 104.445 8.90342C104.724 9.63897 104.984 10.3788 105.225 11.123C102.748 11.1984 100.273 11.1834 97.7983 11.0777C96.7944 8.06296 94.6856 6.49266 91.4721 6.3668C88.6494 6.3944 86.5253 7.60231 85.1001 9.99055C83.1481 13.78 82.9036 17.6755 84.3667 21.6771C86.3155 25.6729 89.4786 27.1073 93.8559 25.9803C95.993 25.0298 97.3078 23.4143 97.7983 21.1336C100.243 21.1336 102.688 21.1336 105.133 21.1336C104.543 24.4416 103.016 27.2349 100.549 29.5135C98.7701 30.7993 96.7834 31.6146 94.5894 31.9595C91.322 32.4322 88.1437 32.1 85.0543 30.963C80.3823 28.8493 77.6165 25.2708 76.7569 20.2276C75.854 15.5542 76.618 11.1755 79.049 7.09155C81.2368 3.78427 84.2775 1.70061 88.1715 0.840576Z" fill="#FEFFFE"/>
<path fill-rule="evenodd" clip-rule="evenodd" d="M114.393 0.840576C117.144 0.840576 119.894 0.840576 122.645 0.840576C126.171 11.2332 129.716 21.6213 133.28 32.0048C130.774 32.0954 128.268 32.1256 125.762 32.0954C125.146 30.0264 124.473 27.9729 123.745 25.935C120.139 25.8445 116.533 25.8143 112.926 25.8445C112.272 27.9024 111.6 29.9558 110.909 32.0048C108.434 32.0954 105.959 32.1256 103.483 32.0954C107.101 21.6714 110.738 11.2532 114.393 0.840576ZM118.335 9.62817C119.622 13.048 120.875 16.4906 122.094 19.9559C119.68 20.0616 117.266 20.0766 114.851 20.0012C116.059 16.5585 117.22 13.1008 118.335 9.62817Z" fill="#FEFFFE"/>
<path fill-rule="evenodd" clip-rule="evenodd" d="M134.288 0.840576C137.434 0.840576 140.579 0.840576 143.724 0.840576C145.426 8.00069 147.142 15.1576 148.871 22.3113C150.796 15.1744 152.655 8.01752 154.447 0.840576C157.135 0.840576 159.823 0.840576 162.511 0.840576C162.511 11.2589 162.511 21.6771 162.511 32.0954C160.738 32.0954 158.965 32.0954 157.192 32.0954C157.207 25.6028 157.192 19.1103 157.149 12.6178C155.462 19.0801 153.776 25.5425 152.088 32.0048C151.037 32.0648 149.979 32.095 148.914 32.0954C147.837 32.0945 146.779 32.0341 145.74 31.9142C144.095 25.4781 142.437 19.0459 140.765 12.6178C140.722 19.1103 140.707 25.6028 140.722 32.0954C138.577 32.0954 136.433 32.0954 134.288 32.0954C134.288 21.6771 134.288 11.2589 134.288 0.840576Z" fill="#FEFFFE"/>
<path fill-rule="evenodd" clip-rule="evenodd" d="M-0.0278931 38.2559C32.7346 38.2559 65.497 38.2559 98.2595 38.2559C98.2595 41.8494 98.2595 45.4429 98.2595 49.0365C65.497 49.0365 32.7346 49.0365 -0.0278931 49.0365C-0.0278931 45.4429 -0.0278931 41.8494 -0.0278931 38.2559Z" fill="#328ADD"/>
<path d="M100.891 47.3467L104.245 38.2467H105.753L109.081 47.3467H107.625L106.845 45.1237H103.127L102.347 47.3467H100.891ZM103.517 44.0317H106.455L104.986 39.8847L103.517 44.0317ZM110.428 39.6767C110.168 39.6767 109.951 39.5987 109.778 39.4427C109.613 39.278 109.531 39.0743 109.531 38.8317C109.531 38.589 109.613 38.3897 109.778 38.2337C109.951 38.069 110.168 37.9867 110.428 37.9867C110.688 37.9867 110.9 38.069 111.065 38.2337C111.238 38.3897 111.325 38.589 111.325 38.8317C111.325 39.0743 111.238 39.278 111.065 39.4427C110.9 39.5987 110.688 39.6767 110.428 39.6767ZM109.739 47.3467V40.8987H111.117V47.3467H109.739ZM112.286 47.3467V40.8987H113.521L113.638 42.1207C113.863 41.696 114.175 41.3623 114.574 41.1197C114.981 40.8683 115.471 40.7427 116.043 40.7427V42.1857H115.666C115.284 42.1857 114.942 42.2507 114.639 42.3807C114.344 42.502 114.106 42.7143 113.924 43.0177C113.75 43.3123 113.664 43.724 113.664 44.2527V47.3467H112.286ZM119.434 47.5027C118.784 47.5027 118.217 47.39 117.731 47.1647C117.255 46.9307 116.882 46.6057 116.613 46.1897C116.345 45.7737 116.21 45.2883 116.21 44.7337C116.21 44.127 116.379 43.5853 116.717 43.1087C117.064 42.632 117.571 42.2507 118.238 41.9647C117.961 41.6527 117.762 41.358 117.64 41.0807C117.519 40.8033 117.458 40.5 117.458 40.1707C117.458 39.5727 117.675 39.0787 118.108 38.6887C118.542 38.29 119.144 38.0907 119.915 38.0907C120.418 38.0907 120.851 38.186 121.215 38.3767C121.579 38.5673 121.857 38.823 122.047 39.1437C122.238 39.4643 122.329 39.8283 122.32 40.2357H120.981C120.99 39.889 120.882 39.6247 120.656 39.4427C120.44 39.2607 120.188 39.1697 119.902 39.1697C119.564 39.1697 119.296 39.265 119.096 39.4557C118.897 39.6377 118.797 39.8717 118.797 40.1577C118.797 40.409 118.867 40.656 119.005 40.8987C119.153 41.1413 119.374 41.4143 119.668 41.7177L122.372 44.4347C122.589 44.1053 122.823 43.7153 123.074 43.2647L123.412 42.6277H124.842L124.322 43.5767C123.967 44.27 123.616 44.8507 123.269 45.3187L125.297 47.3467H123.607L122.502 46.2417C122.052 46.6837 121.579 47.0043 121.085 47.2037C120.591 47.403 120.041 47.5027 119.434 47.5027ZM117.549 44.6557C117.549 45.141 117.723 45.544 118.069 45.8647C118.425 46.1853 118.888 46.3457 119.46 46.3457C119.885 46.3457 120.271 46.272 120.617 46.1247C120.964 45.9687 121.302 45.7173 121.631 45.3707L119.044 42.7837C118.542 42.9917 118.165 43.256 117.913 43.5767C117.671 43.8887 117.549 44.2483 117.549 44.6557ZM129.862 47.5027C128.96 47.5027 128.172 47.3033 127.496 46.9047C126.82 46.506 126.291 45.9557 125.91 45.2537C125.528 44.543 125.338 43.724 125.338 42.7967C125.338 41.8693 125.528 41.0547 125.91 40.3527C126.291 39.642 126.82 39.0873 127.496 38.6887C128.172 38.29 128.96 38.0907 129.862 38.0907C130.763 38.0907 131.552 38.29 132.228 38.6887C132.904 39.0873 133.428 39.642 133.801 40.3527C134.182 41.0547 134.373 41.8693 134.373 42.7967C134.373 43.724 134.182 44.543 133.801 45.2537C133.428 45.9557 132.904 46.506 132.228 46.9047C131.552 47.3033 130.763 47.5027 129.862 47.5027ZM129.862 46.2677C130.486 46.2677 131.027 46.129 131.487 45.8517C131.955 45.5743 132.319 45.1757 132.579 44.6557C132.839 44.1357 132.969 43.516 132.969 42.7967C132.969 42.0773 132.839 41.4577 132.579 40.9377C132.319 40.4177 131.955 40.019 131.487 39.7417C131.027 39.4643 130.486 39.3257 129.862 39.3257C129.238 39.3257 128.692 39.4643 128.224 39.7417C127.756 40.019 127.392 40.4177 127.132 40.9377C126.88 41.4577 126.755 42.0773 126.755 42.7967C126.755 43.516 126.88 44.1357 127.132 44.6557C127.392 45.1757 127.756 45.5743 128.224 45.8517C128.692 46.129 129.238 46.2677 129.862 46.2677ZM138.261 47.5027C137.628 47.5027 137.061 47.3597 136.558 47.0737C136.064 46.7877 135.674 46.3933 135.388 45.8907C135.111 45.3793 134.972 44.79 134.972 44.1227C134.972 43.4553 135.111 42.8703 135.388 42.3677C135.674 41.8563 136.064 41.4577 136.558 41.1717C137.061 40.8857 137.628 40.7427 138.261 40.7427C139.058 40.7427 139.726 40.9507 140.263 41.3667C140.809 41.7827 141.16 42.346 141.316 43.0567H139.873C139.786 42.7013 139.596 42.424 139.301 42.2247C139.006 42.0253 138.66 41.9257 138.261 41.9257C137.923 41.9257 137.611 42.0123 137.325 42.1857C137.039 42.3503 136.809 42.5973 136.636 42.9267C136.463 43.2473 136.376 43.646 136.376 44.1227C136.376 44.5993 136.463 45.0023 136.636 45.3317C136.809 45.6523 137.039 45.8993 137.325 46.0727C137.611 46.246 137.923 46.3327 138.261 46.3327C138.66 46.3327 139.006 46.233 139.301 46.0337C139.596 45.8343 139.786 45.5527 139.873 45.1887H141.316C141.169 45.882 140.822 46.441 140.276 46.8657C139.73 47.2903 139.058 47.5027 138.261 47.5027ZM145.176 47.5027C144.544 47.5027 143.98 47.364 143.486 47.0867C143.001 46.8007 142.62 46.4063 142.342 45.9037C142.065 45.401 141.926 44.816 141.926 44.1487C141.926 43.4727 142.061 42.879 142.329 42.3677C142.607 41.8563 142.988 41.4577 143.473 41.1717C143.967 40.8857 144.539 40.7427 145.189 40.7427C145.822 40.7427 146.372 40.8857 146.84 41.1717C147.308 41.449 147.672 41.8217 147.932 42.2897C148.192 42.7577 148.322 43.2733 148.322 43.8367C148.322 43.9233 148.318 44.0187 148.309 44.1227C148.309 44.218 148.305 44.3263 148.296 44.4477H143.278C143.322 45.0717 143.525 45.5483 143.889 45.8777C144.262 46.1983 144.691 46.3587 145.176 46.3587C145.566 46.3587 145.891 46.272 146.151 46.0987C146.42 45.9167 146.619 45.674 146.749 45.3707H148.127C147.954 45.9773 147.607 46.4843 147.087 46.8917C146.576 47.299 145.939 47.5027 145.176 47.5027ZM145.176 41.8737C144.717 41.8737 144.31 42.0123 143.954 42.2897C143.599 42.5583 143.382 42.9657 143.304 43.5117H146.944C146.918 43.009 146.741 42.6103 146.411 42.3157C146.082 42.021 145.67 41.8737 145.176 41.8737ZM151.286 47.5027C150.74 47.5027 150.289 47.4117 149.934 47.2297C149.579 47.0477 149.314 46.8093 149.141 46.5147C148.968 46.2113 148.881 45.882 148.881 45.5267C148.881 44.9027 149.124 44.4087 149.609 44.0447C150.094 43.6807 150.788 43.4987 151.689 43.4987H153.379V43.3817C153.379 42.879 153.24 42.502 152.963 42.2507C152.694 41.9993 152.343 41.8737 151.91 41.8737C151.529 41.8737 151.195 41.969 150.909 42.1597C150.632 42.3417 150.463 42.6147 150.402 42.9787H149.024C149.067 42.5107 149.223 42.112 149.492 41.7827C149.769 41.4447 150.116 41.189 150.532 41.0157C150.957 40.8337 151.42 40.7427 151.923 40.7427C152.824 40.7427 153.522 40.981 154.016 41.4577C154.51 41.9257 154.757 42.567 154.757 43.3817V47.3467H153.561L153.444 46.2417C153.262 46.597 152.998 46.896 152.651 47.1387C152.304 47.3813 151.849 47.5027 151.286 47.5027ZM151.559 46.3847C151.932 46.3847 152.244 46.298 152.495 46.1247C152.755 45.9427 152.954 45.7043 153.093 45.4097C153.24 45.115 153.331 44.79 153.366 44.4347H151.832C151.286 44.4347 150.896 44.53 150.662 44.7207C150.437 44.9113 150.324 45.1497 150.324 45.4357C150.324 45.7303 150.432 45.9643 150.649 46.1377C150.874 46.3023 151.178 46.3847 151.559 46.3847ZM155.714 47.3467V40.8987H156.936L157.04 42.0297C157.239 41.631 157.53 41.319 157.911 41.0937C158.301 40.8597 158.747 40.7427 159.25 40.7427C160.03 40.7427 160.641 40.9853 161.083 41.4707C161.534 41.956 161.759 42.6797 161.759 43.6417V47.3467H160.394V43.7847C160.394 42.5367 159.883 41.9127 158.86 41.9127C158.349 41.9127 157.924 42.0947 157.586 42.4587C157.257 42.8227 157.092 43.3427 157.092 44.0187V47.3467H155.714Z" fill="white"/>
</g>
<defs>
<clipPath id="clip0_449_6495">
<rect width="164.48" height="50.4607" fill="white" transform="translate(0.0179443 0.885986)"/>
</clipPath>
</defs>
</svg>
