<svg width="165" height="52" viewBox="0 0 165 52" fill="none" xmlns="http://www.w3.org/2000/svg">
<g clip-path="url(#clip0_449_6554)">
<path fill-rule="evenodd" clip-rule="evenodd" d="M1.80237 0.840576C8.84635 0.840576 15.8903 0.840576 22.9343 0.840576C22.9343 2.89404 22.9343 4.94749 22.9343 7.00095C18.0205 7.00095 13.1068 7.00095 8.19307 7.00095C8.19307 9.1752 8.19307 11.3495 8.19307 13.5237C12.5387 13.5237 16.8844 13.5237 21.2301 13.5237C21.2301 15.4866 21.2301 17.4494 21.2301 19.4123C16.8844 19.4123 12.5387 19.4123 8.19307 19.4123C8.19307 23.6702 8.19307 27.9281 8.19307 32.186C6.06284 32.186 3.9326 32.186 1.80237 32.186C1.80237 21.7376 1.80237 11.289 1.80237 0.840576Z" fill="#FEFFFE"/>
<path fill-rule="evenodd" clip-rule="evenodd" d="M24.3096 0.840576C32.0415 0.840576 39.7735 0.840576 47.5055 0.840576C47.5055 2.89404 47.5055 4.94749 47.5055 7.00095C42.0656 7.00095 36.6257 7.00095 31.1858 7.00095C31.1858 8.84302 31.1858 10.6851 31.1858 12.5272C35.8617 12.5272 40.5375 12.5272 45.2134 12.5272C45.2134 14.4296 45.2134 16.3321 45.2134 18.2346C40.5375 18.2346 35.8617 18.2346 31.1858 18.2346C31.1858 20.7108 31.1858 23.1871 31.1858 25.6633C36.6257 25.6633 42.0656 25.6633 47.5055 25.6633C47.5055 27.8375 47.5055 30.0118 47.5055 32.186C39.7735 32.186 32.0415 32.186 24.3096 32.186C24.3096 21.7376 24.3096 11.289 24.3096 0.840576Z" fill="#FEFFFE"/>
<path fill-rule="evenodd" clip-rule="evenodd" d="M49.8893 0.840576C55.6653 0.840576 61.4414 0.840576 67.2175 0.840576C70.6811 1.31835 73.1413 3.13023 74.598 6.2762C75.9358 10.5088 74.8203 13.9514 71.2515 16.6039C72.7945 17.5073 73.7265 18.836 74.0479 20.59C74.0937 24.4552 74.109 28.3206 74.0937 32.186C71.7399 32.1888 69.3868 32.1587 67.0341 32.0954C67.0494 28.8943 67.0341 25.6933 66.9882 22.4925C66.5492 20.7431 65.4337 19.7013 63.6418 19.367C61.411 19.3217 59.1801 19.3066 56.9489 19.3217C56.9489 23.5796 56.9489 27.8375 56.9489 32.0954C54.5957 32.0954 52.2425 32.0954 49.8893 32.0954C49.8893 21.6771 49.8893 11.2589 49.8893 0.840576ZM56.9489 6.3668C59.7333 6.32579 62.5144 6.37109 65.2921 6.50269C67.1722 7.21262 67.9515 8.55643 67.63 10.5341C67.248 11.7571 66.4381 12.5573 65.2004 12.9348C64.6388 13.022 64.0734 13.0673 63.5043 13.0707C61.3199 12.9917 59.1348 12.9616 56.9489 12.9801C56.9489 10.7757 56.9489 8.57124 56.9489 6.3668Z" fill="#FEFFFE"/>
<path fill-rule="evenodd" clip-rule="evenodd" d="M88.3963 0.840576C90.505 0.840576 92.6137 0.840576 94.7224 0.840576C99.5633 1.68197 102.879 4.36958 104.67 8.90342C104.949 9.63897 105.208 10.3788 105.449 11.123C102.973 11.1984 100.498 11.1834 98.023 11.0777C97.0191 8.06296 94.9104 6.49266 91.6969 6.3668C88.8741 6.3944 86.7501 7.60231 85.3249 9.99055C83.3728 13.78 83.1283 17.6755 84.5914 21.6771C86.5402 25.6729 89.7033 27.1073 94.0806 25.9803C96.2178 25.0298 97.5325 23.4143 98.023 21.1336C100.468 21.1336 102.912 21.1336 105.358 21.1336C104.768 24.4416 103.241 27.2349 100.774 29.5135C98.9949 30.7993 97.0081 31.6146 94.8141 31.9595C91.5468 32.4322 88.3684 32.1 85.279 30.963C80.607 28.8493 77.8412 25.2708 76.9817 20.2276C76.0788 15.5542 76.8428 11.1755 79.2738 7.09155C81.4615 3.78427 84.5023 1.70061 88.3963 0.840576Z" fill="#FEFFFE"/>
<path fill-rule="evenodd" clip-rule="evenodd" d="M114.618 0.840576C117.368 0.840576 120.119 0.840576 122.869 0.840576C126.396 11.2332 129.941 21.6213 133.505 32.0048C130.999 32.0954 128.493 32.1256 125.987 32.0954C125.37 30.0264 124.698 27.9729 123.97 25.935C120.364 25.8445 116.758 25.8143 113.151 25.8445C112.497 27.9024 111.825 29.9558 111.134 32.0048C108.659 32.0954 106.184 32.1256 103.708 32.0954C107.326 21.6714 110.962 11.2532 114.618 0.840576ZM118.56 9.62817C119.847 13.048 121.1 16.4906 122.319 19.9559C119.905 20.0616 117.491 20.0766 115.076 20.0012C116.284 16.5585 117.444 13.1008 118.56 9.62817Z" fill="#FEFFFE"/>
<path fill-rule="evenodd" clip-rule="evenodd" d="M134.513 0.840576C137.659 0.840576 140.804 0.840576 143.949 0.840576C145.651 8.00069 147.367 15.1576 149.096 22.3113C151.021 15.1744 152.88 8.01752 154.672 0.840576C157.36 0.840576 160.048 0.840576 162.736 0.840576C162.736 11.2589 162.736 21.6771 162.736 32.0954C160.962 32.0954 159.19 32.0954 157.417 32.0954C157.432 25.6028 157.417 19.1103 157.374 12.6178C155.687 19.0801 154 25.5425 152.313 32.0048C151.261 32.0648 150.204 32.095 149.139 32.0954C148.062 32.0945 147.004 32.0341 145.965 31.9142C144.32 25.4781 142.662 19.0459 140.99 12.6178C140.947 19.1103 140.932 25.6028 140.947 32.0954C138.802 32.0954 136.658 32.0954 134.513 32.0954C134.513 21.6771 134.513 11.2589 134.513 0.840576Z" fill="#FEFFFE"/>
<path fill-rule="evenodd" clip-rule="evenodd" d="M0.196777 38.2559C33.9626 38.2559 67.7282 38.2559 101.494 38.2559C101.494 41.8494 101.494 45.4429 101.494 49.0365C67.7282 49.0365 33.9626 49.0365 0.196777 49.0365C0.196777 45.4429 0.196777 41.8494 0.196777 38.2559Z" fill="#2B9846"/>
<path d="M107.928 47.3467V38.2467H109.306V46.2547H113.44V47.3467H107.928ZM117.477 47.5027C116.862 47.5027 116.307 47.364 115.813 47.0867C115.328 46.8007 114.942 46.4063 114.656 45.9037C114.37 45.3923 114.227 44.7987 114.227 44.1227C114.227 43.4467 114.37 42.8573 114.656 42.3547C114.951 41.8433 115.345 41.449 115.839 41.1717C116.333 40.8857 116.884 40.7427 117.49 40.7427C118.106 40.7427 118.656 40.8857 119.141 41.1717C119.635 41.449 120.025 41.8433 120.311 42.3547C120.606 42.8573 120.753 43.4467 120.753 44.1227C120.753 44.7987 120.606 45.3923 120.311 45.9037C120.025 46.4063 119.635 46.8007 119.141 47.0867C118.647 47.364 118.093 47.5027 117.477 47.5027ZM117.477 46.3197C117.807 46.3197 118.11 46.2373 118.387 46.0727C118.673 45.908 118.903 45.6653 119.076 45.3447C119.25 45.0153 119.336 44.608 119.336 44.1227C119.336 43.6373 119.25 43.2343 119.076 42.9137C118.912 42.5843 118.686 42.3373 118.4 42.1727C118.123 42.008 117.82 41.9257 117.49 41.9257C117.161 41.9257 116.853 42.008 116.567 42.1727C116.29 42.3373 116.065 42.5843 115.891 42.9137C115.718 43.2343 115.631 43.6373 115.631 44.1227C115.631 44.608 115.718 45.0153 115.891 45.3447C116.065 45.6653 116.29 45.908 116.567 46.0727C116.845 46.2373 117.148 46.3197 117.477 46.3197ZM124.41 45.3707C124.072 45.3707 123.76 45.3317 123.474 45.2537L122.915 45.7997C123.01 45.8603 123.127 45.9123 123.266 45.9557C123.405 45.999 123.6 46.038 123.851 46.0727C124.102 46.1073 124.445 46.142 124.878 46.1767C125.736 46.2547 126.356 46.4627 126.737 46.8007C127.118 47.13 127.309 47.572 127.309 48.1267C127.309 48.508 127.205 48.8677 126.997 49.2057C126.798 49.5523 126.481 49.8297 126.048 50.0377C125.623 50.2543 125.077 50.3627 124.41 50.3627C123.509 50.3627 122.776 50.1893 122.213 49.8427C121.658 49.5047 121.381 48.989 121.381 48.2957C121.381 48.027 121.45 47.7583 121.589 47.4897C121.736 47.2297 121.966 46.9827 122.278 46.7487C122.096 46.6707 121.936 46.5883 121.797 46.5017C121.667 46.4063 121.55 46.311 121.446 46.2157V45.9037L122.564 44.7597C122.061 44.3263 121.81 43.7587 121.81 43.0567C121.81 42.632 121.91 42.2463 122.109 41.8997C122.317 41.5443 122.616 41.2627 123.006 41.0547C123.396 40.8467 123.864 40.7427 124.41 40.7427C124.774 40.7427 125.112 40.7947 125.424 40.8987H127.829V41.8087L126.685 41.8737C126.893 42.229 126.997 42.6233 126.997 43.0567C126.997 43.49 126.893 43.88 126.685 44.2267C126.486 44.5733 126.191 44.8507 125.801 45.0587C125.42 45.2667 124.956 45.3707 124.41 45.3707ZM124.41 44.2917C124.809 44.2917 125.129 44.1877 125.372 43.9797C125.623 43.763 125.749 43.4597 125.749 43.0697C125.749 42.671 125.623 42.3677 125.372 42.1597C125.129 41.9517 124.809 41.8477 124.41 41.8477C124.003 41.8477 123.673 41.9517 123.422 42.1597C123.179 42.3677 123.058 42.671 123.058 43.0697C123.058 43.4597 123.179 43.763 123.422 43.9797C123.673 44.1877 124.003 44.2917 124.41 44.2917ZM122.681 48.1657C122.681 48.5383 122.846 48.8157 123.175 48.9977C123.504 49.1883 123.916 49.2837 124.41 49.2837C124.887 49.2837 125.272 49.1797 125.567 48.9717C125.862 48.7723 126.009 48.5037 126.009 48.1657C126.009 47.9143 125.909 47.6977 125.71 47.5157C125.511 47.3423 125.134 47.234 124.579 47.1907C124.163 47.1647 123.795 47.1257 123.474 47.0737C123.171 47.2383 122.963 47.416 122.85 47.6067C122.737 47.7973 122.681 47.9837 122.681 48.1657ZM129.708 39.6767C129.448 39.6767 129.231 39.5987 129.058 39.4427C128.893 39.278 128.811 39.0743 128.811 38.8317C128.811 38.589 128.893 38.3897 129.058 38.2337C129.231 38.069 129.448 37.9867 129.708 37.9867C129.968 37.9867 130.18 38.069 130.345 38.2337C130.518 38.3897 130.605 38.589 130.605 38.8317C130.605 39.0743 130.518 39.278 130.345 39.4427C130.18 39.5987 129.968 39.6767 129.708 39.6767ZM129.019 47.3467V40.8987H130.397V47.3467H129.019ZM134.66 47.5027C133.845 47.5027 133.174 47.3033 132.645 46.9047C132.116 46.506 131.813 45.9773 131.735 45.3187H133.126C133.195 45.6133 133.36 45.869 133.62 46.0857C133.88 46.2937 134.222 46.3977 134.647 46.3977C135.063 46.3977 135.366 46.311 135.557 46.1377C135.748 45.9643 135.843 45.765 135.843 45.5397C135.843 45.2103 135.709 44.9893 135.44 44.8767C135.18 44.7553 134.816 44.647 134.348 44.5517C133.984 44.4737 133.62 44.3697 133.256 44.2397C132.901 44.1097 132.602 43.9277 132.359 43.6937C132.125 43.451 132.008 43.126 132.008 42.7187C132.008 42.1553 132.225 41.6873 132.658 41.3147C133.091 40.9333 133.698 40.7427 134.478 40.7427C135.197 40.7427 135.778 40.916 136.22 41.2627C136.671 41.6093 136.935 42.099 137.013 42.7317H135.687C135.644 42.4543 135.514 42.2377 135.297 42.0817C135.089 41.9257 134.807 41.8477 134.452 41.8477C134.105 41.8477 133.837 41.9213 133.646 42.0687C133.455 42.2073 133.36 42.3893 133.36 42.6147C133.36 42.84 133.49 43.0177 133.75 43.1477C134.019 43.2777 134.37 43.3947 134.803 43.4987C135.236 43.594 135.635 43.7067 135.999 43.8367C136.372 43.958 136.671 44.14 136.896 44.3827C137.121 44.6253 137.234 44.9807 137.234 45.4487C137.243 46.038 137.013 46.5277 136.545 46.9177C136.086 47.3077 135.457 47.5027 134.66 47.5027ZM141.071 47.3467C140.439 47.3467 139.936 47.195 139.563 46.8917C139.191 46.5797 139.004 46.0293 139.004 45.2407V42.0557H137.899V40.8987H139.004L139.173 39.2607H140.382V40.8987H142.202V42.0557H140.382V45.2407C140.382 45.596 140.456 45.843 140.603 45.9817C140.759 46.1117 141.024 46.1767 141.396 46.1767H142.137V47.3467H141.071ZM144.273 39.6767C144.013 39.6767 143.796 39.5987 143.623 39.4427C143.458 39.278 143.376 39.0743 143.376 38.8317C143.376 38.589 143.458 38.3897 143.623 38.2337C143.796 38.069 144.013 37.9867 144.273 37.9867C144.533 37.9867 144.745 38.069 144.91 38.2337C145.083 38.3897 145.17 38.589 145.17 38.8317C145.17 39.0743 145.083 39.278 144.91 39.4427C144.745 39.5987 144.533 39.6767 144.273 39.6767ZM143.584 47.3467V40.8987H144.962V47.3467H143.584ZM149.706 47.5027C149.074 47.5027 148.506 47.3597 148.003 47.0737C147.509 46.7877 147.119 46.3933 146.833 45.8907C146.556 45.3793 146.417 44.79 146.417 44.1227C146.417 43.4553 146.556 42.8703 146.833 42.3677C147.119 41.8563 147.509 41.4577 148.003 41.1717C148.506 40.8857 149.074 40.7427 149.706 40.7427C150.504 40.7427 151.171 40.9507 151.708 41.3667C152.254 41.7827 152.605 42.346 152.761 43.0567H151.318C151.232 42.7013 151.041 42.424 150.746 42.2247C150.452 42.0253 150.105 41.9257 149.706 41.9257C149.368 41.9257 149.056 42.0123 148.77 42.1857C148.484 42.3503 148.255 42.5973 148.081 42.9267C147.908 43.2473 147.821 43.646 147.821 44.1227C147.821 44.5993 147.908 45.0023 148.081 45.3317C148.255 45.6523 148.484 45.8993 148.77 46.0727C149.056 46.246 149.368 46.3327 149.706 46.3327C150.105 46.3327 150.452 46.233 150.746 46.0337C151.041 45.8343 151.232 45.5527 151.318 45.1887H152.761C152.614 45.882 152.267 46.441 151.721 46.8657C151.175 47.2903 150.504 47.5027 149.706 47.5027ZM156.7 47.5027C155.885 47.5027 155.213 47.3033 154.685 46.9047C154.156 46.506 153.853 45.9773 153.775 45.3187H155.166C155.235 45.6133 155.4 45.869 155.66 46.0857C155.92 46.2937 156.262 46.3977 156.687 46.3977C157.103 46.3977 157.406 46.311 157.597 46.1377C157.787 45.9643 157.883 45.765 157.883 45.5397C157.883 45.2103 157.748 44.9893 157.48 44.8767C157.22 44.7553 156.856 44.647 156.388 44.5517C156.024 44.4737 155.66 44.3697 155.296 44.2397C154.94 44.1097 154.641 43.9277 154.399 43.6937C154.165 43.451 154.048 43.126 154.048 42.7187C154.048 42.1553 154.264 41.6873 154.698 41.3147C155.131 40.9333 155.738 40.7427 156.518 40.7427C157.237 40.7427 157.818 40.916 158.26 41.2627C158.71 41.6093 158.975 42.099 159.053 42.7317H157.727C157.683 42.4543 157.553 42.2377 157.337 42.0817C157.129 41.9257 156.847 41.8477 156.492 41.8477C156.145 41.8477 155.876 41.9213 155.686 42.0687C155.495 42.2073 155.4 42.3893 155.4 42.6147C155.4 42.84 155.53 43.0177 155.79 43.1477C156.058 43.2777 156.409 43.3947 156.843 43.4987C157.276 43.594 157.675 43.7067 158.039 43.8367C158.411 43.958 158.71 44.14 158.936 44.3827C159.161 44.6253 159.274 44.9807 159.274 45.4487C159.282 46.038 159.053 46.5277 158.585 46.9177C158.125 47.3077 157.497 47.5027 156.7 47.5027Z" fill="white"/>
</g>
<defs>
<clipPath id="clip0_449_6554">
<rect width="164.48" height="50.4607" fill="white" transform="translate(0.242676 0.885986)"/>
</clipPath>
</defs>
</svg>
