<svg width="1440" height="276" viewBox="0 0 1440 276" fill="none" xmlns="http://www.w3.org/2000/svg">
<path d="M-0.000305176 246V176.092C-0.000305176 160.739 11.5903 147.864 26.8583 146.257L322.611 115.117L686.307 76.9029C751.443 65.9555 904.154 42.0374 948.029 34.2868C985.264 27.7091 1079.69 5.30082 1200.9 1.31995C1288.89 -1.57008 1352.79 3.48332 1419.14 22.9026C1431.42 26.4964 1439.63 37.8811 1439.76 50.6746L1441.75 245.693C1441.93 262.381 1428.44 276 1411.76 276H29.9997C13.4312 276 -0.000305176 262.569 -0.000305176 246Z" fill="#BFBFBF"/>
<path opacity="0.979" fill-rule="evenodd" clip-rule="evenodd" d="M1110.07 106.805C1120.17 105.884 1129.67 107.667 1138.57 112.153C1146.65 117.678 1151.77 125.095 1153.91 134.404C1147.09 134.461 1140.27 134.404 1133.45 134.231C1129.5 125.064 1122.32 121.155 1111.89 122.502C1104.96 124.222 1100.02 128.19 1097.1 134.404C1092.43 145.34 1093.16 155.92 1099.29 166.142C1104.91 172.398 1112.04 174.755 1120.66 173.214C1127.5 171.187 1131.76 166.874 1133.45 160.277C1140.39 159.875 1147.33 159.817 1154.28 160.104C1148.66 182.29 1133.8 191.834 1109.7 188.738C1091.16 186.281 1079.77 176.45 1075.54 159.242C1072.47 145.356 1075.14 132.592 1083.58 120.95C1090.4 112.872 1099.23 108.157 1110.07 106.805Z" fill="#FEFFFE"/>
<path opacity="0.986" fill-rule="evenodd" clip-rule="evenodd" d="M1233.92 107.15C1243.3 107.15 1252.68 107.15 1262.06 107.15C1266.82 125.699 1271.75 144.213 1276.85 162.692C1282.33 144.186 1287.75 125.673 1293.11 107.15C1302.13 107.15 1311.14 107.15 1320.15 107.15C1320.15 134.404 1320.15 161.657 1320.15 188.91C1313.82 188.91 1307.48 188.91 1301.15 188.91C1301.21 172.466 1301.15 156.022 1300.97 139.578C1295.98 155.985 1291.17 172.429 1286.54 188.91C1280.2 189.025 1273.87 188.91 1267.54 188.565C1262.79 172.598 1258.1 156.614 1253.47 140.613C1253.29 156.712 1253.23 172.811 1253.29 188.91C1246.83 188.91 1240.38 188.91 1233.92 188.91C1233.92 161.657 1233.92 134.404 1233.92 107.15Z" fill="#FEFFFE"/>
<path opacity="0.985" fill-rule="evenodd" clip-rule="evenodd" d="M864.179 107.495C885.126 107.495 906.074 107.495 927.021 107.495C927.021 112.9 927.021 118.304 927.021 123.709C912.528 123.709 898.036 123.709 883.543 123.709C883.543 129.229 883.543 134.748 883.543 140.268C896.453 140.268 909.362 140.268 922.272 140.268C922.272 145.443 922.272 150.617 922.272 155.792C909.362 155.792 896.453 155.792 883.543 155.792C883.543 166.946 883.543 178.101 883.543 189.255C877.088 189.255 870.634 189.255 864.179 189.255C864.179 162.002 864.179 134.748 864.179 107.495Z" fill="#FEFFFE"/>
<path opacity="0.986" fill-rule="evenodd" clip-rule="evenodd" d="M930.309 107.495C951.744 107.495 973.178 107.495 994.613 107.495C994.613 112.9 994.613 118.304 994.613 123.709C979.633 123.709 964.653 123.709 949.674 123.709C949.674 128.424 949.674 133.138 949.674 137.853C962.583 137.853 975.493 137.853 988.402 137.853C988.402 142.913 988.402 147.972 988.402 153.032C975.493 153.032 962.583 153.032 949.674 153.032C949.674 159.357 949.674 165.682 949.674 172.006C964.653 172.006 979.633 172.006 994.613 172.006C994.613 177.756 994.613 183.505 994.613 189.255C973.178 189.255 951.744 189.255 930.309 189.255C930.309 162.002 930.309 134.748 930.309 107.495Z" fill="#FEFFFE"/>
<path opacity="0.984" fill-rule="evenodd" clip-rule="evenodd" d="M1000.82 107.495C1017.51 107.438 1034.19 107.495 1050.88 107.668C1065.28 111.26 1071.79 120.057 1070.43 134.059C1069.1 140.133 1065.75 144.905 1060.38 148.375C1064.16 150.571 1066.54 153.733 1067.5 157.862C1067.9 161.702 1068.08 165.554 1068.05 169.419C1067.9 175.916 1067.78 182.413 1067.69 188.91C1061.11 188.91 1054.53 188.91 1047.96 188.91C1047.84 181.305 1047.96 173.715 1048.32 166.141C1047.86 160.84 1044.94 157.448 1039.55 155.965C1033.22 155.792 1026.89 155.734 1020.55 155.792C1020.55 166.831 1020.55 177.871 1020.55 188.91C1013.98 188.91 1007.4 188.91 1000.82 188.91C1000.82 161.772 1000.82 134.634 1000.82 107.495ZM1020.55 122.329C1028.11 122.272 1035.66 122.329 1043.21 122.502C1048.42 124.35 1050.55 127.857 1049.6 133.024C1048.56 135.841 1046.56 137.738 1043.57 138.716C1040.36 139.084 1037.13 139.257 1033.89 139.233C1029.44 139.143 1025 139.028 1020.55 138.888C1020.55 133.369 1020.55 127.849 1020.55 122.329Z" fill="#FEFFFE"/>
<path opacity="0.984" fill-rule="evenodd" clip-rule="evenodd" d="M1178.76 107.495C1186.55 107.495 1194.34 107.495 1202.14 107.495C1211.82 134.634 1221.68 161.715 1231.73 188.737C1224.67 188.968 1217.6 188.968 1210.54 188.737C1208.59 183.448 1206.64 178.158 1204.7 172.868C1194.95 172.638 1185.21 172.638 1175.47 172.868C1173.52 178.158 1171.57 183.448 1169.62 188.737C1162.68 188.91 1155.74 188.968 1148.8 188.91C1158.78 161.775 1168.77 134.637 1178.76 107.495ZM1190.08 131.299C1193.5 139.721 1196.79 148.231 1199.95 156.827C1193.62 157.172 1187.29 157.287 1180.95 157.172C1183.92 148.526 1186.96 139.902 1190.08 131.299Z" fill="#FEFFFE"/>
<path opacity="0.849" fill-rule="evenodd" clip-rule="evenodd" d="M1096.18 206.159C1098.47 206.112 1099.39 207.146 1098.92 209.264C1098.13 210.225 1097.1 210.512 1095.82 210.126C1094.33 208.684 1094.45 207.361 1096.18 206.159Z" fill="#FEFFFE"/>
<path opacity="0.863" fill-rule="evenodd" clip-rule="evenodd" d="M1127.97 206.159C1129.97 206.156 1130.89 207.076 1130.71 208.919C1129.96 210.227 1128.8 210.629 1127.24 210.126C1126.11 208.547 1126.36 207.224 1127.97 206.159Z" fill="#FEFFFE"/>
<path opacity="0.885" fill-rule="evenodd" clip-rule="evenodd" d="M1175.1 206.159C1178.55 205.489 1180.99 206.639 1182.41 209.609C1181.78 210.282 1180.99 210.742 1180.03 210.989C1179.29 210.117 1178.38 209.427 1177.29 208.919C1175.08 209.489 1174.53 210.753 1175.65 212.714C1177.96 215.638 1180.33 218.513 1182.77 221.338C1183.38 220.312 1184.11 219.392 1184.97 218.578C1185.77 219.015 1186.5 219.532 1187.16 220.131C1186.28 221.308 1185.55 222.573 1184.97 223.925C1185.57 224.727 1186.18 225.532 1186.79 226.34C1186.1 227.096 1185.31 227.728 1184.42 228.238C1183.8 227.714 1183.25 227.139 1182.77 226.513C1179.21 228.827 1175.68 228.77 1172.18 226.34C1169.84 224.198 1169.05 221.611 1169.8 218.578C1170.57 216.94 1171.61 215.502 1172.91 214.266C1170.89 210.83 1171.62 208.128 1175.1 206.159ZM1174.74 216.853C1176.86 219.145 1178.93 221.503 1180.95 223.925C1178.35 225.893 1175.85 225.721 1173.46 223.408C1171.95 220.839 1172.38 218.654 1174.74 216.853Z" fill="#FEFFFE"/>
<path opacity="0.99" fill-rule="evenodd" clip-rule="evenodd" d="M864.179 206.504C920.323 206.504 976.467 206.504 1032.61 206.504C1032.61 213.518 1032.61 220.533 1032.61 227.547C976.467 227.547 920.323 227.547 864.179 227.547C864.179 220.533 864.179 213.518 864.179 206.504Z" fill="#FEFFFE"/>
<path opacity="0.906" fill-rule="evenodd" clip-rule="evenodd" d="M1045.4 206.504C1046.49 206.504 1047.59 206.504 1048.69 206.504C1048.69 212.598 1048.69 218.693 1048.69 224.788C1051.85 224.788 1055.02 224.788 1058.19 224.788C1058.19 225.708 1058.19 226.627 1058.19 227.547C1053.92 227.547 1049.66 227.547 1045.4 227.547C1045.4 220.533 1045.4 213.518 1045.4 206.504Z" fill="#FEFFFE"/>
<path opacity="0.907" fill-rule="evenodd" clip-rule="evenodd" d="M1193.73 206.504C1198.85 206.504 1203.96 206.504 1209.08 206.504C1209.08 207.424 1209.08 208.344 1209.08 209.264C1207.13 209.264 1205.18 209.264 1203.23 209.264C1203.23 215.358 1203.23 221.453 1203.23 227.547C1202.14 227.547 1201.04 227.547 1199.95 227.547C1199.95 221.453 1199.95 215.358 1199.95 209.264C1197.87 209.264 1195.81 209.264 1193.73 209.264C1193.73 208.344 1193.73 207.424 1193.73 206.504Z" fill="#FEFFFE"/>
<path opacity="0.884" fill-rule="evenodd" clip-rule="evenodd" d="M1117.37 208.574C1118.47 208.574 1119.57 208.574 1120.66 208.574C1120.66 210.069 1120.66 211.564 1120.66 213.058C1121.88 213.058 1123.1 213.058 1124.32 213.058C1124.32 213.978 1124.32 214.898 1124.32 215.818C1123.1 215.818 1121.88 215.818 1120.66 215.818C1120.6 218.58 1120.66 221.34 1120.85 224.098C1121.66 225.215 1122.69 225.445 1123.95 224.788C1124.04 225.628 1124.29 226.434 1124.68 227.203C1122.19 228.341 1119.93 227.996 1117.92 226.168C1117.4 222.745 1117.22 219.296 1117.37 215.818C1116.52 215.818 1115.67 215.818 1114.82 215.818C1114.82 214.898 1114.82 213.978 1114.82 213.058C1115.67 213.058 1116.52 213.058 1117.37 213.058C1117.37 211.564 1117.37 210.069 1117.37 208.574Z" fill="#FEFFFE"/>
<path opacity="0.886" fill-rule="evenodd" clip-rule="evenodd" d="M1313.94 208.574C1315.03 208.574 1316.13 208.574 1317.23 208.574C1317.23 210.069 1317.23 211.564 1317.23 213.058C1318.44 213.058 1319.66 213.058 1320.88 213.058C1320.88 213.978 1320.88 214.898 1320.88 215.818C1319.66 215.818 1318.44 215.818 1317.23 215.818C1317.16 218.58 1317.23 221.34 1317.41 224.098C1318.22 225.215 1319.25 225.445 1320.52 224.788C1320.61 225.628 1320.85 226.434 1321.25 227.203C1318.97 228.258 1316.84 228.028 1314.85 226.513C1314.61 226.053 1314.37 225.593 1314.12 225.133C1313.94 222.03 1313.88 218.925 1313.94 215.818C1313.09 215.818 1312.23 215.818 1311.38 215.818C1311.38 214.898 1311.38 213.978 1311.38 213.058C1312.23 213.058 1313.09 213.058 1313.94 213.058C1313.94 211.564 1313.94 210.069 1313.94 208.574Z" fill="#FEFFFE"/>
<path opacity="0.893" fill-rule="evenodd" clip-rule="evenodd" d="M1064.76 212.713C1072.61 212.245 1075.96 215.694 1074.81 223.063C1072.42 227.865 1068.58 229.302 1063.3 227.375C1059.59 224.802 1058.43 221.41 1059.83 217.198C1060.83 215.038 1062.47 213.543 1064.76 212.713ZM1065.86 215.473C1069.45 215.299 1071.52 216.909 1072.07 220.303C1071.88 223.297 1070.24 225.022 1067.14 225.478C1062.65 224.047 1061.43 221.288 1063.48 217.198C1064.2 216.491 1064.99 215.916 1065.86 215.473Z" fill="#FEFFFE"/>
<path opacity="0.884" fill-rule="evenodd" clip-rule="evenodd" d="M1081.57 212.713C1084.25 212.301 1086.63 212.876 1088.69 214.438C1088.87 213.992 1088.93 213.532 1088.88 213.058C1089.97 213.058 1091.07 213.058 1092.16 213.058C1092.23 217.889 1092.16 222.719 1091.98 227.547C1091.65 232.022 1089.09 234.322 1084.31 234.447C1081.01 234.415 1078.63 233.035 1077.18 230.307C1077.82 229.634 1078.61 229.174 1079.56 228.927C1080.26 229.49 1080.93 230.123 1081.57 230.825C1086.31 232.467 1088.69 230.915 1088.69 226.168C1084.96 229.049 1081.42 228.819 1078.1 225.478C1075.1 220.123 1076.26 215.869 1081.57 212.713ZM1083.03 215.473C1087.63 215.512 1089.52 217.696 1088.69 222.028C1087.31 225.067 1085.06 225.929 1081.93 224.615C1079.72 222.754 1079.18 220.512 1080.29 217.888C1080.93 216.768 1081.84 215.963 1083.03 215.473Z" fill="#FEFFFE"/>
<path opacity="0.879" fill-rule="evenodd" clip-rule="evenodd" d="M1104.95 212.713C1108.2 212.106 1110.94 212.91 1113.17 215.128C1113.46 215.626 1113.4 216.086 1112.99 216.508C1111.69 217.473 1110.6 217.358 1109.7 216.163C1108.27 215.337 1106.81 215.28 1105.32 215.991C1104.23 217.273 1104.6 218.078 1106.41 218.406C1109.04 218.656 1111.3 219.633 1113.17 221.338C1114.32 225.73 1112.43 228.03 1107.51 228.237C1104.43 228.08 1102.23 226.7 1100.93 224.098C1101.56 223.424 1102.36 222.964 1103.31 222.718C1104.37 224.122 1105.77 225.042 1107.51 225.478C1108.65 225.372 1109.56 224.912 1110.25 224.098C1110.51 223.454 1110.33 222.936 1109.7 222.545C1107.94 221.812 1106.11 221.237 1104.22 220.82C1101.42 219.559 1100.63 217.547 1101.85 214.783C1102.82 213.955 1103.86 213.265 1104.95 212.713Z" fill="#FEFFFE"/>
<path opacity="0.884" fill-rule="evenodd" clip-rule="evenodd" d="M1137.83 212.713C1142.14 211.917 1145.31 213.296 1147.33 216.853C1146.4 217.268 1145.48 217.728 1144.59 218.233C1142.84 215.304 1140.47 214.729 1137.47 216.508C1134.95 219.321 1135.07 222.023 1137.83 224.615C1139.24 225.557 1140.7 225.671 1142.22 224.96C1143.26 224.317 1144.18 223.569 1144.96 222.718C1145.74 222.972 1146.47 223.317 1147.15 223.753C1146.1 226.706 1143.84 228.201 1140.39 228.237C1135.32 227.873 1132.64 225.286 1132.35 220.475C1132.5 216.798 1134.33 214.211 1137.83 212.713Z" fill="#FEFFFE"/>
<path opacity="0.88" fill-rule="evenodd" clip-rule="evenodd" d="M1152.45 212.713C1156.21 211.958 1159.13 213.05 1161.22 215.991C1160.41 216.591 1159.5 216.993 1158.48 217.198C1156.94 215.441 1155.05 215.038 1152.81 215.991C1152.07 216.472 1151.95 217.047 1152.45 217.716C1154.21 218.449 1156.04 219.024 1157.93 219.441C1160.75 220.448 1161.78 222.345 1161.04 225.133C1159.7 227.146 1157.75 228.181 1155.19 228.237C1152.01 228.161 1149.76 226.781 1148.43 224.098C1149.11 223.383 1149.96 222.923 1150.99 222.718C1151.8 223.885 1152.89 224.747 1154.28 225.305C1155.54 225.446 1156.69 225.158 1157.75 224.443C1158.08 223.474 1157.78 222.726 1156.83 222.2C1154.56 221.722 1152.37 221.032 1150.26 220.131C1147.84 216.813 1148.58 214.34 1152.45 212.713Z" fill="#FEFFFE"/>
<path opacity="0.886" fill-rule="evenodd" clip-rule="evenodd" d="M1215.29 212.713C1216.68 212.597 1218.02 212.77 1219.31 213.231C1218.81 214.025 1218.57 214.887 1218.58 215.818C1216.43 215.419 1214.66 215.994 1213.28 217.543C1212.76 220.85 1212.58 224.185 1212.73 227.547C1211.64 227.547 1210.54 227.547 1209.45 227.547C1209.45 222.718 1209.45 217.888 1209.45 213.058C1210.42 213.058 1211.39 213.058 1212.37 213.058C1212.31 213.645 1212.37 214.22 1212.55 214.783C1213.32 213.879 1214.24 213.189 1215.29 212.713Z" fill="#FEFFFE"/>
<path opacity="0.903" fill-rule="evenodd" clip-rule="evenodd" d="M1223.33 212.713C1225.73 212.513 1228.04 212.8 1230.27 213.576C1231.5 214.392 1232.3 215.484 1232.65 216.853C1232.83 220.416 1232.89 223.981 1232.83 227.547C1231.85 227.547 1230.88 227.547 1229.91 227.547C1229.96 227.074 1229.9 226.614 1229.72 226.167C1227.13 228.54 1224.26 228.827 1221.14 227.03C1220.45 226.498 1219.9 225.865 1219.49 225.133C1218.41 221.8 1219.57 219.558 1222.96 218.406C1225.32 218.283 1227.64 218.225 1229.91 218.233C1228.89 215.913 1227.06 215.051 1224.43 215.646C1223.64 216.097 1222.91 216.614 1222.23 217.198C1221.45 216.864 1220.72 216.462 1220.04 215.991C1219.69 215.743 1219.63 215.456 1219.86 215.128C1220.89 214.102 1222.05 213.297 1223.33 212.713ZM1224.79 220.648C1226.64 220.444 1228.35 220.789 1229.91 221.683C1228.9 224.65 1226.83 225.742 1223.69 224.96C1222.01 223.06 1222.38 221.622 1224.79 220.648Z" fill="#FEFFFE"/>
<path opacity="0.924" fill-rule="evenodd" clip-rule="evenodd" d="M1241.6 212.713C1243.34 212.607 1245.04 212.779 1246.71 213.231C1247.63 213.633 1248.29 214.266 1248.72 215.128C1249.25 219.242 1249.43 223.381 1249.27 227.547C1248.29 227.547 1247.32 227.547 1246.35 227.547C1246.49 223.96 1246.31 220.395 1245.8 216.853C1243.2 214.789 1241.01 215.134 1239.22 217.888C1239.04 221.106 1238.98 224.326 1239.04 227.547C1237.94 227.547 1236.85 227.547 1235.75 227.547C1235.75 222.718 1235.75 217.888 1235.75 213.058C1236.73 213.058 1237.7 213.058 1238.67 213.058C1238.62 213.644 1238.68 214.22 1238.86 214.783C1238.99 214.467 1239.17 214.18 1239.4 213.921C1240.22 213.596 1240.95 213.194 1241.6 212.713Z" fill="#FEFFFE"/>
<path opacity="0.883" fill-rule="evenodd" clip-rule="evenodd" d="M1255.48 212.713C1258.27 212.288 1260.77 212.863 1262.97 214.438C1263.54 215.031 1263.84 215.721 1263.88 216.508C1263.05 216.585 1262.26 216.816 1261.51 217.198C1260.72 216.686 1259.93 216.168 1259.13 215.646C1257.77 215.325 1256.49 215.498 1255.3 216.163C1255 216.923 1255.18 217.555 1255.85 218.061C1258.08 218.645 1260.27 219.335 1262.42 220.13C1264.99 222.812 1264.75 225.226 1261.69 227.375C1257.06 229.13 1253.53 227.98 1251.1 223.925C1251.97 223.458 1252.88 223.056 1253.84 222.718C1255.2 225.026 1257.21 225.773 1259.87 224.96C1261.14 224.288 1261.26 223.484 1260.23 222.545C1258.7 221.926 1257.12 221.466 1255.48 221.165C1251.87 220.158 1250.84 218.03 1252.38 214.783C1253.22 213.785 1254.26 213.095 1255.48 212.713Z" fill="#FEFFFE"/>
<path opacity="0.917" fill-rule="evenodd" clip-rule="evenodd" d="M1271.92 212.713C1278.94 212.495 1282.05 215.715 1281.24 222.373C1279.31 227.742 1275.59 229.294 1270.1 227.03C1269.79 226.743 1269.49 226.455 1269.18 226.168C1269 228.81 1268.94 231.455 1269 234.102C1268.02 234.102 1267.05 234.102 1266.08 234.102C1266.08 227.088 1266.08 220.073 1266.08 213.058C1267.05 213.058 1268.02 213.058 1269 213.058C1268.94 213.532 1269 213.992 1269.18 214.438C1270.07 213.765 1270.98 213.19 1271.92 212.713ZM1272.29 215.473C1275.08 215.066 1276.97 216.101 1277.95 218.578C1278.91 222.269 1277.45 224.569 1273.57 225.478C1269.52 224.261 1268.18 221.731 1269.55 217.888C1270.18 216.768 1271.1 215.964 1272.29 215.473Z" fill="#FEFFFE"/>
<path opacity="0.885" fill-rule="evenodd" clip-rule="evenodd" d="M1288.36 212.714C1296.02 212.181 1299.37 215.515 1298.41 222.718C1296.18 227.679 1292.34 229.231 1286.9 227.375C1282.97 224.735 1281.81 221.228 1283.43 216.853C1284.47 214.788 1286.12 213.408 1288.36 212.714ZM1289.46 215.473C1292.16 215.222 1294.04 216.257 1295.12 218.578C1296.06 222.283 1294.6 224.583 1290.74 225.478C1286.13 224.123 1284.91 221.363 1287.08 217.198C1287.8 216.491 1288.59 215.916 1289.46 215.473Z" fill="#FEFFFE"/>
<path opacity="0.877" fill-rule="evenodd" clip-rule="evenodd" d="M1306.63 212.714C1307.61 212.714 1308.58 212.714 1309.55 212.714C1309.55 213.748 1309.55 214.783 1309.55 215.818C1307.28 215.43 1305.51 216.119 1304.26 217.888C1303.74 221.08 1303.56 224.3 1303.71 227.548C1302.61 227.548 1301.52 227.548 1300.42 227.548C1300.42 222.718 1300.42 217.888 1300.42 213.058C1301.52 213.058 1302.61 213.058 1303.71 213.058C1303.65 213.532 1303.71 213.992 1303.89 214.438C1304.68 213.637 1305.6 213.062 1306.63 212.714Z" fill="#FEFFFE"/>
<path opacity="0.988" fill-rule="evenodd" clip-rule="evenodd" d="M1095.45 213.058C1096.43 213.058 1097.4 213.058 1098.38 213.058C1098.38 217.888 1098.38 222.718 1098.38 227.548C1097.4 227.548 1096.43 227.548 1095.45 227.548C1095.45 222.718 1095.45 217.888 1095.45 213.058Z" fill="#FEFFFE"/>
<path opacity="0.879" fill-rule="evenodd" clip-rule="evenodd" d="M1126.87 213.058C1127.97 213.058 1129.07 213.058 1130.16 213.058C1130.16 217.888 1130.16 222.718 1130.16 227.548C1129.07 227.548 1127.97 227.548 1126.87 227.548C1126.87 222.718 1126.87 217.888 1126.87 213.058Z" fill="#FEFFFE"/>
</svg>
