<svg width="531" height="149" viewBox="0 0 531 149" fill="none" xmlns="http://www.w3.org/2000/svg">
<path opacity="0.979" fill-rule="evenodd" clip-rule="evenodd" d="M285.679 0.333267C297.384 -0.733453 308.385 1.33047 318.682 6.52583C328.051 12.9246 333.975 21.5142 336.454 32.2949C328.554 32.3616 320.656 32.2949 312.759 32.0951C308.188 21.4791 299.866 16.9513 287.794 18.5114C279.758 20.5039 274.046 25.0983 270.658 32.2949C265.249 44.9605 266.095 57.2126 273.196 69.0508C279.712 76.2961 287.963 79.026 297.949 77.241C305.865 74.8934 310.801 69.8994 312.759 62.2589C320.794 61.7931 328.834 61.7264 336.877 62.0592C330.374 87.7527 313.167 98.8059 285.255 95.2194C263.781 92.3748 250.594 80.9885 245.693 61.0604C242.132 44.9789 245.235 30.1966 255.002 16.7136C262.9 7.35843 273.126 1.89859 285.679 0.333267Z" fill="#FEFFFE"/>
<path opacity="0.986" fill-rule="evenodd" clip-rule="evenodd" d="M429.119 0.732788C439.98 0.732788 450.838 0.732788 461.699 0.732788C467.213 22.2142 472.925 43.6553 478.836 65.0556C485.179 43.6245 491.458 22.1838 497.665 0.732788C508.104 0.732788 518.538 0.732788 528.977 0.732788C528.977 32.2949 528.977 63.857 528.977 95.4191C521.644 95.4191 514.307 95.4191 506.974 95.4191C507.046 76.3748 506.974 57.3313 506.762 38.2877C500.991 57.2889 495.418 76.3324 490.049 95.4191C482.708 95.5522 475.375 95.4191 468.046 95.0196C462.55 76.5286 457.121 58.0172 451.756 39.4863C451.544 58.1299 451.472 76.7743 451.544 95.4191C444.068 95.4191 436.595 95.4191 429.119 95.4191C429.119 63.857 429.119 32.2949 429.119 0.732788Z" fill="#FEFFFE"/>
<path opacity="0.985" fill-rule="evenodd" clip-rule="evenodd" d="M0.914062 1.1322C25.1732 1.1322 49.4328 1.1322 73.6919 1.1322C73.6919 7.39149 73.6919 13.6504 73.6919 19.9097C56.9077 19.9097 40.124 19.9097 23.3398 19.9097C23.3398 26.302 23.3398 32.6943 23.3398 39.0866C38.2901 39.0866 53.2409 39.0866 68.1913 39.0866C68.1913 45.0795 68.1913 51.0723 68.1913 57.0651C53.2409 57.0651 38.2901 57.0651 23.3398 57.0651C23.3398 69.9828 23.3398 82.9009 23.3398 95.8186C15.8644 95.8186 8.38945 95.8186 0.914062 95.8186C0.914062 64.2564 0.914062 32.6943 0.914062 1.1322Z" fill="#FEFFFE"/>
<path opacity="0.986" fill-rule="evenodd" clip-rule="evenodd" d="M77.5 1.1322C102.324 1.1322 127.147 1.1322 151.97 1.1322C151.97 7.39149 151.97 13.6504 151.97 19.9097C134.622 19.9097 117.274 19.9097 99.9257 19.9097C99.9257 25.3699 99.9257 30.8298 99.9257 36.29C114.876 36.29 129.827 36.29 144.777 36.29C144.777 42.1498 144.777 48.0091 144.777 53.8689C129.827 53.8689 114.876 53.8689 99.9257 53.8689C99.9257 61.1933 99.9257 68.5181 99.9257 75.8425C117.274 75.8425 134.622 75.8425 151.97 75.8425C151.97 82.5013 151.97 89.1597 151.97 95.8186C127.147 95.8186 102.324 95.8186 77.5 95.8186C77.5 64.2564 77.5 32.6943 77.5 1.1322Z" fill="#FEFFFE"/>
<path opacity="0.984" fill-rule="evenodd" clip-rule="evenodd" d="M159.164 1.1322C178.487 1.06548 197.81 1.1322 217.132 1.33196C233.809 5.49177 241.354 15.6795 239.769 31.8953C238.234 38.9296 234.355 44.4562 228.133 48.4754C232.513 51.0183 235.264 54.6803 236.384 59.4622C236.84 63.9088 237.052 68.3703 237.019 72.8461C236.845 80.3703 236.704 87.8949 236.596 95.419C228.98 95.419 221.363 95.419 213.747 95.419C213.611 86.6112 213.752 77.8217 214.17 69.0507C213.637 62.9112 210.252 58.9824 204.015 57.2648C196.682 57.0651 189.348 56.9983 182.012 57.0651C182.012 69.8497 182.012 82.6344 182.012 95.419C174.396 95.419 166.78 95.419 159.164 95.419C159.164 63.99 159.164 32.5613 159.164 1.1322ZM182.012 18.3116C190.758 18.2449 199.503 18.3116 208.246 18.5113C214.281 20.652 216.749 24.7135 215.651 30.6967C214.452 33.9596 212.125 36.157 208.669 37.2888C204.95 37.7155 201.212 37.9152 197.457 37.8881C192.307 37.7842 187.159 37.6508 182.012 37.4886C182.012 31.0962 182.012 24.7039 182.012 18.3116Z" fill="#FEFFFE"/>
<path opacity="0.984" fill-rule="evenodd" clip-rule="evenodd" d="M365.226 1.1322C374.252 1.1322 383.281 1.1322 392.307 1.1322C403.519 32.5617 414.944 63.924 426.58 95.2193C418.401 95.4857 410.218 95.4857 402.038 95.2193C399.783 89.0934 397.524 82.9672 395.268 76.8413C383.984 76.5748 372.703 76.5748 361.418 76.8413C359.163 82.9672 356.904 89.0934 354.648 95.2193C346.609 95.419 338.569 95.4857 330.53 95.419C342.094 63.9943 353.658 32.5653 365.226 1.1322ZM378.343 28.6991C382.304 38.4534 386.112 48.3084 389.768 58.2636C382.439 58.6631 375.106 58.7962 367.765 58.6631C371.205 48.6504 374.734 38.6624 378.343 28.6991Z" fill="#FEFFFE"/>
<path opacity="0.849" fill-rule="evenodd" clip-rule="evenodd" d="M269.6 115.395C272.251 115.34 273.308 116.539 272.773 118.991C271.856 120.104 270.657 120.437 269.177 119.989C267.456 118.319 267.597 116.788 269.6 115.395Z" fill="#FEFFFE"/>
<path opacity="0.863" fill-rule="evenodd" clip-rule="evenodd" d="M306.412 115.395C308.73 115.392 309.788 116.457 309.585 118.591C308.717 120.106 307.377 120.572 305.566 119.99C304.26 118.16 304.542 116.629 306.412 115.395Z" fill="#FEFFFE"/>
<path opacity="0.885" fill-rule="evenodd" clip-rule="evenodd" d="M360.995 115.395C364.994 114.619 367.816 115.951 369.458 119.39C368.726 120.17 367.812 120.703 366.707 120.988C365.848 119.979 364.791 119.18 363.534 118.591C360.966 119.251 360.331 120.716 361.63 122.986C364.3 126.373 367.05 129.702 369.881 132.974C370.579 131.786 371.425 130.721 372.42 129.778C373.355 130.284 374.201 130.883 374.958 131.576C373.943 132.94 373.097 134.404 372.42 135.97C373.118 136.899 373.824 137.831 374.535 138.767C373.736 139.642 372.817 140.374 371.785 140.964C371.07 140.358 370.435 139.692 369.881 138.967C365.751 141.648 361.664 141.581 357.61 138.767C354.902 136.286 353.984 133.29 354.86 129.778C355.748 127.88 356.95 126.215 358.456 124.784C356.121 120.805 356.967 117.676 360.995 115.395ZM360.572 127.78C363.026 130.434 365.425 133.165 367.765 135.97C364.757 138.25 361.867 138.05 359.091 135.371C357.348 132.396 357.843 129.866 360.572 127.78Z" fill="#FEFFFE"/>
<path opacity="0.99" fill-rule="evenodd" clip-rule="evenodd" d="M0.914062 115.795C65.9347 115.795 130.955 115.795 195.976 115.795C195.976 123.918 195.976 132.042 195.976 140.165C130.955 140.165 65.9347 140.165 0.914062 140.165C0.914062 132.042 0.914062 123.918 0.914062 115.795Z" fill="#FEFFFE"/>
<path opacity="0.906" fill-rule="evenodd" clip-rule="evenodd" d="M210.785 115.795C212.054 115.795 213.324 115.795 214.593 115.795C214.593 122.853 214.593 129.911 214.593 136.969C218.26 136.969 221.927 136.969 225.594 136.969C225.594 138.035 225.594 139.1 225.594 140.165C220.658 140.165 215.722 140.165 210.785 140.165C210.785 132.042 210.785 123.918 210.785 115.795Z" fill="#FEFFFE"/>
<path opacity="0.907" fill-rule="evenodd" clip-rule="evenodd" d="M382.575 115.795C388.498 115.795 394.422 115.795 400.346 115.795C400.346 116.86 400.346 117.925 400.346 118.991C398.091 118.991 395.831 118.991 393.576 118.991C393.576 126.049 393.576 133.107 393.576 140.165C392.307 140.165 391.037 140.165 389.768 140.165C389.768 133.107 389.768 126.049 389.768 118.991C387.369 118.991 384.974 118.991 382.575 118.991C382.575 117.925 382.575 116.86 382.575 115.795Z" fill="#FEFFFE"/>
<path opacity="0.884" fill-rule="evenodd" clip-rule="evenodd" d="M294.141 118.192C295.41 118.192 296.68 118.192 297.949 118.192C297.949 119.923 297.949 121.654 297.949 123.386C299.36 123.386 300.77 123.386 302.181 123.386C302.181 124.451 302.181 125.516 302.181 126.582C300.77 126.582 299.36 126.582 297.949 126.582C297.879 129.781 297.949 132.977 298.161 136.17C299.1 137.464 300.298 137.731 301.757 136.969C301.866 137.943 302.148 138.875 302.604 139.766C299.715 141.084 297.106 140.684 294.776 138.567C294.174 134.604 293.962 130.609 294.141 126.582C293.154 126.582 292.166 126.582 291.179 126.582C291.179 125.516 291.179 124.451 291.179 123.386C292.166 123.386 293.154 123.386 294.141 123.386C294.141 121.654 294.141 119.923 294.141 118.192Z" fill="#FEFFFE"/>
<path opacity="0.886" fill-rule="evenodd" clip-rule="evenodd" d="M521.783 118.192C523.053 118.192 524.322 118.192 525.592 118.192C525.592 119.923 525.592 121.654 525.592 123.386C527.001 123.386 528.414 123.386 529.823 123.386C529.823 124.451 529.823 125.516 529.823 126.582C528.414 126.582 527.001 126.582 525.592 126.582C525.52 129.781 525.592 132.977 525.803 136.17C526.742 137.464 527.94 137.731 529.4 136.969C529.51 137.943 529.789 138.875 530.246 139.766C527.614 140.989 525.143 140.722 522.841 138.967C522.558 138.434 522.278 137.901 521.995 137.369C521.783 133.775 521.711 130.18 521.783 126.582C520.798 126.582 519.807 126.582 518.822 126.582C518.822 125.516 518.822 124.451 518.822 123.386C519.807 123.386 520.798 123.386 521.783 123.386C521.783 121.654 521.783 119.923 521.783 118.192Z" fill="#FEFFFE"/>
<path opacity="0.893" fill-rule="evenodd" clip-rule="evenodd" d="M233.211 122.986C242.296 122.443 246.175 126.438 244.847 134.972C242.078 140.533 237.635 142.197 231.518 139.966C227.223 136.986 225.883 133.057 227.498 128.18C228.654 125.678 230.558 123.946 233.211 122.986ZM234.48 126.182C238.642 125.98 241.039 127.845 241.673 131.775C241.454 135.243 239.55 137.241 235.961 137.768C230.766 136.112 229.356 132.916 231.73 128.18C232.561 127.361 233.478 126.695 234.48 126.182Z" fill="#FEFFFE"/>
<path opacity="0.884" fill-rule="evenodd" clip-rule="evenodd" d="M252.675 122.986C255.785 122.508 258.535 123.174 260.926 124.984C261.133 124.467 261.204 123.934 261.137 123.385C262.407 123.385 263.676 123.385 264.945 123.385C265.016 128.98 264.945 134.574 264.734 140.165C264.345 145.348 261.383 148.011 255.848 148.156C252.025 148.119 249.274 146.521 247.597 143.361C248.328 142.582 249.245 142.049 250.347 141.763C251.162 142.415 251.938 143.148 252.675 143.961C258.17 145.863 260.921 144.065 260.926 138.567C256.596 141.905 252.506 141.638 248.655 137.768C245.183 131.567 246.523 126.64 252.675 122.986ZM254.367 126.182C259.699 126.226 261.885 128.757 260.926 133.773C259.327 137.292 256.718 138.291 253.098 136.769C250.538 134.614 249.904 132.017 251.194 128.979C251.931 127.682 252.989 126.75 254.367 126.182Z" fill="#FEFFFE"/>
<path opacity="0.879" fill-rule="evenodd" clip-rule="evenodd" d="M279.755 122.986C283.52 122.282 286.694 123.214 289.275 125.783C289.606 126.36 289.535 126.892 289.064 127.381C287.562 128.498 286.293 128.365 285.255 126.981C283.597 126.025 281.905 125.958 280.178 126.781C278.919 128.266 279.342 129.198 281.447 129.578C284.492 129.868 287.101 131 289.275 132.974C290.6 138.061 288.414 140.724 282.717 140.964C279.145 140.782 276.606 139.184 275.1 136.17C275.832 135.39 276.748 134.858 277.851 134.572C279.076 136.198 280.698 137.263 282.717 137.768C284.037 137.646 285.095 137.113 285.89 136.17C286.191 135.424 285.979 134.825 285.255 134.372C283.211 133.523 281.095 132.857 278.908 132.375C275.665 130.914 274.748 128.584 276.158 125.383C277.288 124.423 278.487 123.624 279.755 122.986Z" fill="#FEFFFE"/>
<path opacity="0.884" fill-rule="evenodd" clip-rule="evenodd" d="M317.836 122.986C322.825 122.063 326.492 123.661 328.838 127.78C327.75 128.261 326.692 128.793 325.664 129.378C323.636 125.986 320.886 125.32 317.413 127.381C314.491 130.638 314.632 133.768 317.836 136.77C319.458 137.86 321.151 137.993 322.914 137.169C324.123 136.424 325.181 135.558 326.087 134.572C326.992 134.866 327.839 135.266 328.626 135.771C327.406 139.191 324.797 140.922 320.798 140.964C314.921 140.543 311.819 137.546 311.489 131.975C311.66 127.716 313.776 124.72 317.836 122.986Z" fill="#FEFFFE"/>
<path opacity="0.88" fill-rule="evenodd" clip-rule="evenodd" d="M334.761 122.986C339.111 122.111 342.496 123.376 344.916 126.782C343.981 127.476 342.923 127.943 341.743 128.18C339.962 126.145 337.774 125.678 335.184 126.782C334.327 127.339 334.186 128.005 334.761 128.779C336.805 129.629 338.921 130.295 341.108 130.777C344.371 131.943 345.568 134.14 344.705 137.369C343.156 139.7 340.897 140.899 337.935 140.965C334.252 140.876 331.642 139.278 330.107 136.17C330.89 135.342 331.877 134.81 333.069 134.572C334.008 135.923 335.277 136.922 336.877 137.569C338.337 137.731 339.678 137.398 340.897 136.57C341.286 135.448 340.935 134.582 339.839 133.973C337.207 133.419 334.67 132.62 332.223 131.576C329.429 127.734 330.275 124.87 334.761 122.986Z" fill="#FEFFFE"/>
<path opacity="0.886" fill-rule="evenodd" clip-rule="evenodd" d="M407.539 122.986C409.151 122.851 410.7 123.051 412.193 123.585C411.614 124.505 411.335 125.503 411.347 126.582C408.855 126.119 406.811 126.785 405.212 128.579C404.611 132.409 404.399 136.271 404.577 140.165C403.308 140.165 402.038 140.165 400.769 140.165C400.769 134.572 400.769 128.979 400.769 123.385C401.899 123.385 403.024 123.385 404.154 123.385C404.086 124.064 404.158 124.73 404.366 125.383C405.258 124.336 406.316 123.537 407.539 122.986Z" fill="#FEFFFE"/>
<path opacity="0.903" fill-rule="evenodd" clip-rule="evenodd" d="M416.848 122.986C419.624 122.754 422.302 123.087 424.887 123.985C426.313 124.93 427.231 126.195 427.638 127.78C427.849 131.906 427.921 136.035 427.849 140.165C426.719 140.165 425.594 140.165 424.464 140.165C424.532 139.617 424.46 139.084 424.253 138.567C421.244 141.314 417.931 141.647 414.309 139.566C413.514 138.95 412.879 138.217 412.405 137.369C411.153 133.51 412.494 130.913 416.425 129.578C419.158 129.436 421.837 129.369 424.464 129.378C423.288 126.692 421.172 125.693 418.117 126.382C417.212 126.904 416.366 127.504 415.579 128.18C414.677 127.793 413.831 127.327 413.04 126.781C412.638 126.495 412.566 126.162 412.828 125.783C414.021 124.594 415.363 123.662 416.848 122.986ZM418.54 132.175C420.686 131.939 422.662 132.338 424.464 133.373C423.305 136.809 420.906 138.075 417.271 137.169C415.32 134.968 415.744 133.304 418.54 132.175Z" fill="#FEFFFE"/>
<path opacity="0.924" fill-rule="evenodd" clip-rule="evenodd" d="M438.004 122.986C440.022 122.862 441.994 123.062 443.928 123.585C444.986 124.051 445.76 124.784 446.255 125.783C446.864 130.546 447.076 135.341 446.89 140.165C445.76 140.165 444.635 140.165 443.505 140.165C443.674 136.011 443.463 131.882 442.87 127.78C439.862 125.389 437.323 125.789 435.254 128.979C435.042 132.705 434.97 136.434 435.042 140.165C433.773 140.165 432.504 140.165 431.234 140.165C431.234 134.572 431.234 128.979 431.234 123.385C432.364 123.385 433.489 123.385 434.619 123.385C434.551 124.064 434.623 124.73 434.831 125.383C434.987 125.017 435.199 124.684 435.465 124.384C436.409 124.008 437.255 123.542 438.004 122.986Z" fill="#FEFFFE"/>
<path opacity="0.883" fill-rule="evenodd" clip-rule="evenodd" d="M454.083 122.986C457.312 122.493 460.206 123.159 462.757 124.984C463.417 125.67 463.769 126.469 463.815 127.381C462.846 127.47 461.932 127.737 461.065 128.18C460.151 127.587 459.237 126.987 458.314 126.382C456.732 126.011 455.251 126.211 453.872 126.981C453.525 127.861 453.736 128.593 454.506 129.179C457.096 129.856 459.635 130.655 462.123 131.576C465.101 134.681 464.822 137.477 461.276 139.966C455.915 141.998 451.824 140.667 449.006 135.97C450.013 135.43 451.07 134.964 452.179 134.572C453.762 137.245 456.089 138.111 459.161 137.169C460.637 136.391 460.777 135.459 459.584 134.372C457.815 133.655 455.979 133.122 454.083 132.774C449.903 131.607 448.705 129.143 450.487 125.383C451.468 124.227 452.67 123.427 454.083 122.986Z" fill="#FEFFFE"/>
<path opacity="0.917" fill-rule="evenodd" clip-rule="evenodd" d="M473.124 122.986C481.252 122.734 484.849 126.462 483.914 134.173C481.675 140.39 477.372 142.188 471.008 139.566C470.657 139.233 470.302 138.9 469.95 138.567C469.739 141.627 469.667 144.69 469.739 147.756C468.609 147.756 467.484 147.756 466.354 147.756C466.354 139.633 466.354 131.509 466.354 123.386C467.484 123.386 468.609 123.386 469.739 123.386C469.671 123.934 469.743 124.467 469.95 124.984C470.979 124.204 472.036 123.538 473.124 122.986ZM473.547 126.182C476.784 125.71 478.967 126.909 480.105 129.778C481.214 134.052 479.521 136.716 475.028 137.768C470.344 136.359 468.791 133.429 470.373 128.979C471.11 127.682 472.168 126.75 473.547 126.182Z" fill="#FEFFFE"/>
<path opacity="0.885" fill-rule="evenodd" clip-rule="evenodd" d="M492.165 122.986C501.029 122.369 504.909 126.231 503.801 134.572C501.215 140.317 496.772 142.115 490.472 139.966C485.915 136.909 484.574 132.847 486.452 127.78C487.658 125.389 489.562 123.791 492.165 122.986ZM493.434 126.182C496.557 125.891 498.744 127.09 499.992 129.778C501.08 134.068 499.387 136.732 494.915 137.768C489.575 136.199 488.162 133.003 490.684 128.18C491.517 127.361 492.431 126.695 493.434 126.182Z" fill="#FEFFFE"/>
<path opacity="0.877" fill-rule="evenodd" clip-rule="evenodd" d="M513.321 122.986C514.45 122.986 515.576 122.986 516.706 122.986C516.706 124.185 516.706 125.383 516.706 126.582C514.07 126.132 512.022 126.931 510.57 128.979C509.97 132.675 509.758 136.404 509.936 140.165C508.666 140.165 507.397 140.165 506.128 140.165C506.128 134.572 506.128 128.979 506.128 123.386C507.397 123.386 508.666 123.386 509.936 123.386C509.868 123.934 509.94 124.467 510.147 124.984C511.065 124.056 512.123 123.39 513.321 122.986Z" fill="#FEFFFE"/>
<path opacity="0.988" fill-rule="evenodd" clip-rule="evenodd" d="M268.754 123.386C269.882 123.386 271.01 123.386 272.139 123.386C272.139 128.979 272.139 134.572 272.139 140.165C271.01 140.165 269.882 140.165 268.754 140.165C268.754 134.572 268.754 128.979 268.754 123.386Z" fill="#FEFFFE"/>
<path opacity="0.879" fill-rule="evenodd" clip-rule="evenodd" d="M305.142 123.386C306.412 123.386 307.681 123.386 308.95 123.386C308.95 128.979 308.95 134.572 308.95 140.165C307.681 140.165 306.412 140.165 305.142 140.165C305.142 134.572 305.142 128.979 305.142 123.386Z" fill="#FEFFFE"/>
</svg>
