<svg width="571" height="101" viewBox="0 0 571 101" fill="none" xmlns="http://www.w3.org/2000/svg">
<circle cx="50.5696" cy="50.6095" r="50" fill="#2262B6"/>
<circle cx="167.125" cy="50.1115" r="50" fill="#38A2E0"/>
<circle cx="286.009" cy="50.1115" r="50" fill="#33B664"/>
<circle cx="402.948" cy="50.6094" r="50" fill="#F15B22"/>
<circle cx="520.948" cy="50.1115" r="50" fill="#F7C423"/>
<path fill-rule="evenodd" clip-rule="evenodd" d="M521.899 26.7819C520.028 26.4193 518.528 25.4086 517.399 23.7499C516.27 25.4086 514.77 26.4193 512.899 26.7819C515.899 21.3917 518.899 21.3917 521.899 26.7819Z" fill="#7D7A60"/>
<path fill-rule="evenodd" clip-rule="evenodd" d="M521.899 26.7819C520.885 28.0601 519.385 28.7338 517.399 28.8033C515.413 28.7338 513.913 28.0601 512.899 26.7819C514.77 26.4193 516.27 25.4086 517.399 23.7499C518.528 25.4086 520.028 26.4193 521.899 26.7819Z" fill="#E6B92F"/>
<path fill-rule="evenodd" clip-rule="evenodd" d="M512.899 26.782C513.913 28.0602 515.413 28.7339 517.399 28.8033C519.385 28.7339 520.885 28.0602 521.899 26.782C523.878 28.4673 526.211 29.1411 528.899 28.8033C528.899 30.1509 528.232 30.8247 526.899 30.8247C526.899 35.2043 526.899 39.5839 526.899 43.9635C527.775 43.8312 528.442 44.1681 528.899 44.9742C521.232 46.3217 513.566 46.3217 505.899 44.9742C508.505 39.5853 508.505 34.1951 505.899 28.8033C508.478 28.9106 510.811 28.2369 512.899 26.782Z" fill="#747464"/>
<path fill-rule="evenodd" clip-rule="evenodd" d="M400.899 30.8247C400.232 30.8247 399.899 31.1615 399.899 31.8353C395.545 29.9676 390.879 29.2938 385.899 29.814C385.899 36.5519 385.899 43.2896 385.899 50.0275C390.566 50.0275 395.232 50.0275 399.899 50.0275C399.899 50.7013 399.899 51.375 399.899 52.0489C392.566 52.0489 385.232 52.0489 377.899 52.0489C377.899 51.375 377.899 50.7013 377.899 50.0275C376.909 43.8173 376.576 37.4164 376.899 30.8247C376.976 29.5615 377.643 28.7193 378.899 28.298C385.566 27.6241 392.232 27.6241 398.899 28.298C399.78 29.0138 400.446 29.856 400.899 30.8247Z" fill="#FBCAB8"/>
<path fill-rule="evenodd" clip-rule="evenodd" d="M377.899 50.0275C377.899 43.2896 377.899 36.5518 377.899 29.814C379.899 29.814 381.899 29.814 383.899 29.814C383.899 36.5518 383.899 43.2896 383.899 50.0275C381.899 50.0275 379.899 50.0275 377.899 50.0275Z" fill="#F15C23"/>
<path fill-rule="evenodd" clip-rule="evenodd" d="M399.899 31.8352C399.899 37.8993 399.899 43.9634 399.899 50.0274C395.232 50.0274 390.566 50.0274 385.899 50.0274C385.899 43.2895 385.899 36.5518 385.899 29.8139C390.879 29.2937 395.545 29.9675 399.899 31.8352Z" fill="#F15B21"/>
<path fill-rule="evenodd" clip-rule="evenodd" d="M149.9 38.9101C148.827 38.1515 148.66 37.1408 149.4 35.878C150.958 33.9993 152.791 32.4833 154.9 31.33C159.233 30.9931 163.567 30.6562 167.9 30.3193C173.384 26.8881 179.05 26.2143 184.9 28.298C184.072 29.2224 183.072 29.8963 181.9 30.3193C184.21 30.8212 186.543 30.9897 188.9 30.8247C188.73 29.4884 189.063 28.3094 189.9 27.2873C191.979 26.471 193.979 26.6394 195.9 27.7926C194.692 31.4536 193.692 35.1595 192.9 38.9101C179.583 37.0923 178.249 39.2821 188.9 45.4795C181.715 47.0707 175.382 45.3862 169.9 40.4261C163.054 40.2526 156.387 39.7472 149.9 38.9101Z" fill="#CDE6F6"/>
<path fill-rule="evenodd" clip-rule="evenodd" d="M177.9 27.7927C182.62 27.5151 182.954 28.3574 178.9 30.3194C176.567 30.9932 174.233 30.9932 171.9 30.3194C174.123 29.7471 176.123 28.9049 177.9 27.7927Z" fill="#4DAAE2"/>
<path fill-rule="evenodd" clip-rule="evenodd" d="M149.9 38.91C151.058 35.5529 153.392 33.3631 156.9 32.3406C167.907 32.7981 178.907 32.6296 189.9 31.8353C190.646 30.5859 190.979 29.2384 190.9 27.7926C191.9 27.7926 192.9 27.7926 193.9 27.7926C193.233 30.8246 192.567 33.8567 191.9 36.8887C186.834 36.7269 181.834 37.2322 176.9 38.4047C179.567 40.4261 182.233 42.4474 184.9 44.4688C179.173 44.4437 174.173 42.4223 169.9 38.4047C163.262 38.6179 156.596 38.7863 149.9 38.91Z" fill="#3DA4E0"/>
<path fill-rule="evenodd" clip-rule="evenodd" d="M505.899 28.8032C508.505 34.195 508.505 39.5852 505.899 44.974C513.566 46.3216 521.232 46.3216 528.899 44.974C528.442 44.168 527.775 43.8311 526.899 43.9634C526.899 39.5838 526.899 35.2041 526.899 30.8246C528.232 30.8246 528.899 30.1508 528.899 28.8032C529.889 34.6753 530.222 40.7393 529.899 46.9954C521.566 46.9954 513.232 46.9954 504.899 46.9954C504.576 40.7393 504.909 34.6753 505.899 28.8032Z" fill="#A8944E"/>
<path fill-rule="evenodd" clip-rule="evenodd" d="M526.899 30.8246C520.474 32.3337 514.141 32.1653 507.899 30.3193C514.413 29.4905 520.746 29.659 526.899 30.8246Z" fill="#CBA83B"/>
<path fill-rule="evenodd" clip-rule="evenodd" d="M524.899 41.942C519.899 41.942 514.899 41.942 509.899 41.942C508.922 39.1254 508.589 36.0934 508.899 32.8459C514.566 32.8459 520.232 32.8459 525.899 32.8459C526.209 36.0934 525.876 39.1254 524.899 41.942Z" fill="#EABC2D"/>
<path fill-rule="evenodd" clip-rule="evenodd" d="M434.899 36.8887C434.232 36.8887 433.899 37.2256 433.899 37.8994C433.566 37.8994 433.232 37.8994 432.899 37.8994C430.232 37.8994 427.566 37.8994 424.899 37.8994C424.899 41.2683 424.899 44.6372 424.899 48.0061C422.566 48.0061 420.232 48.0061 417.899 48.0061C417.899 44.6372 417.899 41.2683 417.899 37.8994C415.232 37.8994 412.566 37.8994 409.899 37.8994C409.899 45.6479 409.899 53.3964 409.899 61.1449C417.479 62.1547 425.812 62.4916 434.899 62.1556C426.081 63.1595 417.081 63.4964 407.899 63.1663C407.899 54.0702 407.899 44.9741 407.899 35.878C417.081 35.5479 426.081 35.8848 434.899 36.8887Z" fill="#FBC7B2"/>
<path fill-rule="evenodd" clip-rule="evenodd" d="M56.8995 37.8994C49.2328 37.8994 41.5662 37.8994 33.8995 37.8994C33.5683 46.3486 33.9016 54.7708 34.8995 63.1663C35.5062 63.0414 35.8395 62.7046 35.8995 62.1557C37.0665 60.8268 38.5665 60.1531 40.3995 60.1343C42.6431 61.0744 44.8097 62.2535 46.8995 63.6717C45.4884 65.7761 43.8217 67.629 41.8995 69.2304C40.5662 70.5779 39.2328 70.5779 37.8995 69.2304C35.8671 68.1582 34.5337 66.4737 33.8995 64.177C32.9013 55.1058 32.568 46.0097 32.8995 36.8887C41.0836 36.5596 49.0836 36.8964 56.8995 37.8994Z" fill="#DDE6F3"/>
<path fill-rule="evenodd" clip-rule="evenodd" d="M432.899 37.8994C432.899 43.2897 432.899 48.68 432.899 54.0702C429.899 54.0702 426.899 54.0702 423.899 54.0702C423.899 55.7547 423.899 57.4391 423.899 59.1236C427.411 58.5632 430.411 59.237 432.899 61.145C425.232 61.145 417.566 61.145 409.899 61.145C409.899 53.3964 409.899 45.648 409.899 37.8994C412.566 37.8994 415.232 37.8994 417.899 37.8994C417.899 41.2683 417.899 44.6373 417.899 48.0062C420.232 48.0062 422.566 48.0062 424.899 48.0062C424.899 44.6373 424.899 41.2683 424.899 37.8994C427.566 37.8994 430.232 37.8994 432.899 37.8994Z" fill="#F15C23"/>
<path fill-rule="evenodd" clip-rule="evenodd" d="M419.899 37.8994C421.232 37.8994 422.566 37.8994 423.899 37.8994C423.899 40.9314 423.899 43.9635 423.899 46.9955C422.566 46.9955 421.232 46.9955 419.899 46.9955C419.899 43.9635 419.899 40.9314 419.899 37.8994Z" fill="#F2642F"/>
<path fill-rule="evenodd" clip-rule="evenodd" d="M513.899 33.8567C515.272 33.6984 516.606 33.8669 517.899 34.3621C515.402 34.7782 513.402 35.9573 511.899 37.8995C512.566 38.2363 513.232 38.5733 513.899 38.9101C515.232 38.2363 516.566 37.5626 517.899 36.8888C519.046 37.21 519.88 37.8837 520.399 38.9101C521.117 37.9494 521.95 37.781 522.899 38.4048C519.102 39.8439 515.102 40.3492 510.899 39.9208C510.427 37.0324 511.427 35.011 513.899 33.8567Z" fill="#777663"/>
<path fill-rule="evenodd" clip-rule="evenodd" d="M56.8995 37.8994C49.7519 38.9016 42.4186 39.2386 34.8995 38.9101C34.5741 46.8455 34.9075 54.594 35.8995 62.1556C35.8395 62.7045 35.5062 63.0414 34.8995 63.1663C33.9016 54.7708 33.5683 46.3486 33.8995 37.8994C41.5662 37.8994 49.2328 37.8994 56.8995 37.8994Z" fill="#6B95CD"/>
<path fill-rule="evenodd" clip-rule="evenodd" d="M294.899 46.9955C293.566 46.9955 292.232 46.9955 290.899 46.9955C289.152 39.5962 287.485 39.4277 285.899 46.4901C284.85 46.9876 283.85 46.8192 282.899 45.9848C280.566 50.0275 278.232 50.0275 275.899 45.9848C273.565 47.3399 271.898 46.6661 270.899 43.9634C272.155 41.8253 271.489 40.4777 268.899 39.9207C268.643 37.4826 269.643 35.7981 271.899 34.8673C270.558 32.5082 271.225 30.8237 273.899 29.814C274.566 30.1508 275.232 30.4878 275.899 30.8246C278.232 26.7819 280.566 26.7819 282.899 30.8246C284.119 29.6006 285.286 29.6006 286.399 30.8246C286.969 34.2946 288.302 37.3266 290.399 39.9207C290.998 36.6632 292.998 34.9787 296.399 34.8673C298.165 35.6087 299.998 35.9455 301.899 35.878C301.646 38.2302 302.313 40.2515 303.899 41.9421C302.449 43.3063 301.782 44.9908 301.899 46.9955C299.829 46.9435 297.996 47.6173 296.399 49.0168C295.369 48.6771 294.869 48.0033 294.899 46.9955Z" fill="#CDECD8"/>
<path fill-rule="evenodd" clip-rule="evenodd" d="M277.899 29.814C280.566 30.6887 283.232 31.6994 285.899 32.846C284.558 35.2051 285.225 36.8896 287.899 37.8994C286.899 39.2469 285.899 40.5945 284.899 41.9421C285.232 42.6159 285.566 43.2896 285.899 43.9634C284.378 44.3472 282.712 44.5157 280.899 44.4688C280.273 45.2272 279.773 46.0695 279.399 46.9955C278.38 45.7956 277.213 44.7849 275.899 43.9634C273.232 45.311 272.566 44.6373 273.899 41.9421C272.899 40.5945 271.899 39.2469 270.899 37.8994C273.573 36.8896 274.24 35.2051 272.899 32.846C275.054 32.3392 276.721 31.3286 277.899 29.814Z" fill="#3DB86A"/>
<path fill-rule="evenodd" clip-rule="evenodd" d="M294.899 46.9955C294.19 46.0818 293.19 45.745 291.899 45.9848C290.614 41.6264 292.114 38.2575 296.399 35.8781C297.509 37.4313 299.009 38.1051 300.899 37.8994C302.232 40.5946 302.232 43.2896 300.899 45.9848C298.948 45.7086 297.448 46.3824 296.399 48.0062C296.016 47.4442 295.516 47.1074 294.899 46.9955Z" fill="#59C17B"/>
<path fill-rule="evenodd" clip-rule="evenodd" d="M277.899 35.8781C281.56 35.7266 282.56 37.2426 280.899 40.4262C277.106 40.918 276.106 39.4019 277.899 35.8781Z" fill="#C0E7CB"/>
<path fill-rule="evenodd" clip-rule="evenodd" d="M46.8995 58.1129C46.0613 58.4583 45.7279 59.1321 45.8995 60.1343C44.6905 58.179 44.8572 56.1577 46.3995 54.0702C49.3548 50.2859 52.1881 46.4117 54.8995 42.4474C58.2328 42.1106 61.5662 41.7736 64.8995 41.4368C63.7123 40.4064 62.7123 39.2273 61.8995 37.8994C63.5486 35.7265 65.3819 33.7052 67.3995 31.8353C68.0662 32.5091 68.0662 33.1829 67.3995 33.8567C63.1135 36.2381 62.9468 38.7648 66.8995 41.4368C71.3089 42.712 75.1423 41.8698 78.3995 38.9101C77.3995 36.5519 76.3995 34.1935 75.3995 31.8353C77.4171 33.7052 79.2504 35.7265 80.8995 37.8994C80.0867 39.2273 79.0867 40.4064 77.8995 41.4368C81.2813 41.615 84.6147 42.1204 87.8995 42.9528C76.8995 43.6266 65.8995 44.3003 54.8995 44.9741C51.4405 48.9483 48.7738 53.3279 46.8995 58.1129Z" fill="#C0D1E9"/>
<path fill-rule="evenodd" clip-rule="evenodd" d="M509.899 41.942C514.899 41.942 519.899 41.942 524.899 41.942C525.232 42.9527 525.899 43.6265 526.899 43.9634C520.746 45.129 514.413 45.2975 507.899 44.4687C508.78 43.7528 509.446 42.9106 509.899 41.942Z" fill="#AF984B"/>
<path fill-rule="evenodd" clip-rule="evenodd" d="M532.899 63.1663C532.899 62.4925 533.232 62.1556 533.899 62.1556C533.899 66.1983 533.899 70.241 533.899 74.2837C540.566 74.2837 547.232 74.2837 553.899 74.2837C554.888 68.75 555.221 63.0228 554.899 57.1022C546.566 57.1022 538.232 57.1022 529.899 57.1022C528.566 56.7654 528.566 56.4284 529.899 56.0915C532.971 56.4123 535.971 56.0755 538.899 55.0809C537.354 54.1188 535.687 53.7819 533.899 54.0702C533.899 49.6906 533.899 45.311 533.899 40.9314C540.232 40.9314 546.566 40.9314 552.899 40.9314C552.899 45.311 552.899 49.6906 552.899 54.0702C551.111 53.7819 549.444 54.1188 547.899 55.0809C550.485 56.0713 553.152 56.4083 555.899 56.0915C555.899 62.8294 555.899 69.5672 555.899 76.3051C548.232 76.3051 540.566 76.3051 532.899 76.3051C532.899 71.9255 532.899 67.5458 532.899 63.1663Z" fill="#797763"/>
<path fill-rule="evenodd" clip-rule="evenodd" d="M534.899 41.942C540.566 41.942 546.232 41.942 551.899 41.942C551.899 45.3109 551.899 48.6799 551.899 52.0488C546.232 52.0488 540.566 52.0488 534.899 52.0488C534.899 48.6799 534.899 45.3109 534.899 41.942Z" fill="#F4C127"/>
<path fill-rule="evenodd" clip-rule="evenodd" d="M520.899 62.1556C519.922 59.3389 519.589 56.3069 519.899 53.0595C522.453 52.162 525.12 51.825 527.899 52.0488C527.899 55.4177 527.899 58.7867 527.899 62.1556C525.566 62.1556 523.232 62.1556 520.899 62.1556Z" fill="#F5C226"/>
<path fill-rule="evenodd" clip-rule="evenodd" d="M498.899 74.2838C494.099 77.5996 490.266 76.5889 487.399 71.2518C486.732 69.5673 486.732 67.8829 487.399 66.1984C491.467 61.6875 492.3 56.8026 489.899 51.5436C490.044 50.7633 490.377 50.0895 490.899 49.5222C493.232 48.8484 495.566 48.8484 497.899 49.5222C498.421 50.0895 498.754 50.7633 498.899 51.5436C497.882 54.3599 497.715 57.2236 498.399 60.1343C499.969 62.8066 501.136 65.6703 501.899 68.7251C501.786 71.1494 500.786 73.0023 498.899 74.2838Z" fill="#817C5F"/>
<path fill-rule="evenodd" clip-rule="evenodd" d="M491.899 50.0275C493.687 49.7393 495.354 50.0762 496.899 51.0382C496.066 51.3751 495.232 51.712 494.399 52.0489C493.023 51.8627 492.19 51.1889 491.899 50.0275Z" fill="#CFAB38"/>
<path fill-rule="evenodd" clip-rule="evenodd" d="M498.899 74.2837C491.606 76.5137 488.44 73.8185 489.399 66.1983C491.684 62.472 492.851 58.4293 492.899 54.0702C493.899 54.0702 494.899 54.0702 495.899 54.0702C496.815 59.2109 498.148 64.2643 499.899 69.2303C499.671 70.9559 499.337 72.6404 498.899 74.2837Z" fill="#F6C325"/>
<path fill-rule="evenodd" clip-rule="evenodd" d="M539.899 54.0701C542.323 53.7593 544.656 54.0962 546.899 55.0808C545.732 55.4177 544.566 55.7546 543.399 56.0915C541.718 55.982 540.551 55.3083 539.899 54.0701Z" fill="#BDA043"/>
<path fill-rule="evenodd" clip-rule="evenodd" d="M376.899 30.8246C376.576 37.4163 376.909 43.8172 377.899 50.0274C377.899 50.7013 377.899 51.375 377.899 52.0488C376.965 53.1278 376.631 54.4754 376.899 56.0915C384.566 56.0915 392.232 56.0915 399.899 56.0915C399.899 54.744 399.899 53.3963 399.899 52.0488C399.899 51.375 399.899 50.7013 399.899 50.0274C399.899 43.9634 399.899 37.8993 399.899 31.8353C399.899 31.1614 400.232 30.8246 400.899 30.8246C400.899 39.2469 400.899 47.6692 400.899 56.0915C401.899 56.0915 402.899 56.0915 403.899 56.0915C403.899 58.4497 403.899 60.808 403.899 63.1662C401.566 63.1662 399.232 63.1662 396.899 63.1662C396.899 61.1449 396.899 59.1235 396.899 57.1022C395.232 57.1022 393.566 57.1022 391.899 57.1022C391.899 59.1235 391.899 61.1449 391.899 63.1662C389.899 63.1662 387.899 63.1662 385.899 63.1662C385.899 62.4924 386.232 62.1556 386.899 62.1556C388.232 62.1556 389.566 62.1556 390.899 62.1556C390.899 60.808 390.899 59.4604 390.899 58.1129C389.134 57.1412 387.134 56.8043 384.899 57.1022C383.566 57.1022 382.232 57.1022 380.899 57.1022C380.899 59.1235 380.899 61.1449 380.899 63.1662C378.566 63.1662 376.232 63.1662 373.899 63.1662C375.199 52.2809 376.199 41.5004 376.899 30.8246Z" fill="#FDF4F1"/>
<path fill-rule="evenodd" clip-rule="evenodd" d="M377.899 52.0488C385.232 52.0488 392.566 52.0488 399.899 52.0488C399.899 53.3964 399.899 54.744 399.899 56.0915C392.232 56.0915 384.566 56.0915 376.899 56.0915C376.631 54.4755 376.965 53.1278 377.899 52.0488Z" fill="#F15E25"/>
<path fill-rule="evenodd" clip-rule="evenodd" d="M432.899 37.8994C433.232 37.8994 433.566 37.8994 433.899 37.8994C434.224 45.8348 433.891 53.5833 432.899 61.145C430.411 59.237 427.411 58.5632 423.899 59.1236C423.899 57.4391 423.899 55.7547 423.899 54.0702C426.899 54.0702 429.899 54.0702 432.899 54.0702C432.899 48.68 432.899 43.2897 432.899 37.8994Z" fill="#F99067"/>
<path fill-rule="evenodd" clip-rule="evenodd" d="M529.899 56.0916C528.566 56.4285 528.566 56.7654 529.899 57.1023C529.899 57.4391 529.899 57.7761 529.899 58.113C529.899 59.1236 529.899 60.1343 529.899 61.145C531.498 60.8743 532.831 61.2112 533.899 62.1557C533.232 62.1557 532.899 62.4925 532.899 63.1663C530.193 63.2423 527.526 63.5791 524.899 64.177C523.899 62.8295 522.899 62.8295 521.899 64.177C520.907 64.3505 520.241 64.0135 519.899 63.1663C520.566 63.1663 520.899 62.8295 520.899 62.1557C523.232 62.1557 525.566 62.1557 527.899 62.1557C527.899 58.7868 527.899 55.4178 527.899 52.0489C525.12 51.8251 522.453 52.1621 519.899 53.0596C519.899 52.7227 519.899 52.3858 519.899 52.0489C520.01 51.4249 520.343 50.9196 520.899 50.5329C526.532 48.5226 529.532 50.3754 529.899 56.0916Z" fill="#908557"/>
<path fill-rule="evenodd" clip-rule="evenodd" d="M46.8995 58.1129C57.5714 57.9446 68.238 58.1131 78.8995 58.6182C68.0583 58.7896 57.3916 59.295 46.8995 60.1342C46.5662 60.1342 46.2328 60.1342 45.8995 60.1342C45.7279 59.132 46.0613 58.4582 46.8995 58.1129Z" fill="#FDFDFD"/>
<path fill-rule="evenodd" clip-rule="evenodd" d="M519.899 52.0488C519.899 52.3857 519.899 52.7226 519.899 53.0595C519.589 56.3069 519.922 59.3389 520.899 62.1556C520.899 62.8294 520.566 63.1663 519.899 63.1663C518.566 63.1663 517.232 63.1663 515.899 63.1663C515.295 67.4617 514.628 71.1675 513.899 74.2837C513.899 70.241 513.899 66.1983 513.899 62.1556C515.566 62.1556 517.232 62.1556 518.899 62.1556C518.899 60.4711 518.899 58.7867 518.899 57.1022C515.566 57.1022 512.232 57.1022 508.899 57.1022C508.899 62.8294 508.899 68.5565 508.899 74.2837C507.899 68.9895 507.566 62.9254 507.899 56.0915C511.566 56.0915 515.232 56.0915 518.899 56.0915C518.631 54.4755 518.965 53.1278 519.899 52.0488Z" fill="#727365"/>
<path fill-rule="evenodd" clip-rule="evenodd" d="M384.899 57.1023C387.134 56.8044 389.134 57.1413 390.899 58.1129C389.566 58.1129 388.232 58.1129 386.899 58.1129C386.899 59.4605 386.899 60.8081 386.899 62.1556C386.232 62.1556 385.899 62.4925 385.899 63.1663C384.938 61.3829 384.604 59.3615 384.899 57.1023Z" fill="#FABCA5"/>
<path fill-rule="evenodd" clip-rule="evenodd" d="M397.899 57.1022C399.566 57.1022 401.232 57.1022 402.899 57.1022C402.899 58.7867 402.899 60.4711 402.899 62.1556C401.232 62.1556 399.566 62.1556 397.899 62.1556C397.899 60.4711 397.899 58.7867 397.899 57.1022Z" fill="#F58458"/>
<path fill-rule="evenodd" clip-rule="evenodd" d="M513.899 74.2837C512.232 74.2837 510.566 74.2837 508.899 74.2837C508.899 68.5565 508.899 62.8294 508.899 57.1022C512.232 57.1022 515.566 57.1022 518.899 57.1022C518.899 58.7867 518.899 60.4711 518.899 62.1556C517.232 62.1556 515.566 62.1556 513.899 62.1556C513.899 66.1983 513.899 70.241 513.899 74.2837Z" fill="#F3C027"/>
<path fill-rule="evenodd" clip-rule="evenodd" d="M529.899 58.1129C537.899 58.1129 545.899 58.1129 553.899 58.1129C553.899 63.5032 553.899 68.8935 553.899 74.2837C547.232 74.2837 540.566 74.2837 533.899 74.2837C533.899 70.241 533.899 66.1983 533.899 62.1556C532.831 61.2111 531.498 60.8743 529.899 61.1449C529.899 60.1343 529.899 59.1236 529.899 58.1129Z" fill="#F9C423"/>
<path fill-rule="evenodd" clip-rule="evenodd" d="M529.899 58.1128C529.899 57.776 529.899 57.439 529.899 57.1022C538.232 57.1022 546.566 57.1022 554.899 57.1022C555.221 63.0227 554.888 68.7499 553.899 74.2837C553.899 68.8934 553.899 63.5031 553.899 58.1128C545.899 58.1128 537.899 58.1128 529.899 58.1128Z" fill="#CFAB37"/>
<path fill-rule="evenodd" clip-rule="evenodd" d="M390.899 58.1129C390.899 59.4605 390.899 60.8081 390.899 62.1556C389.566 62.1556 388.232 62.1556 386.899 62.1556C386.899 60.8081 386.899 59.4605 386.899 58.1129C388.232 58.1129 389.566 58.1129 390.899 58.1129Z" fill="#F2612A"/>
<path fill-rule="evenodd" clip-rule="evenodd" d="M374.899 57.1022C376.566 57.1022 378.232 57.1022 379.899 57.1022C379.899 58.7867 379.899 60.4711 379.899 62.1556C378.232 62.1556 376.566 62.1556 374.899 62.1556C374.899 60.4711 374.899 58.7867 374.899 57.1022Z" fill="#F58255"/>
<path fill-rule="evenodd" clip-rule="evenodd" d="M434.899 36.8887C434.899 45.3109 434.899 53.7333 434.899 62.1556C425.812 62.4915 417.479 62.1547 409.899 61.1449C417.566 61.1449 425.232 61.1449 432.899 61.1449C433.891 53.5832 434.224 45.8348 433.899 37.8993C433.899 37.2255 434.232 36.8887 434.899 36.8887Z" fill="#FDF4F0"/>
<path fill-rule="evenodd" clip-rule="evenodd" d="M147.9 48.0061C148.804 48.7227 149.137 49.7333 148.9 51.0381C152.849 51.2334 152.849 51.7387 148.9 52.5541C152.849 53.3696 152.849 53.8749 148.9 54.0702C148.9 55.4177 148.9 56.7653 148.9 58.1129C152.264 57.3946 154.597 58.5737 155.9 61.6502C160.221 62.1546 164.554 62.323 168.9 62.1556C168.9 58.7867 168.9 55.4177 168.9 52.0488C175.9 52.0488 182.9 52.0488 189.9 52.0488C189.9 54.0702 189.9 56.0915 189.9 58.1129C192.888 57.7639 194.221 59.1114 193.9 62.1556C192.524 66.6266 190.857 71.0062 188.9 75.2944C191.507 76.1215 194.174 76.6268 196.9 76.8104C198.096 77.4717 198.096 77.977 196.9 78.3264C177.9 76.9789 158.9 76.9789 139.9 78.3264C138.704 77.977 138.704 77.4717 139.9 76.8104C142.3 76.6226 144.634 76.1173 146.9 75.2944C145.386 70.1806 143.719 65.1273 141.9 60.1342C143.423 58.3327 145.423 57.6589 147.9 58.1129C147.438 54.6401 147.438 51.2712 147.9 48.0061Z" fill="#D6EBF7"/>
<path fill-rule="evenodd" clip-rule="evenodd" d="M143.9 59.1236C146.918 58.9573 149.918 59.1257 152.9 59.629C153.657 61.1573 154.657 62.5049 155.9 63.6717C164.9 64.3455 173.9 64.3455 182.9 63.6717C183.78 62.3011 184.114 60.7851 183.9 59.1236C186.567 59.1236 189.233 59.1236 191.9 59.1236C191.838 65.1518 190.172 70.7105 186.9 75.7998C174.233 76.4736 161.567 76.4736 148.9 75.7998C146.933 70.341 145.267 64.7823 143.9 59.1236Z" fill="#3AA3E0"/>
<path fill-rule="evenodd" clip-rule="evenodd" d="M169.9 54.0702C176.233 54.0702 182.567 54.0702 188.9 54.0702C188.9 55.4177 188.9 56.7654 188.9 58.1129C186.9 58.1129 184.9 58.1129 182.9 58.1129C182.9 59.4604 182.9 60.8081 182.9 62.1556C178.567 62.1556 174.233 62.1556 169.9 62.1556C169.9 59.4604 169.9 56.7654 169.9 54.0702Z" fill="#3FA4E1"/>
<path fill-rule="evenodd" clip-rule="evenodd" d="M37.8995 62.1556C42.558 61.6651 43.8914 63.518 41.8995 67.7144C37.1277 68.5334 35.7943 66.6805 37.8995 62.1556Z" fill="#2463B6"/>
<path fill-rule="evenodd" clip-rule="evenodd" d="M45.8995 60.1343C46.2328 60.1343 46.5662 60.1343 46.8995 60.1343C48.6954 61.4408 50.362 62.9568 51.8995 64.6823C63.9134 64.8515 75.9134 65.3568 87.8995 66.1983C85.1489 66.7198 82.8156 67.899 80.8995 69.7357C83.1073 69.9286 85.1073 70.434 86.8995 71.2517C84.1207 71.4755 81.454 71.1385 78.8995 70.241C80.3048 68.2676 79.6381 67.2569 76.8995 67.209C74.1609 67.2569 73.4942 68.2676 74.8995 70.241C72.2328 71.5886 69.5662 71.5886 66.8995 70.241C68.3048 68.2676 67.6381 67.2569 64.8995 67.209C62.1609 67.2569 61.4942 68.2676 62.8995 70.241C53.8005 70.8893 44.8005 71.5631 35.8995 72.2624C35.3564 72.2018 35.0231 71.8649 34.8995 71.2517C36.0011 70.5688 37.0011 69.8951 37.8995 69.2304C39.2328 70.5779 40.5662 70.5779 41.8995 69.2304C48.0524 70.396 54.3858 70.5645 60.8995 69.7357C54.6909 68.6115 49.6909 65.411 45.8995 60.1343Z" fill="#B0C6E4"/>
<path fill-rule="evenodd" clip-rule="evenodd" d="M66.8995 70.241C65.5662 70.241 64.2328 70.241 62.8995 70.241C61.4942 68.2676 62.1609 67.2569 64.8995 67.209C67.6381 67.2569 68.3048 68.2676 66.8995 70.241Z" fill="#2562B6"/>
<path fill-rule="evenodd" clip-rule="evenodd" d="M78.8995 70.241C77.5662 70.241 76.2328 70.241 74.8995 70.241C73.4942 68.2676 74.1609 67.2569 76.8995 67.209C79.6381 67.2569 80.3048 68.2676 78.8995 70.241Z" fill="#2864B7"/>
<path fill-rule="evenodd" clip-rule="evenodd" d="M18.8995 39.9208C23.2328 39.9208 27.5662 39.9208 31.8995 39.9208C31.8995 48.0062 31.8995 56.0916 31.8995 64.177C30.8995 64.177 29.8995 64.177 28.8995 64.177C27.978 70.0314 25.1447 71.3789 20.3995 68.2197C19.9095 66.9127 19.7428 65.5651 19.8995 64.177C17.5662 64.177 15.2328 64.177 12.8995 64.177C11.8328 55.2892 13.8328 47.2038 18.8995 39.9208Z" fill="#CBD9ED"/>
<path fill-rule="evenodd" clip-rule="evenodd" d="M21.8995 62.1556C23.6875 61.8673 25.3542 62.2042 26.8995 63.1663C27.7848 67.1511 26.1181 68.6671 21.8995 67.7143C20.647 65.867 20.647 64.014 21.8995 62.1556Z" fill="#2B66B8"/>
<path fill-rule="evenodd" clip-rule="evenodd" d="M18.8995 41.942C22.5662 41.942 26.2328 41.942 29.8995 41.942C30.0658 49.0247 29.8991 56.0995 29.3995 63.1662C26.3841 59.3866 23.2175 59.2181 19.8995 62.6609C17.9268 63.1617 15.9268 63.3301 13.8995 63.1662C13.7345 59.7806 13.9012 56.4117 14.3995 53.0595C16.465 49.562 17.965 45.8562 18.8995 41.942Z" fill="#2764B7"/>
<path fill-rule="evenodd" clip-rule="evenodd" d="M69.8995 67.209C74.1735 69.6924 73.8402 70.5347 68.8995 69.7357C69.6519 69.0577 69.9853 68.2155 69.8995 67.209Z" fill="#1D5FB4"/>
<path fill-rule="evenodd" clip-rule="evenodd" d="M62.8995 70.241C64.2328 70.241 65.5662 70.241 66.8995 70.241C69.5662 71.5885 72.2328 71.5885 74.8995 70.241C76.2328 70.241 77.5662 70.241 78.8995 70.241C81.454 71.1384 84.1207 71.4754 86.8995 71.2516C70.0744 72.2589 53.0744 72.5957 35.8995 72.2623C44.8005 71.563 53.8005 70.8892 62.8995 70.241Z" fill="#E0E9F3"/>
<path fill-rule="evenodd" clip-rule="evenodd" d="M268.9 39.9207C264.004 41.8876 258.671 42.5614 252.9 41.9421C252.9 51.712 252.9 61.4818 252.9 71.2517C254.567 71.2517 256.233 71.2517 257.9 71.2517C257.9 65.8614 257.9 60.4711 257.9 55.0809C268.572 54.9126 279.239 55.0811 289.9 55.5862C286.248 56.0901 282.582 56.2586 278.9 56.0915C278.9 57.1022 278.9 58.1129 278.9 59.1236C282.771 58.8052 286.438 59.1422 289.9 60.1342C285.567 60.1342 281.233 60.1342 276.9 60.1342C276.9 63.8401 276.9 67.5458 276.9 71.2517C291.233 71.2517 305.567 71.2517 319.9 71.2517C319.9 61.4818 319.9 51.712 319.9 41.9421C314.856 42.2731 309.856 41.9361 304.9 40.9314C309.867 39.7567 314.867 39.5883 319.9 40.426C320.4 40.9314 320.9 41.4367 321.4 41.9421C322.067 51.375 322.067 60.8081 321.4 70.241C320.9 71.4202 320.067 72.2624 318.9 72.7677C296.9 73.4415 274.9 73.4415 252.9 72.7677C252.274 72.0093 251.774 71.167 251.4 70.241C250.733 60.8081 250.733 51.375 251.4 41.9421C251.9 41.4367 252.4 40.9314 252.9 40.426C258.223 39.9213 263.556 39.7529 268.9 39.9207Z" fill="#C9EBD5"/>
<path fill-rule="evenodd" clip-rule="evenodd" d="M259.899 61.1449C264.899 61.1449 269.899 61.1449 274.899 61.1449C274.899 64.5138 274.899 67.8828 274.899 71.2517C269.899 71.2517 264.899 71.2517 259.899 71.2517C259.899 67.8828 259.899 64.5138 259.899 61.1449Z" fill="#34B664"/>
<path fill-rule="evenodd" clip-rule="evenodd" d="M317.899 55.0808C318.85 56.5147 319.183 58.1991 318.899 60.1342C309.899 60.1342 300.899 60.1342 291.899 60.1342C291.899 58.4497 291.899 56.7653 291.899 55.0808C300.566 55.0808 309.232 55.0808 317.899 55.0808Z" fill="#DFF3E6"/>
<path fill-rule="evenodd" clip-rule="evenodd" d="M306.899 56.0916C310.232 56.0916 313.566 56.0916 316.899 56.0916C316.899 57.1022 316.899 58.1129 316.899 59.1236C313.566 59.1236 310.232 59.1236 306.899 59.1236C306.899 58.1129 306.899 57.1022 306.899 56.0916Z" fill="#4BBC73"/>
<path fill-rule="evenodd" clip-rule="evenodd" d="M292.899 56.0916C296.232 56.0916 299.566 56.0916 302.899 56.0916C302.899 57.1022 302.899 58.1129 302.899 59.1236C299.566 59.1236 296.232 59.1236 292.899 59.1236C292.899 58.1129 292.899 57.1022 292.899 56.0916Z" fill="#4BBC72"/>
<path fill-rule="evenodd" clip-rule="evenodd" d="M259.899 56.0916C264.899 56.0916 269.899 56.0916 274.899 56.0916C274.899 57.4391 274.899 58.7867 274.899 60.1343C269.899 60.1343 264.899 60.1343 259.899 60.1343C259.899 58.7867 259.899 57.4391 259.899 56.0916Z" fill="#44BB6F"/>
<path fill-rule="evenodd" clip-rule="evenodd" d="M257.9 55.0808C277.9 53.7333 297.9 53.7333 317.9 55.0808C309.233 55.0808 300.567 55.0808 291.9 55.0808C291.9 56.7653 291.9 58.4497 291.9 60.1342C291.233 60.1342 290.567 60.1342 289.9 60.1342C286.438 59.1421 282.771 58.8052 278.9 59.1235C278.9 58.1129 278.9 57.1022 278.9 56.0915C282.582 56.2586 286.248 56.0901 289.9 55.5862C279.239 55.081 268.572 54.9126 257.9 55.0808Z" fill="#5CC381"/>
<path fill-rule="evenodd" clip-rule="evenodd" d="M521.899 64.1769C522.899 62.8294 523.899 62.8294 524.899 64.1769C524.899 65.1876 524.899 66.1983 524.899 67.2089C531.566 67.5458 531.566 67.8828 524.899 68.2196C524.899 69.9041 524.899 71.5885 524.899 73.273C526.232 73.273 527.566 73.273 528.899 73.273C529.137 76.9107 528.137 77.2477 525.899 74.2837C525.207 74.8146 524.707 75.4883 524.399 76.305C523.066 73.6099 521.732 73.6099 520.399 76.305C519.916 75.3469 519.75 74.3362 519.899 73.273C521.232 73.273 522.566 73.273 523.899 73.273C523.899 71.5885 523.899 69.9041 523.899 68.2196C517.232 67.8828 517.232 67.5458 523.899 67.2089C524.114 65.5122 523.447 64.5015 521.899 64.1769Z" fill="#707266"/>
<path fill-rule="evenodd" clip-rule="evenodd" d="M507.899 56.0916C507.566 62.9254 507.899 68.9895 508.899 74.2837C510.566 74.2837 512.232 74.2837 513.899 74.2837C514.628 71.1675 515.295 67.4618 515.899 63.1663C515.899 67.5459 515.899 71.9255 515.899 76.3051C512.899 76.3051 509.899 76.3051 506.899 76.3051C506.575 69.3776 506.908 62.6397 507.899 56.0916Z" fill="#A5924E"/>
<path fill-rule="evenodd" clip-rule="evenodd" d="M394.899 66.1984C403.232 66.1984 411.566 66.1984 419.899 66.1984C419.899 71.2517 419.899 76.3051 419.899 81.3585C411.566 81.3585 403.232 81.3585 394.899 81.3585C394.899 76.3051 394.899 71.2517 394.899 66.1984Z" fill="#FBD1C2"/>
<path fill-rule="evenodd" clip-rule="evenodd" d="M396.899 70.241C400.496 72.3579 400.663 74.7161 397.399 77.3157C396.902 74.9812 396.736 72.6229 396.899 70.241Z" fill="#F15E25"/>
<path fill-rule="evenodd" clip-rule="evenodd" d="M397.899 67.209C404.566 67.209 411.232 67.209 417.899 67.209C417.899 71.2517 417.899 75.2944 417.899 79.3371C411.224 79.5052 404.557 79.3367 397.899 78.8318C399.612 77.4388 400.946 75.7545 401.899 73.7784C400.314 71.687 398.98 69.4972 397.899 67.209Z" fill="#F15C22"/>
</svg>
