<svg width="39" height="39" viewBox="0 0 39 39" fill="none" xmlns="http://www.w3.org/2000/svg">
<path d="M33.3687 16.1191C33.3687 17.824 34.2998 19.353 35.4799 20.5833V20.5833C36.0981 21.2278 36.6309 21.9343 37.0781 22.7027C37.5253 23.4712 37.8542 24.283 38.0646 25.1382C38.2751 25.9934 38.3935 26.8672 38.4198 27.7596C38.4198 29.2346 38.1238 30.6228 37.5319 31.9242C36.94 33.2256 36.1245 34.3597 35.0853 35.3264C34.0461 36.2932 32.8426 37.0555 31.4746 37.6132C30.1066 38.1709 28.6333 38.456 27.0549 38.4684C25.8579 38.4684 24.7003 38.3011 23.5823 37.9664C22.4642 37.6318 21.4382 37.1484 20.5043 36.5163C19.5703 35.8842 18.7417 35.1281 18.0182 34.2481V34.2481C16.7273 32.6779 14.9917 31.3292 12.9589 31.3292H9.85469C4.70853 31.3292 0.536743 27.1574 0.536743 22.0113V5.29806C0.536743 3.90324 1.66746 2.77252 3.06228 2.77252H4.39795C5.0551 2.77252 5.58782 2.2398 5.58782 1.58265V1.58265C5.58782 0.925512 6.12054 0.392792 6.77768 0.392792H6.92349C7.58063 0.392792 8.11335 0.925512 8.11335 1.58265V1.58265C8.11335 2.2398 8.64607 2.77252 9.30322 2.77252H24.6023C25.2594 2.77252 25.7921 2.2398 25.7921 1.58265V1.58265C25.7921 0.925512 26.3248 0.392792 26.982 0.392792H27.1278C27.7849 0.392792 28.3177 0.925512 28.3177 1.58265V1.58265C28.3177 2.2398 28.8504 2.77252 29.5075 2.77252H30.8432C32.238 2.77252 33.3687 3.90324 33.3687 5.29805V16.1191ZM4.32505 5.15224C3.62764 5.15224 3.06228 5.71761 3.06228 6.41501V7.53197C3.06228 8.84626 4.12772 9.9117 5.44201 9.9117H28.4635C29.7777 9.9117 30.8432 8.84626 30.8432 7.53197V6.41501C30.8432 5.7176 30.2778 5.15224 29.5804 5.15224H29.5075C28.8504 5.15224 28.3177 5.68496 28.3177 6.34211V6.34211C28.3177 6.99925 27.7849 7.53197 27.1278 7.53197H26.982C26.3248 7.53197 25.7921 6.99925 25.7921 6.34211V6.34211C25.7921 5.68496 25.2594 5.15224 24.6023 5.15224H9.30322C8.64607 5.15224 8.11335 5.68496 8.11335 6.34211V6.34211C8.11335 6.99925 7.58063 7.53197 6.92349 7.53197H6.77768C6.12054 7.53197 5.58782 6.99925 5.58782 6.34211V6.34211C5.58782 5.68496 5.0551 5.15224 4.39795 5.15224H4.32505ZM14.5573 28.9495C15.1949 28.9495 15.69 28.3972 15.69 27.7596V27.7596C15.69 26.2847 15.9859 24.8965 16.5779 23.5951C17.1698 22.2937 17.9853 21.1596 19.0245 20.1929C20.0636 19.2261 21.2672 18.4638 22.6352 17.9061C24.0032 17.3483 25.4764 17.0633 27.0549 17.0509C27.2988 17.0509 27.5409 17.0579 27.7811 17.072C29.3146 17.1617 30.8432 16.0723 30.8432 14.5362V14.5362C30.8432 13.2964 29.8382 12.2914 28.5984 12.2914H11.3913C6.79133 12.2914 3.06228 16.0205 3.06228 20.6205V22.931C3.06228 26.2549 5.75688 28.9495 9.08083 28.9495H14.5573ZM27.0549 36.0887C28.2782 36.0887 29.4226 35.8718 30.488 35.438C31.5535 35.0042 32.4874 34.4092 33.2898 33.6532C34.0922 32.8971 34.7236 32.0171 35.184 31.0132C35.6443 30.0092 35.8811 28.9247 35.8943 27.7596C35.8943 26.607 35.6641 25.5287 35.2037 24.5247C34.7433 23.5208 34.1119 22.6408 33.3095 21.8847C32.5071 21.1286 31.5732 20.5337 30.5078 20.0999C29.4423 19.6661 28.2913 19.443 27.0549 19.4306C25.8316 19.4306 24.6872 19.6475 23.6217 20.0813C22.5563 20.5151 21.6223 21.11 20.82 21.8661C20.0176 22.6222 19.3862 23.5022 18.9258 24.5061C18.4654 25.5101 18.2287 26.5946 18.2155 27.7596C18.2155 28.9123 18.4457 29.9906 18.9061 30.9946C19.3665 31.9985 19.9978 32.8785 20.8002 33.6346C21.6026 34.3907 22.5365 34.9856 23.602 35.4194C24.6675 35.8532 25.8184 36.0763 27.0549 36.0887ZM28.3177 24.6756C28.3177 25.7217 29.1657 26.5698 30.2118 26.5698H30.9161C31.5732 26.5698 32.106 27.1025 32.106 27.7596V27.7596C32.106 28.4168 31.5732 28.9495 30.9161 28.9495H28.949C27.2055 28.9495 25.7921 27.5361 25.7921 25.7926V23.0731C25.7921 22.3757 26.3575 21.8103 27.0549 21.8103V21.8103C27.7523 21.8103 28.3177 22.3757 28.3177 23.0731V24.6756Z" fill="white"/>
</svg>
