<svg width="46" height="34" viewBox="0 0 46 34" fill="none" xmlns="http://www.w3.org/2000/svg">
<path d="M7.26664 4.9929C7.26664 3.43419 7.26664 1.87548 7.26664 0.276674C10.013 0.276674 12.7593 0.276674 15.5749 0.276674C15.5749 0.424891 15.5749 0.585258 15.5749 0.745624C15.5749 2.30676 15.5736 3.86669 15.5761 5.42783C15.5773 6.09724 15.7675 6.28312 16.4578 6.28433C18.152 6.28676 19.8463 6.28676 21.5405 6.28433C22.1851 6.28312 22.3901 6.08023 22.3926 5.4339C22.3975 3.88856 22.3938 2.34321 22.3938 0.796649C22.3938 0.632638 22.3938 0.467412 22.3938 0.270599C25.1772 0.270599 27.9248 0.270599 30.7008 0.270599C30.7008 7.95238 30.7008 15.6244 30.7008 23.322C22.8902 23.322 15.1044 23.322 7.27034 23.322C7.27034 21.7487 7.27034 20.1815 7.27034 18.6143L7.25305 18.635C7.32838 18.6459 7.40371 18.6665 7.48027 18.6665C9.42025 18.669 11.3602 18.669 13.3002 18.6678C13.3768 18.6678 13.4546 18.6629 13.5299 18.652C13.888 18.5973 14.0844 18.375 14.0856 18.0336C14.0868 17.6898 13.8831 17.4687 13.5287 17.4164C13.378 17.3945 13.2224 17.3958 13.0681 17.3958C11.3133 17.3945 9.55732 17.3958 7.80257 17.3933C7.61981 17.3933 7.43828 17.3642 7.25552 17.3496L7.2654 17.3569C7.26664 15.7156 7.26911 14.073 7.27034 12.4317L7.25305 12.4511C7.4531 12.4596 7.65192 12.4754 7.85196 12.4754C12.3642 12.4767 16.8764 12.4767 21.3886 12.4767C21.5479 12.4767 21.7085 12.4767 22.0024 12.4767C21.138 13.3247 20.3748 14.0682 19.6178 14.8178C19.2338 15.198 19.2029 15.5564 19.5116 15.8456C19.7932 16.1092 20.1698 16.0703 20.5255 15.7216C21.6504 14.6209 22.7717 13.5178 23.8905 12.411C24.3091 11.9968 24.3116 11.6967 23.8942 11.2836C22.7766 10.1756 21.6541 9.07373 20.5292 7.97304C20.1488 7.60128 19.7685 7.56848 19.4832 7.86734C19.2054 8.1577 19.2449 8.49787 19.6129 8.86234C20.2958 9.54025 20.9848 10.2121 21.669 10.8888C21.748 10.9665 21.8097 11.0601 21.9122 11.1852C21.7406 11.1937 21.6344 11.2047 21.5282 11.2047C16.8925 11.2059 12.2568 11.2059 7.62228 11.2034C7.50126 11.2034 7.37901 11.1804 7.25799 11.1682L7.26911 11.1767C7.27034 9.53539 7.27157 7.89407 7.27404 6.25274L7.25676 6.27097C8.9189 6.27461 10.581 6.27826 12.2419 6.28069C12.6569 6.2819 13.073 6.28919 13.4879 6.27218C13.8497 6.2576 14.0584 6.03528 14.0868 5.69632C14.1152 5.35008 13.9201 5.11803 13.5768 5.04028C13.4151 5.00383 13.241 5.00991 13.073 5.00869C11.1343 4.99897 9.19674 4.99168 7.25799 4.98439L7.26664 4.9929Z" fill="white"/>
<path d="M45.3637 29.6504C44.4857 29.6504 43.6448 29.6504 42.7594 29.6504C42.6692 28.0783 42.0382 26.7796 40.7391 25.8454C39.8389 25.1978 38.8177 24.9038 37.7013 24.9682C35.1377 25.1164 33.5089 26.759 33.094 29.637C32.7581 29.637 32.4161 29.637 32.0493 29.637C32.0493 23.6452 32.0493 17.6679 32.0493 11.6177C32.1926 11.6177 32.3383 11.6177 32.4852 11.6177C35.0871 11.6177 37.689 11.6226 40.2909 11.6104C40.5872 11.6092 40.7589 11.6943 40.9206 11.9433C42.3309 14.1095 43.7596 16.2647 45.1735 18.4296C45.2834 18.5985 45.3798 18.8148 45.381 19.0091C45.3934 22.4631 45.3896 25.9158 45.3884 29.3698C45.3872 29.4439 45.3748 29.518 45.3637 29.6504ZM33.8164 13.1436C33.8164 14.723 33.8164 16.2574 33.8164 17.7955C36.8332 17.7955 39.8216 17.7955 42.8779 17.7955C41.8653 16.2586 40.8935 14.7728 39.9006 13.3003C39.8315 13.1983 39.6129 13.1521 39.4623 13.1509C38.2768 13.1388 37.0913 13.1448 35.9058 13.1436C35.2168 13.1436 34.5277 13.1436 33.8164 13.1436Z" fill="white"/>
<path d="M30.7107 24.6487C30.7107 26.335 30.7107 27.9666 30.7107 29.637C26.9765 29.637 23.262 29.637 19.508 29.637C19.4376 28.1306 18.8424 26.8792 17.6334 25.9438C16.7678 25.2744 15.7712 24.95 14.6734 24.956C13.3669 24.9646 12.2407 25.4262 11.3072 26.3265C10.5428 27.0627 10.3526 27.5013 9.83519 29.6346C9.76851 29.6468 9.69442 29.6698 9.62032 29.6711C8.851 29.6735 8.08291 29.6723 7.27777 29.6723C7.27777 27.9884 7.27777 26.3325 7.27777 24.6487C15.0822 24.6487 22.8804 24.6487 30.7107 24.6487Z" fill="white"/>
<path d="M34.4264 29.6626C34.4326 27.76 35.9873 26.2305 37.9236 26.2256C39.866 26.2208 41.459 27.7868 41.4491 29.6929C41.4393 31.5845 39.8697 33.1214 37.9396 33.1274C35.9836 33.1335 34.4202 31.5918 34.4264 29.6626ZM39.9833 29.7014C39.992 28.5837 39.0856 27.6677 37.9544 27.6507C36.827 27.6337 35.8947 28.5364 35.8823 29.6565C35.87 30.7778 36.7727 31.6914 37.9087 31.7084C39.0275 31.7255 39.9747 30.8094 39.9833 29.7014Z" fill="white"/>
<path d="M18.1953 29.6747C18.1978 31.5991 16.6258 33.1396 14.671 33.1275C12.7396 33.1153 11.1775 31.5736 11.1763 29.6808C11.175 27.7734 12.7754 26.2086 14.7117 26.2244C16.6505 26.2414 18.1928 27.7686 18.1953 29.6747ZM12.631 29.6176C12.5939 30.7183 13.4966 31.6623 14.6302 31.706C15.7404 31.7498 16.7036 30.8568 16.7517 29.7379C16.7986 28.6494 15.8836 27.692 14.7525 27.6495C13.6398 27.6082 12.668 28.5096 12.631 29.6176Z" fill="white"/>
<path d="M16.8937 4.97954C16.8937 3.39046 16.8937 1.83782 16.8937 0.265747C18.2941 0.265747 19.6697 0.265747 21.0725 0.265747C21.0725 1.8439 21.0725 3.39532 21.0725 4.97954C19.6796 4.97954 18.304 4.97954 16.8937 4.97954Z" fill="white"/>
<path d="M7.27034 6.25153C5.176 6.26003 3.08165 6.27218 0.988544 6.27097C0.629196 6.27097 0.418032 6.04864 0.3921 5.69875C0.364933 5.34765 0.548929 5.11682 0.894693 5.03785C1.05646 5.0014 1.23058 5.00748 1.39976 5.00626C3.35579 5.00019 5.31183 4.99654 7.26787 4.99168L7.25552 4.98196C7.25552 5.41082 7.25429 5.83847 7.25429 6.26732L7.27034 6.25153Z" fill="white"/>
<path d="M7.27035 12.4329C6.93446 12.4475 6.59857 12.4742 6.26269 12.4754C4.63513 12.4803 3.00633 12.4779 1.37877 12.4767C1.22564 12.4767 1.07005 12.4803 0.919394 12.4572C0.583509 12.4074 0.403218 12.1948 0.389634 11.8704C0.37605 11.546 0.540288 11.3164 0.868765 11.2423C1.03053 11.2059 1.20342 11.2059 1.37136 11.2059C3.15328 11.2034 4.93397 11.2047 6.71589 11.2034C6.89988 11.2034 7.08264 11.1852 7.26664 11.1755L7.25553 11.167C7.25429 11.5959 7.25429 12.0235 7.25306 12.4524L7.27035 12.4329Z" fill="white"/>
<path d="M7.27033 18.6155C7.13572 18.6337 6.99989 18.6678 6.86529 18.669C4.99075 18.6726 3.11745 18.6714 1.24291 18.6702C1.13548 18.6702 1.02681 18.6678 0.921845 18.6507C0.587194 18.5961 0.403198 18.3895 0.390849 18.0639C0.378501 17.7165 0.560027 17.4881 0.913201 17.4249C1.07744 17.3958 1.24909 17.3994 1.41826 17.3994C3.18537 17.3982 4.95123 17.3994 6.71834 17.397C6.9011 17.397 7.08386 17.3727 7.26662 17.3593L7.25674 17.352C7.25551 17.7809 7.25551 18.2085 7.25427 18.6374L7.27033 18.6155Z" fill="white"/>
<path d="M38.688 29.6686C38.6929 30.0744 38.3496 30.4243 37.9409 30.4304C37.5272 30.4365 37.1839 30.1024 37.1789 29.6869C37.174 29.2714 37.5062 28.93 37.9211 28.9251C38.3299 28.9203 38.683 29.2629 38.688 29.6686Z" fill="white"/>
<path d="M13.9263 29.6832C13.9238 29.2847 14.2807 28.9288 14.687 28.9263C15.0932 28.9239 15.4538 29.2738 15.4563 29.6747C15.4588 30.0744 15.1019 30.4304 14.6968 30.4328C14.2918 30.4352 13.9288 30.0817 13.9263 29.6832Z" fill="white"/>
</svg>
