<svg width="184" height="60" viewBox="0 0 184 60" fill="none" xmlns="http://www.w3.org/2000/svg">
<rect x="0.952881" y="0.804993" width="182.078" height="40.0055" fill="#D9D9D9"/>
<g clip-path="url(#clip0_432_1956)">
<path fill-rule="evenodd" clip-rule="evenodd" d="M3.35132 3.62018C11.0903 3.62018 18.8292 3.62018 26.5682 3.62018C26.5682 5.87865 26.5682 8.13711 26.5682 10.3956C21.1696 10.3956 15.7711 10.3956 10.3726 10.3956C10.3726 12.7869 10.3726 15.1782 10.3726 17.5695C15.147 17.5695 19.9214 17.5695 24.6959 17.5695C24.6959 19.7284 24.6959 21.8872 24.6959 24.046C19.9214 24.046 15.147 24.046 10.3726 24.046C10.3726 28.729 10.3726 33.412 10.3726 38.095C8.03215 38.095 5.69173 38.095 3.35132 38.095C3.35132 26.6034 3.35132 15.1118 3.35132 3.62018Z" fill="#FEFFFE"/>
<path fill-rule="evenodd" clip-rule="evenodd" d="M28.0791 3.62018C36.5739 3.62018 45.0688 3.62018 53.5636 3.62018C53.5636 5.87865 53.5636 8.13711 53.5636 10.3956C47.5871 10.3956 41.6104 10.3956 35.6338 10.3956C35.6338 12.4216 35.6338 14.4476 35.6338 16.4735C40.771 16.4735 45.9082 16.4735 51.0454 16.4735C51.0454 18.5659 51.0454 20.6583 51.0454 22.7507C45.9082 22.7507 40.771 22.7507 35.6338 22.7507C35.6338 25.4741 35.6338 28.1976 35.6338 30.9211C41.6104 30.9211 47.5871 30.9211 53.5636 30.9211C53.5636 33.3124 53.5636 35.7037 53.5636 38.095C45.0688 38.095 36.5739 38.095 28.0791 38.095C28.0791 26.6034 28.0791 15.1118 28.0791 3.62018Z" fill="#FEFFFE"/>
<path fill-rule="evenodd" clip-rule="evenodd" d="M56.1826 3.62018C62.5286 3.62018 68.8745 3.62018 75.2205 3.62018C79.0258 4.14565 81.7288 6.13842 83.3292 9.59847C84.799 14.2537 83.5735 18.0399 79.6526 20.9572C81.3477 21.9508 82.3718 23.4122 82.7248 25.3413C82.7752 29.5924 82.792 33.8436 82.7752 38.095C80.1892 38.0981 77.6038 38.0649 75.019 37.9954C75.0358 34.4747 75.019 30.9541 74.9686 27.4337C74.4863 25.5097 73.2607 24.3639 71.292 23.9962C68.8412 23.9464 66.3901 23.9297 63.9388 23.9464C63.9388 28.6294 63.9388 33.3124 63.9388 37.9954C61.3534 37.9954 58.768 37.9954 56.1826 37.9954C56.1826 26.537 56.1826 15.0786 56.1826 3.62018ZM63.9388 9.69811C66.9979 9.65302 70.0534 9.70283 73.1052 9.84757C75.1707 10.6284 76.0269 12.1063 75.6738 14.2815C75.254 15.6266 74.3643 16.5067 73.0044 16.9219C72.3874 17.0177 71.7662 17.0676 71.1409 17.0713C68.7411 16.9845 66.3404 16.9513 63.9388 16.9717C63.9388 14.5472 63.9388 12.1226 63.9388 9.69811Z" fill="#FEFFFE"/>
<path fill-rule="evenodd" clip-rule="evenodd" d="M98.489 3.62018C100.806 3.62018 103.123 3.62018 105.439 3.62018C110.758 4.54557 114.4 7.50151 116.368 12.488C116.675 13.297 116.96 14.1107 117.225 14.9291C114.504 15.0121 111.784 14.9956 109.066 14.8793C107.963 11.5636 105.646 9.83654 102.115 9.69811C99.014 9.72847 96.6804 11.057 95.1145 13.6836C92.9699 17.8514 92.7013 22.1359 94.3087 26.537C96.4498 30.9316 99.925 32.5093 104.734 31.2698C107.082 30.2244 108.527 28.4475 109.066 25.9391C111.752 25.9391 114.437 25.9391 117.124 25.9391C116.476 29.5774 114.798 32.6496 112.087 35.1557C110.133 36.5698 107.95 37.4666 105.54 37.8459C101.95 38.3657 98.4583 38.0005 95.0642 36.7499C89.9312 34.4251 86.8925 30.4894 85.9482 24.9428C84.9562 19.8027 85.7956 14.9869 88.4664 10.4952C90.87 6.85775 94.2108 4.56607 98.489 3.62018Z" fill="#FEFFFE"/>
<path fill-rule="evenodd" clip-rule="evenodd" d="M127.298 3.62018C130.319 3.62018 133.341 3.62018 136.363 3.62018C140.237 15.0504 144.132 26.4756 148.048 37.8957C145.295 37.9954 142.542 38.0286 139.788 37.9954C139.111 35.7197 138.372 33.4612 137.572 31.22C133.61 31.1203 129.649 31.0872 125.686 31.1203C124.968 33.3837 124.229 35.6421 123.47 37.8957C120.751 37.9954 118.031 38.0286 115.311 37.9954C119.287 26.5307 123.282 15.0723 127.298 3.62018ZM131.629 13.2851C133.042 17.0463 134.419 20.8326 135.759 24.6438C133.107 24.7601 130.454 24.7767 127.801 24.6937C129.128 20.9073 130.403 17.1044 131.629 13.2851Z" fill="#FEFFFE"/>
<path fill-rule="evenodd" clip-rule="evenodd" d="M149.156 3.62018C152.612 3.62018 156.067 3.62018 159.523 3.62018C161.393 11.4951 163.278 19.3665 165.178 27.2344C167.293 19.385 169.335 11.5136 171.304 3.62018C174.257 3.62018 177.21 3.62018 180.163 3.62018C180.163 15.0786 180.163 26.537 180.163 37.9954C178.215 37.9954 176.268 37.9954 174.32 37.9954C174.336 30.8546 174.32 23.7138 174.273 16.5732C172.419 23.6806 170.566 30.7882 168.712 37.8957C167.557 37.9617 166.395 37.9949 165.225 37.9954C164.041 37.9944 162.879 37.9279 161.738 37.7961C159.93 30.7174 158.108 23.6431 156.272 16.5732C156.224 23.7138 156.208 30.8546 156.224 37.9954C153.868 37.9954 151.512 37.9954 149.156 37.9954C149.156 26.537 149.156 15.0786 149.156 3.62018Z" fill="#FEFFFE"/>
<path fill-rule="evenodd" clip-rule="evenodd" d="M1.58728 44.7708C38.2192 44.7708 74.8511 44.7708 111.483 44.7708C111.483 48.7231 111.483 52.6754 111.483 56.6277C74.8511 56.6277 38.2192 56.6277 1.58728 56.6277C1.58728 52.6754 1.58728 48.7231 1.58728 44.7708Z" fill="#00479A"/>
<path fill-rule="evenodd" clip-rule="evenodd" d="M116.016 44.8704C118.702 44.8704 121.388 44.8704 124.074 44.8704C124.074 45.3354 124.074 45.8003 124.074 46.2654C122.966 46.2654 121.858 46.2654 120.75 46.2654C120.75 49.6862 120.75 53.1072 120.75 56.5281C120.28 56.5281 119.81 56.5281 119.34 56.5281C119.34 53.1072 119.34 49.6862 119.34 46.2654C118.232 46.2654 117.124 46.2654 116.016 46.2654C116.016 45.8003 116.016 45.3354 116.016 44.8704Z" fill="#00479A"/>
<path fill-rule="evenodd" clip-rule="evenodd" d="M182.296 48.557C182.296 49.022 182.296 49.4869 182.296 49.9519C181.994 49.9519 181.691 49.9519 181.389 49.9519C181.372 51.4801 181.389 53.0078 181.44 54.5353C181.563 54.9729 181.848 55.2055 182.296 55.2328C182.296 55.7309 182.296 56.2291 182.296 56.7273C181.222 56.753 180.467 56.2881 180.029 55.3324C179.883 53.5445 179.833 51.751 179.878 49.9519C179.408 49.9519 178.939 49.9519 178.468 49.9519C178.468 49.4869 178.468 49.022 178.468 48.557C178.939 48.557 179.408 48.557 179.878 48.557C179.878 47.7267 179.878 46.8963 179.878 46.066C180.382 46.066 180.886 46.066 181.389 46.066C181.389 46.8963 181.389 47.7267 181.389 48.557C181.691 48.557 181.994 48.557 182.296 48.557Z" fill="#00479A"/>
<path fill-rule="evenodd" clip-rule="evenodd" d="M132.435 48.2581C133.915 48.087 135.14 48.552 136.111 49.653C136.401 50.1116 136.568 50.6097 136.615 51.1476C136.665 52.9408 136.683 54.7343 136.665 56.5281C136.195 56.5281 135.726 56.5281 135.255 56.5281C135.383 55.3922 135.148 55.2759 134.55 56.1793C133.747 56.7929 132.841 56.9922 131.83 56.7772C130.039 56.2397 129.317 55.0607 129.665 53.24C130.325 51.9081 131.415 51.2771 132.938 51.3469C133.71 51.371 134.448 51.537 135.155 51.8451C135.206 50.4994 134.534 49.7688 133.14 49.653C132.3 49.6701 131.628 50.0021 131.125 50.6494C130.654 50.4166 130.218 50.1344 129.816 49.8025C130.499 48.9507 131.372 48.4358 132.435 48.2581ZM132.838 52.5425C133.721 52.4939 134.527 52.7098 135.255 53.1902C134.989 54.566 134.149 55.3464 132.737 55.5317C131.38 55.405 130.894 54.7076 131.276 53.4393C131.709 52.9689 132.229 52.67 132.838 52.5425Z" fill="#00479A"/>
<path fill-rule="evenodd" clip-rule="evenodd" d="M141.903 48.2581C143.291 48.1063 144.349 48.6045 145.076 49.7527C145.218 50.1071 145.319 50.4724 145.379 50.8487C145.429 52.7415 145.446 54.6346 145.429 56.5281C144.925 56.5281 144.422 56.5281 143.918 56.5281C143.963 54.5963 143.913 52.67 143.767 50.749C143.417 50.0194 142.83 49.654 142.004 49.653C140.908 49.7238 140.22 50.2883 139.939 51.3469C139.889 53.0736 139.872 54.8006 139.889 56.5281C139.352 56.5281 138.814 56.5281 138.277 56.5281C138.277 53.871 138.277 51.214 138.277 48.557C138.781 48.557 139.284 48.557 139.788 48.557C139.771 48.9239 139.788 49.2891 139.838 49.653C140.354 48.9256 141.042 48.4606 141.903 48.2581Z" fill="#00479A"/>
<path fill-rule="evenodd" clip-rule="evenodd" d="M149.357 48.2581C150.994 48.098 152.236 48.6959 153.084 50.0516C152.736 50.3445 152.333 50.5438 151.876 50.6494C150.987 49.5946 149.912 49.3787 148.652 50.0017C148.222 50.4709 148.255 50.9027 148.753 51.297C149.856 51.6778 150.964 52.0431 152.077 52.3931C153.199 53.1665 153.484 54.1796 152.933 55.432C151.971 56.6462 150.712 57.0946 149.156 56.7771C147.946 56.5096 147.106 55.8121 146.638 54.6847C146.652 54.6078 146.686 54.5414 146.738 54.4855C147.144 54.3428 147.53 54.16 147.897 53.9374C148.535 55.3579 149.593 55.8063 151.07 55.2826C151.833 54.7677 151.867 54.2032 151.171 53.5887C150.125 53.272 149.084 52.9399 148.048 52.5923C146.776 51.819 146.49 50.7728 147.192 49.4537C147.768 48.7789 148.49 48.3803 149.357 48.2581Z" fill="#00479A"/>
<path fill-rule="evenodd" clip-rule="evenodd" d="M155.905 59.1187C155.401 59.1187 154.897 59.1187 154.394 59.1187C154.394 55.5982 154.394 52.0775 154.394 48.557C154.864 48.557 155.334 48.557 155.804 48.557C155.787 48.9239 155.804 49.2892 155.854 49.653C157.103 48.2443 158.597 47.9287 160.337 48.7065C162.161 50.0674 162.783 51.8443 162.2 54.0371C161.192 56.6035 159.396 57.384 156.811 56.3786C156.463 56.1332 156.143 55.8509 155.854 55.5317C155.892 56.7243 155.908 57.9199 155.905 59.1187ZM157.919 49.653C159.868 49.6711 160.876 50.6508 160.941 52.5924C160.89 54.2763 160.034 55.2561 158.373 55.5317C156.711 55.2542 155.854 54.2745 155.804 52.5924C155.835 51.1122 156.54 50.1324 157.919 49.653Z" fill="#00479A"/>
<path fill-rule="evenodd" clip-rule="evenodd" d="M166.884 48.2581C169.234 48.1757 170.761 49.2385 171.468 51.4465C171.872 53.3667 171.318 54.9442 169.805 56.1793C168.232 57.0424 166.655 57.0424 165.071 56.1793C163.233 54.4914 162.846 52.5152 163.913 50.2509C164.595 49.1271 165.585 48.4629 166.884 48.2581ZM166.985 49.653C168.99 49.6259 170.03 50.6057 170.108 52.5924C170.027 54.2987 169.138 55.2785 167.438 55.5317C166.084 55.3204 165.243 54.5565 164.92 53.24C164.652 51.4757 165.34 50.2801 166.985 49.653Z" fill="#00479A"/>
<path fill-rule="evenodd" clip-rule="evenodd" d="M127.6 48.3577C128.175 48.3391 128.746 48.3723 129.312 48.4574C129.209 48.93 129.075 49.3949 128.909 49.8523C127.572 49.6253 126.615 50.1235 126.039 51.3469C125.891 53.067 125.841 54.7941 125.887 56.5281C125.384 56.5281 124.88 56.5281 124.376 56.5281C124.376 53.871 124.376 51.2141 124.376 48.557C124.847 48.557 125.316 48.557 125.787 48.557C125.77 48.9901 125.787 49.4218 125.837 49.8523C126.288 49.19 126.876 48.6918 127.6 48.3577Z" fill="#00479A"/>
<path fill-rule="evenodd" clip-rule="evenodd" d="M176.151 48.3577C176.554 48.3577 176.957 48.3577 177.36 48.3577C177.377 48.8902 177.36 49.4216 177.31 49.9519C176.071 49.6684 175.13 50.0669 174.489 51.1476C174.342 52.9342 174.292 54.7277 174.338 56.5281C173.801 56.5281 173.263 56.5281 172.727 56.5281C172.727 53.871 172.727 51.2141 172.727 48.557C173.23 48.557 173.734 48.557 174.238 48.557C174.22 48.99 174.238 49.4218 174.288 49.8523C174.69 49.0719 175.31 48.5737 176.151 48.3577Z" fill="#00479A"/>
</g>
<defs>
<clipPath id="clip0_432_1956">
<rect width="180.709" height="55.4985" fill="white" transform="translate(1.6377 3.66998)"/>
</clipPath>
</defs>
</svg>
