<svg width="46" height="26" viewBox="0 0 46 26" fill="none" xmlns="http://www.w3.org/2000/svg">
<path d="M45.2641 20.641C45.0785 20.7551 44.8941 20.9671 44.7085 20.9682C41.3694 20.9878 38.0291 20.9821 34.69 20.9809C34.6348 20.9809 34.5784 20.9648 34.4833 20.9498C34.4997 19.3124 33.9736 17.872 32.8202 16.6817C31.668 15.4926 30.2339 14.8934 28.5098 14.8185C28.5943 14.6825 28.6413 14.5834 28.7094 14.5016C29.5151 13.5314 30.5628 13.0325 31.8336 12.9841C32.3022 12.9668 32.772 12.9864 33.2395 12.9599C33.6165 12.938 33.8702 13.0878 34.0992 13.3701C34.8368 14.2781 35.592 15.1723 36.3778 16.116C36.965 15.4119 37.5899 14.777 38.0738 14.0534C38.6516 13.1892 39.3669 12.8608 40.4157 12.9599C41.2743 13.0417 42.1422 12.9956 42.9409 13.392C44.173 14.005 44.9176 14.9752 45.1772 16.3049C45.2018 16.4282 45.2347 16.5504 45.2641 16.6725C45.2641 17.9965 45.2641 19.3182 45.2641 20.641Z" fill="white"/>
<path d="M22.555 19.7134C23.2221 18.9206 23.8646 18.1578 24.5059 17.395C24.7572 17.0954 25.0426 16.8166 25.2505 16.4905C25.5888 15.9627 26.0433 15.8026 26.6587 15.8498C27.5913 15.9212 28.5474 15.8279 29.4588 15.9892C31.7173 16.3914 33.357 18.3399 33.4075 20.5891C33.4403 22.0687 33.4204 23.5493 33.4145 25.0289C33.4133 25.4886 33.2442 25.6488 32.7756 25.6511C31.7796 25.6569 30.7836 25.643 29.7876 25.6592C29.5057 25.6638 16.5292 25.6593 15.757 25.6592C12.286 25.6592 21.1519 18.5324 17.5016 22.3085C16.764 23.0713 16.2068 22.7541 16.2068 25.3204C29.7876 25.6592 16.0271 25.6626 15.757 25.6592C14.761 25.6442 13.765 25.6557 12.769 25.6523C12.2687 25.6499 12.1019 25.4978 12.1019 25.0139C12.0996 23.5194 12.0749 22.0237 12.1172 20.5304C12.1865 18.0495 14.2431 16.0065 16.7659 15.8832C17.4823 15.8486 18.2011 15.8763 18.9176 15.8533C19.2793 15.8417 19.5072 15.9881 19.7268 16.2612C20.6465 17.4111 21.5908 18.5415 22.555 19.7134Z" fill="white"/>
<path d="M10.9791 20.9832C10.6467 20.9832 10.3249 20.9832 10.0031 20.9832C7.00106 20.9832 3.99902 20.9832 0.998162 20.9832C0.365104 20.9832 0.269969 20.8876 0.269969 20.2538C0.268794 19.1764 0.2547 18.0991 0.273492 17.0217C0.311077 14.8658 1.80035 13.2583 3.96849 13.006C5.98159 12.7721 6.09199 12.8158 7.36985 14.3622C7.83966 14.9303 8.31063 15.4972 8.81919 16.1114C9.1692 15.6942 9.49923 15.3025 9.82692 14.9084C10.2815 14.3645 10.7242 13.8103 11.1952 13.2791C11.3174 13.1419 11.5253 12.9956 11.6944 12.9944C12.5565 12.9864 13.4268 12.961 14.2795 13.0613C15.4234 13.1949 16.3078 13.8057 16.9761 14.7632C13.2494 15.2379 11.261 17.2855 10.9791 20.9832Z" fill="white"/>
<path d="M22.7594 14.8243C18.9059 14.8346 15.7476 11.7315 15.7523 7.93708C15.757 4.16681 18.9012 1.06833 22.7301 1.06141C26.5895 1.0545 29.7501 4.14146 29.763 7.92901C29.7759 11.7154 26.6282 14.8127 22.7594 14.8243ZM26.0574 5.81457C23.2081 7.60637 20.0839 7.95897 16.7929 7.74464C16.8141 8.06844 16.8235 8.33576 16.8517 8.60194C17.1641 11.5403 19.7409 13.801 22.7594 13.7884C25.7908 13.7757 28.3583 11.5068 28.6742 8.59157C28.7118 8.23897 28.6085 8.09379 28.2996 7.94168C27.34 7.47155 26.5061 6.85393 26.0574 5.81457Z" fill="white"/>
<path d="M9.06348 0.934679C12.2323 0.947354 14.7845 3.49274 14.7716 6.6258C14.7587 9.7577 12.1477 12.2916 8.95895 12.2662C5.78074 12.2409 3.19682 9.68856 3.21679 6.59468C3.23793 3.43859 5.83711 0.922004 9.06348 0.934679ZM4.26092 6.5532C4.31143 6.95996 4.32787 7.30334 4.40069 7.63404C4.87519 9.79572 6.96581 11.3444 9.23143 11.2245C11.5064 11.1047 13.4244 9.36246 13.6946 7.18235C13.7263 6.92769 13.6816 6.77214 13.4138 6.64538C12.6657 6.29163 12.0162 5.81113 11.6333 5.0345C9.38059 6.39764 6.91296 6.69724 4.26092 6.5532Z" fill="white"/>
<path d="M36.5234 0.931209C39.7251 0.945036 42.2891 3.4789 42.2785 6.62002C42.2691 9.74616 39.6629 12.2823 36.4741 12.2662C33.2877 12.2512 30.7249 9.69661 30.7425 6.55434C30.7601 3.44779 33.3617 0.917381 36.5234 0.931209ZM31.7702 6.55549C31.8195 6.94496 31.8383 7.25954 31.9018 7.56604C32.3586 9.75307 34.4446 11.3329 36.7184 11.2245C39.0228 11.1139 40.9748 9.33249 41.1944 7.11781C41.2074 6.98645 41.1193 6.76866 41.0136 6.71451C40.2407 6.31582 39.5454 5.84108 39.132 5.03679C36.8711 6.40109 34.4046 6.69377 31.7702 6.55549Z" fill="white"/>
</svg>
