<svg width="285" height="73" viewBox="0 0 285 73" fill="none" xmlns="http://www.w3.org/2000/svg">
<path opacity="0.979" fill-rule="evenodd" clip-rule="evenodd" d="M153.1 0.671581C159.393 0.153013 165.308 1.15636 170.844 3.682C175.881 6.79263 179.066 10.9684 180.399 16.2092C176.152 16.2416 171.906 16.2092 167.66 16.1121C165.202 10.9513 160.728 8.75018 154.238 9.50861C149.917 10.4772 146.846 12.7107 145.024 16.2092C142.116 22.3664 142.571 28.3225 146.389 34.0775C149.892 37.5997 154.328 38.9268 159.698 38.059C163.953 36.9178 166.607 34.49 167.66 30.7757C171.98 30.5493 176.302 30.5168 180.627 30.6786C177.13 43.1691 167.879 48.5424 152.873 46.7989C141.327 45.4161 134.237 39.8808 131.603 30.1931C129.688 22.3753 131.356 15.1892 136.607 8.63462C140.854 4.08675 146.351 1.43254 153.1 0.671581Z" fill="#FEFFFE"/>
<path opacity="0.986" fill-rule="evenodd" clip-rule="evenodd" d="M230.219 0.865723C236.059 0.865723 241.896 0.865723 247.736 0.865723C250.7 11.3086 253.771 21.7318 256.949 32.1352C260.359 21.7168 263.735 11.2938 267.073 0.865723C272.685 0.865723 278.295 0.865723 283.907 0.865723C283.907 16.2091 283.907 31.5525 283.907 46.8959C279.964 46.8959 276.02 46.8959 272.077 46.8959C272.116 37.6379 272.077 28.3801 271.964 19.1224C268.861 28.3596 265.865 37.6173 262.978 46.8959C259.031 46.9606 255.088 46.8959 251.148 46.7017C248.193 37.7126 245.274 28.7136 242.39 19.7051C242.276 28.7684 242.237 37.8321 242.276 46.8959C238.256 46.8959 234.239 46.8959 230.219 46.8959C230.219 31.5525 230.219 16.2091 230.219 0.865723Z" fill="#FEFFFE"/>
<path opacity="0.985" fill-rule="evenodd" clip-rule="evenodd" d="M0 1.06006C13.0426 1.06006 26.0855 1.06006 39.1282 1.06006C39.1282 4.10291 39.1282 7.14556 39.1282 10.1884C30.1043 10.1884 21.0808 10.1884 12.0569 10.1884C12.0569 13.2959 12.0569 16.4035 12.0569 19.511C20.0948 19.511 28.1329 19.511 36.1708 19.511C36.1708 22.4243 36.1708 25.3376 36.1708 28.2509C28.1329 28.2509 20.0948 28.2509 12.0569 28.2509C12.0569 34.5306 12.0569 40.8106 12.0569 47.0903C8.03788 47.0903 4.01905 47.0903 0 47.0903C0 31.7469 0 16.4035 0 1.06006Z" fill="#FEFFFE"/>
<path opacity="0.986" fill-rule="evenodd" clip-rule="evenodd" d="M41.1755 1.06006C54.5217 1.06006 67.8675 1.06006 81.2137 1.06006C81.2137 4.10291 81.2137 7.14556 81.2137 10.1884C71.8866 10.1884 62.5595 10.1884 53.2325 10.1884C53.2325 12.8428 53.2325 15.497 53.2325 18.1514C61.2704 18.1514 69.3085 18.1514 77.3463 18.1514C77.3463 21.0001 77.3463 23.8485 77.3463 26.6971C69.3085 26.6971 61.2704 26.6971 53.2325 26.6971C53.2325 30.2578 53.2325 33.8186 53.2325 37.3793C62.5595 37.3793 71.8866 37.3793 81.2137 37.3793C81.2137 40.6163 81.2137 43.8532 81.2137 47.0903C67.8675 47.0903 54.5217 47.0903 41.1755 47.0903C41.1755 31.7469 41.1755 16.4035 41.1755 1.06006Z" fill="#FEFFFE"/>
<path opacity="0.984" fill-rule="evenodd" clip-rule="evenodd" d="M85.081 1.06002C95.47 1.02758 105.859 1.06002 116.247 1.15713C125.213 3.17935 129.27 8.13197 128.418 16.015C127.592 19.4346 125.507 22.1213 122.162 24.0751C124.517 25.3113 125.995 27.0916 126.598 29.4162C126.843 31.5779 126.957 33.7467 126.939 35.9226C126.846 39.5803 126.77 43.2383 126.712 46.896C122.617 46.896 118.522 46.896 114.427 46.896C114.354 42.6142 114.43 38.3414 114.655 34.0775C114.368 31.0929 112.548 29.1829 109.195 28.348C105.252 28.2509 101.309 28.2184 97.3654 28.2509C97.3654 34.4659 97.3654 40.681 97.3654 46.896C93.2706 46.896 89.1758 46.896 85.081 46.896C85.081 31.6173 85.081 16.3387 85.081 1.06002ZM97.3654 9.41149C102.067 9.37906 106.769 9.41149 111.47 9.5086C114.714 10.5492 116.041 12.5237 115.451 15.4323C114.806 17.0185 113.555 18.0867 111.697 18.637C109.698 18.8444 107.688 18.9415 105.669 18.9283C102.9 18.8778 100.132 18.8129 97.3654 18.7341C97.3654 15.6265 97.3654 12.519 97.3654 9.41149Z" fill="#FEFFFE"/>
<path opacity="0.984" fill-rule="evenodd" clip-rule="evenodd" d="M195.868 1.06006C200.721 1.06006 205.575 1.06006 210.428 1.06006C216.456 16.339 222.598 31.5853 228.854 46.7989C224.457 46.9285 220.057 46.9285 215.66 46.7989C214.447 43.821 213.232 40.8428 212.02 37.8648C205.953 37.7353 199.888 37.7353 193.821 37.8648C192.608 40.8428 191.394 43.821 190.181 46.7989C185.859 46.8961 181.536 46.9285 177.214 46.8961C183.431 31.6195 189.649 16.3407 195.868 1.06006ZM202.92 14.4613C205.05 19.2032 207.097 23.994 209.063 28.8336C205.123 29.0278 201.18 29.0925 197.233 29.0278C199.083 24.1602 200.98 19.3047 202.92 14.4613Z" fill="#FEFFFE"/>
<path opacity="0.849" fill-rule="evenodd" clip-rule="evenodd" d="M144.456 56.6068C145.881 56.5802 146.45 57.1629 146.162 58.3548C145.669 58.8961 145.024 59.0579 144.228 58.8404C143.303 58.0283 143.379 57.2839 144.456 56.6068Z" fill="#FEFFFE"/>
<path opacity="0.863" fill-rule="evenodd" clip-rule="evenodd" d="M164.247 56.6069C165.494 56.6052 166.062 57.1232 165.953 58.1607C165.486 58.8972 164.766 59.1236 163.792 58.8405C163.09 57.9511 163.242 57.2067 164.247 56.6069Z" fill="#FEFFFE"/>
<path opacity="0.885" fill-rule="evenodd" clip-rule="evenodd" d="M193.593 56.6071C195.743 56.2298 197.261 56.8773 198.143 58.5493C197.75 58.9285 197.258 59.1874 196.665 59.3262C196.203 58.8354 195.634 58.447 194.958 58.1609C193.578 58.4818 193.236 59.1938 193.935 60.2973C195.37 61.9437 196.849 63.5622 198.371 65.1528C198.746 64.5754 199.201 64.0574 199.736 63.5991C200.238 63.845 200.693 64.1363 201.101 64.4731C200.555 65.1361 200.1 65.8481 199.736 66.6095C200.111 67.0607 200.491 67.5138 200.873 67.969C200.443 68.3944 199.949 68.7504 199.394 69.0372C199.01 68.7426 198.669 68.4188 198.371 68.0661C196.15 69.3694 193.953 69.3371 191.774 67.969C190.318 66.7629 189.824 65.3063 190.295 63.5991C190.773 62.6765 191.419 61.8672 192.228 61.1713C190.973 59.2371 191.428 57.7158 193.593 56.6071ZM193.366 62.628C194.685 63.9182 195.975 65.2455 197.233 66.6095C195.616 67.7175 194.062 67.6204 192.57 66.3182C191.632 64.8718 191.899 63.6418 193.366 62.628Z" fill="#FEFFFE"/>
<path opacity="0.99" fill-rule="evenodd" clip-rule="evenodd" d="M0 56.8013C34.9576 56.8013 69.915 56.8013 104.873 56.8013C104.873 60.7504 104.873 64.6996 104.873 68.6487C69.915 68.6487 34.9576 68.6487 0 68.6487C0 64.6996 0 60.7504 0 56.8013Z" fill="#FEFFFE"/>
<path opacity="0.906" fill-rule="evenodd" clip-rule="evenodd" d="M112.835 56.8013C113.517 56.8013 114.2 56.8013 114.882 56.8013C114.882 60.2326 114.882 63.6637 114.882 67.0949C116.854 67.0949 118.825 67.0949 120.797 67.0949C120.797 67.6129 120.797 68.1307 120.797 68.6487C118.143 68.6487 115.489 68.6487 112.835 68.6487C112.835 64.6996 112.835 60.7504 112.835 56.8013Z" fill="#FEFFFE"/>
<path opacity="0.907" fill-rule="evenodd" clip-rule="evenodd" d="M205.195 56.8013C208.38 56.8013 211.565 56.8013 214.75 56.8013C214.75 57.3193 214.75 57.837 214.75 58.355C213.537 58.355 212.323 58.355 211.11 58.355C211.11 61.7863 211.11 65.2174 211.11 68.6487C210.428 68.6487 209.745 68.6487 209.063 68.6487C209.063 65.2174 209.063 61.7863 209.063 58.355C207.773 58.355 206.485 58.355 205.195 58.355C205.195 57.837 205.195 57.3193 205.195 56.8013Z" fill="#FEFFFE"/>
<path opacity="0.884" fill-rule="evenodd" clip-rule="evenodd" d="M157.65 57.9668C158.333 57.9668 159.015 57.9668 159.697 57.9668C159.697 58.8084 159.697 59.6501 159.697 60.4917C160.456 60.4917 161.214 60.4917 161.972 60.4917C161.972 61.0096 161.972 61.5274 161.972 62.0454C161.214 62.0454 160.456 62.0454 159.697 62.0454C159.66 63.6005 159.697 65.1543 159.811 66.7067C160.316 67.3358 160.96 67.4653 161.745 67.0952C161.803 67.5685 161.955 68.0218 162.2 68.4547C160.647 69.0954 159.244 68.9012 157.991 67.872C157.668 65.9454 157.554 64.0032 157.65 62.0454C157.119 62.0454 156.588 62.0454 156.058 62.0454C156.058 61.5274 156.058 61.0096 156.058 60.4917C156.588 60.4917 157.119 60.4917 157.65 60.4917C157.65 59.6501 157.65 58.8084 157.65 57.9668Z" fill="#FEFFFE"/>
<path opacity="0.886" fill-rule="evenodd" clip-rule="evenodd" d="M280.039 57.9668C280.722 57.9668 281.404 57.9668 282.087 57.9668C282.087 58.8084 282.087 59.6501 282.087 60.4917C282.844 60.4917 283.604 60.4917 284.362 60.4917C284.362 61.0096 284.362 61.5274 284.362 62.0454C283.604 62.0454 282.844 62.0454 282.087 62.0454C282.048 63.6005 282.087 65.1543 282.201 66.7067C282.706 67.3358 283.349 67.4653 284.134 67.0952C284.193 67.5685 284.343 68.0218 284.589 68.4547C283.174 69.0492 281.846 68.9197 280.608 68.0663C280.456 67.8074 280.306 67.5483 280.153 67.2894C280.039 65.5426 280.001 63.7946 280.039 62.0454C279.509 62.0454 278.977 62.0454 278.447 62.0454C278.447 61.5274 278.447 61.0096 278.447 60.4917C278.977 60.4917 279.509 60.4917 280.039 60.4917C280.039 59.6501 280.039 58.8084 280.039 57.9668Z" fill="#FEFFFE"/>
<path opacity="0.893" fill-rule="evenodd" clip-rule="evenodd" d="M124.892 60.2971C129.776 60.0332 131.862 61.9754 131.148 66.1237C129.659 68.8271 127.27 69.6364 123.982 68.5515C121.672 67.103 120.952 65.193 121.821 62.822C122.442 61.6058 123.465 60.764 124.892 60.2971ZM125.574 61.8509C127.811 61.7528 129.101 62.659 129.441 64.57C129.324 66.2558 128.3 67.2269 126.37 67.4833C123.577 66.678 122.819 65.1243 124.095 62.822C124.542 62.4238 125.035 62.1001 125.574 61.8509Z" fill="#FEFFFE"/>
<path opacity="0.884" fill-rule="evenodd" clip-rule="evenodd" d="M135.356 60.2969C137.028 60.0646 138.507 60.3882 139.792 61.268C139.904 61.0169 139.942 60.7578 139.906 60.4911C140.588 60.4911 141.271 60.4911 141.953 60.4911C141.991 63.211 141.953 65.9301 141.84 68.6484C141.631 71.1678 140.038 72.4627 137.062 72.5328C135.007 72.5149 133.528 71.7381 132.626 70.2022C133.019 69.823 133.512 69.5641 134.105 69.4253C134.543 69.7421 134.96 70.0983 135.356 70.4935C138.311 71.4182 139.789 70.5442 139.792 67.8715C137.465 69.494 135.265 69.3645 133.195 67.4831C131.328 64.4686 132.049 62.0733 135.356 60.2969ZM136.266 61.8507C139.133 61.8722 140.308 63.1022 139.792 65.5409C138.933 67.2518 137.53 67.7373 135.584 66.9975C134.208 65.9497 133.866 64.6873 134.56 63.2102C134.956 62.5798 135.525 62.1267 136.266 61.8507Z" fill="#FEFFFE"/>
<path opacity="0.879" fill-rule="evenodd" clip-rule="evenodd" d="M149.915 60.297C151.94 59.9547 153.646 60.4079 155.034 61.6565C155.212 61.937 155.174 62.1959 154.92 62.4334C154.113 62.9764 153.431 62.9117 152.873 62.2392C151.981 61.7742 151.071 61.7418 150.143 62.1421C149.466 62.8638 149.694 63.3169 150.825 63.5016C152.462 63.6426 153.865 64.1928 155.034 65.1525C155.746 67.6253 154.571 68.9201 151.508 69.0369C149.588 68.9481 148.223 68.1712 147.413 66.7062C147.806 66.3271 148.299 66.0682 148.892 65.9293C149.55 66.7196 150.423 67.2376 151.508 67.4831C152.218 67.4235 152.786 67.1644 153.214 66.7062C153.376 66.3436 153.262 66.0523 152.873 65.8322C151.774 65.4193 150.636 65.0956 149.46 64.8611C147.717 64.1511 147.224 63.0182 147.982 61.4623C148.589 60.9958 149.234 60.6073 149.915 60.297Z" fill="#FEFFFE"/>
<path opacity="0.884" fill-rule="evenodd" clip-rule="evenodd" d="M170.39 60.297C173.072 59.8484 175.043 60.6252 176.304 62.6277C175.72 62.8611 175.151 63.12 174.598 63.4045C173.508 61.7552 172.029 61.4316 170.162 62.4334C168.591 64.0171 168.667 65.5384 170.39 66.9976C171.262 67.5276 172.171 67.5923 173.119 67.1918C173.77 66.8296 174.338 66.4087 174.826 65.9294C175.312 66.0723 175.767 66.2666 176.191 66.5121C175.535 68.1746 174.132 69.0161 171.982 69.0369C168.822 68.8318 167.154 67.3752 166.977 64.667C167.069 62.5966 168.207 61.1399 170.39 60.297Z" fill="#FEFFFE"/>
<path opacity="0.88" fill-rule="evenodd" clip-rule="evenodd" d="M179.489 60.2974C181.828 59.8721 183.648 60.487 184.949 62.1425C184.446 62.4803 183.877 62.7069 183.243 62.8223C182.285 61.8329 181.109 61.6063 179.717 62.1425C179.255 62.4137 179.18 62.7372 179.489 63.1136C180.588 63.5265 181.725 63.8503 182.901 64.0847C184.655 64.6517 185.299 65.7199 184.835 67.2894C184.002 68.4226 182.788 69.0053 181.195 69.0373C179.215 68.9942 177.812 68.2173 176.987 66.7067C177.408 66.3043 177.938 66.0454 178.579 65.9298C179.084 66.5867 179.766 67.0722 180.627 67.3865C181.411 67.4655 182.133 67.3035 182.788 66.9009C182.997 66.3555 182.808 65.9347 182.219 65.6385C180.804 65.3693 179.44 64.9809 178.124 64.4732C176.622 62.6053 177.077 61.2134 179.489 60.2974Z" fill="#FEFFFE"/>
<path opacity="0.886" fill-rule="evenodd" clip-rule="evenodd" d="M218.617 60.2971C219.484 60.2317 220.317 60.3288 221.12 60.5884C220.808 61.0353 220.658 61.5209 220.665 62.0451C219.325 61.8204 218.226 62.1441 217.366 63.0162C217.043 64.878 216.929 66.7555 217.025 68.6486C216.342 68.6486 215.66 68.6486 214.977 68.6486C214.977 65.9295 214.977 63.2104 214.977 60.4913C215.585 60.4913 216.19 60.4913 216.797 60.4913C216.761 60.8213 216.8 61.1451 216.911 61.4624C217.391 60.9534 217.96 60.5649 218.617 60.2971Z" fill="#FEFFFE"/>
<path opacity="0.903" fill-rule="evenodd" clip-rule="evenodd" d="M223.622 60.297C225.114 60.1841 226.554 60.3459 227.944 60.7825C228.711 61.2419 229.205 61.857 229.423 62.6276C229.537 64.6335 229.575 66.6404 229.537 68.6485C228.929 68.6485 228.324 68.6485 227.717 68.6485C227.753 68.3818 227.714 68.1227 227.603 67.8716C225.986 69.207 224.204 69.3688 222.257 68.3571C221.829 68.0574 221.488 67.7014 221.233 67.2889C220.56 65.4129 221.281 64.1505 223.394 63.5016C224.864 63.4325 226.304 63.4 227.717 63.4045C227.084 62.0986 225.947 61.613 224.304 61.9479C223.818 62.2019 223.363 62.4932 222.939 62.8218C222.455 62.634 222 62.4074 221.575 62.1421C221.358 62.0026 221.32 61.8408 221.461 61.6565C222.102 61.0785 222.823 60.6254 223.622 60.297ZM224.532 64.764C225.685 64.6493 226.748 64.8435 227.717 65.3467C227.093 67.017 225.804 67.6321 223.849 67.1918C222.801 66.1218 223.028 65.3127 224.532 64.764Z" fill="#FEFFFE"/>
<path opacity="0.924" fill-rule="evenodd" clip-rule="evenodd" d="M234.997 60.297C236.082 60.237 237.142 60.3341 238.181 60.5883C238.75 60.815 239.166 61.171 239.433 61.6565C239.76 63.9724 239.874 66.303 239.774 68.6485C239.166 68.6485 238.561 68.6485 237.954 68.6485C238.045 66.6289 237.931 64.6219 237.613 62.6276C235.995 61.4654 234.63 61.6596 233.518 63.2103C233.404 65.0218 233.365 66.8346 233.404 68.6485C232.722 68.6485 232.039 68.6485 231.357 68.6485C231.357 65.9294 231.357 63.2103 231.357 60.4912C231.964 60.4912 232.569 60.4912 233.177 60.4912C233.14 60.8212 233.179 61.1449 233.29 61.4623C233.375 61.2844 233.488 61.1224 233.632 60.9767C234.139 60.794 234.594 60.5673 234.997 60.297Z" fill="#FEFFFE"/>
<path opacity="0.883" fill-rule="evenodd" clip-rule="evenodd" d="M243.641 60.2972C245.377 60.0575 246.933 60.3813 248.305 61.2683C248.659 61.6017 248.848 61.9902 248.873 62.4336C248.352 62.4771 247.861 62.6066 247.395 62.822C246.903 62.5336 246.412 62.2423 245.916 61.948C245.065 61.7676 244.269 61.8647 243.527 62.2394C243.341 62.6668 243.454 63.0229 243.868 63.3076C245.261 63.6368 246.626 64.0252 247.963 64.4729C249.565 65.9824 249.415 67.3419 247.508 68.5515C244.626 69.5397 242.426 68.8924 240.911 66.6093C241.453 66.3465 242.021 66.1201 242.617 65.9296C243.468 67.2291 244.719 67.6498 246.371 67.192C247.165 66.8138 247.24 66.3607 246.598 65.8324C245.647 65.4836 244.66 65.2247 243.641 65.0556C241.393 64.4882 240.75 63.2905 241.707 61.4625C242.235 60.9002 242.881 60.5118 243.641 60.2972Z" fill="#FEFFFE"/>
<path opacity="0.917" fill-rule="evenodd" clip-rule="evenodd" d="M253.878 60.2973C258.248 60.1746 260.182 61.9873 259.679 65.7355C258.476 68.7582 256.162 69.6322 252.741 68.3575C252.552 68.1957 252.361 68.0337 252.172 67.8719C252.058 69.3595 252.02 70.8486 252.058 72.339C251.451 72.339 250.846 72.339 250.238 72.339C250.238 68.3899 250.238 64.4406 250.238 60.4916C250.846 60.4916 251.451 60.4916 252.058 60.4916C252.022 60.7582 252.06 61.0173 252.172 61.2684C252.725 60.8893 253.293 60.5656 253.878 60.2973ZM254.106 61.8511C255.846 61.6217 257.02 62.2044 257.632 63.5991C258.228 65.6771 257.318 66.9719 254.902 67.4835C252.384 66.7985 251.549 65.3741 252.399 63.2106C252.795 62.5802 253.364 62.1271 254.106 61.8511Z" fill="#FEFFFE"/>
<path opacity="0.885" fill-rule="evenodd" clip-rule="evenodd" d="M264.115 60.2971C268.881 59.9971 270.967 61.8746 270.371 65.9295C268.981 68.7224 266.592 69.5964 263.205 68.5515C260.755 67.0653 260.034 65.0907 261.044 62.6278C261.692 61.4652 262.716 60.6883 264.115 60.2971ZM264.798 61.8509C266.476 61.7095 267.653 62.2922 268.324 63.5989C268.908 65.6846 267.998 66.9795 265.594 67.4833C262.723 66.7204 261.963 65.1666 263.319 62.822C263.767 62.4238 264.258 62.1001 264.798 61.8509Z" fill="#FEFFFE"/>
<path opacity="0.877" fill-rule="evenodd" clip-rule="evenodd" d="M275.49 60.2974C276.097 60.2974 276.702 60.2974 277.309 60.2974C277.309 60.88 277.309 61.4627 277.309 62.0453C275.892 61.8265 274.791 62.2149 274.011 63.2107C273.688 65.0076 273.574 66.8203 273.67 68.6488C272.987 68.6488 272.305 68.6488 271.622 68.6488C271.622 65.9298 271.622 63.2107 271.622 60.4916C272.305 60.4916 272.987 60.4916 273.67 60.4916C273.633 60.7582 273.672 61.0173 273.783 61.2685C274.277 60.8173 274.846 60.4935 275.49 60.2974Z" fill="#FEFFFE"/>
<path opacity="0.988" fill-rule="evenodd" clip-rule="evenodd" d="M144.001 60.4917C144.608 60.4917 145.214 60.4917 145.821 60.4917C145.821 63.2108 145.821 65.9299 145.821 68.649C145.214 68.649 144.608 68.649 144.001 68.649C144.001 65.9299 144.001 63.2108 144.001 60.4917Z" fill="#FEFFFE"/>
<path opacity="0.879" fill-rule="evenodd" clip-rule="evenodd" d="M163.565 60.4917C164.247 60.4917 164.93 60.4917 165.612 60.4917C165.612 63.2108 165.612 65.9299 165.612 68.649C164.93 68.649 164.247 68.649 163.565 68.649C163.565 65.9299 163.565 63.2108 163.565 60.4917Z" fill="#FEFFFE"/>
</svg>
