<svg width="158" height="52" viewBox="0 0 158 52" fill="none" xmlns="http://www.w3.org/2000/svg"><g clip-path="url(#clip0_402_221)"><rect x="3.922" y=".002" width="150.72" height="36.167" fill="#949494"/><path opacity="0.991" fill-rule="evenodd" clip-rule="evenodd" d="M84.603 4.154a16.133 16.133 0 0 1 6.71 1.137c2 .906 3.56 2.32 4.68 4.247a17.22 17.22 0 0 1 1.65 4.162c-2.164.008-4.329-.001-6.493-.029-.777-2.46-2.418-3.866-4.924-4.217-2.99-.155-5.163 1.13-6.52 3.857a12.99 12.99 0 0 0-1.028 7.048c.214 2.15 1.07 3.972 2.57 5.466 1.761 1.357 3.727 1.801 5.898 1.332 2.174-.741 3.51-2.267 4.004-4.578h6.547a15.9 15.9 0 0 1-2.84 6.382c-1.859 2.095-4.176 3.27-6.954 3.524-3.047.4-5.969-.044-8.765-1.332-2.84-1.508-4.797-3.81-5.87-6.91-1.083-3.45-1.173-6.928-.271-10.432 1-3.522 3.028-6.213 6.087-8.075a12.947 12.947 0 0 1 5.519-1.581z" fill="#FEFFFE"/><path opacity="0.99" fill-rule="evenodd" clip-rule="evenodd" d="M124.43 4.104c2.722-.019 5.443 0 8.164.055 1.475 6.452 2.944 12.908 4.404 19.367a8887.97 8887.97 0 0 1 4.853-19.368c2.622-.056 5.244-.075 7.865-.056V32.35h-5.574c.01-5.752 0-11.505-.024-17.258l-4.33 17.203a67.66 67.66 0 0 1-5.475 0l-4.23-17.148c-.025 5.735-.033 11.47-.025 17.204h-5.624V4.105z" fill="#FEFFFE"/><path opacity="0.992" fill-rule="evenodd" clip-rule="evenodd" d="M50.494 4.09a653.96 653.96 0 0 1 14.615.083c2.57.508 4.416 2.052 5.537 4.633 1.14 3.4.526 6.35-1.846 8.852l-.808.666c1.229.701 1.979 1.802 2.25 3.302.075 3.55.1 7.101.076 10.655h-5.816c.01-2.83 0-5.66-.025-8.49-.295-1.655-1.196-2.645-2.706-2.969-1.836-.027-3.674-.036-5.51-.027v11.488c-1.925.019-3.847 0-5.766-.055a2356.09 2356.09 0 0 1 0-28.136zm5.816 5.05c2.04-.01 4.08 0 6.119.027 1.156.113 1.974.75 2.452 1.915.405 1.552-.008 2.764-1.24 3.635a2.998 2.998 0 0 1-.96.333c-2.14.027-4.282.037-6.423.027.041-1.979.058-3.958.05-5.938z" fill="#FEFFFE"/><path opacity="0.993" fill-rule="evenodd" clip-rule="evenodd" d="M106.6 4.217h7c2.977 9.37 5.985 18.73 9.024 28.08a122.22 122.22 0 0 1-6.38.028c-.586-1.85-1.174-3.7-1.762-5.55a733.494 733.494 0 0 0-9.023-.027 509.91 509.91 0 0 1-1.713 5.605H97.42c3.05-9.382 6.11-18.76 9.18-28.136zm3.37 8.158c.052-.002.087.026.104.083.997 2.99 2 5.977 3.008 8.962-2.005.065-4.01.074-6.016.028a388.948 388.948 0 0 0 2.904-9.073z" fill="#FEFFFE"/><path opacity="0.994" fill-rule="evenodd" clip-rule="evenodd" d="m8.51 4.139 18.27-.001v5.548H14.12v5.827h11.27v5.328H14.12V32.33H8.51V4.14z" fill="#FEFFFE"/><path opacity="0.993" fill-rule="evenodd" clip-rule="evenodd" d="M29.146 4.025h18.135V9.63H34.597v4.884h10.948v5.216H34.596v6.549l12.685-.001v5.936H29.147V4.026z" fill="#FEFFFE"/><path opacity="0.963" fill-rule="evenodd" clip-rule="evenodd" d="M69.883 37.765h.955c-.01 1.48 0 2.96.028 4.44a57.043 57.043 0 0 1 2.049-2.192 6.883 6.883 0 0 1 1.234 0 58.475 58.475 0 0 0-2.077 2.22l2.301 3.052a6.273 6.273 0 0 1-1.179 0c-.592-.792-1.19-1.578-1.796-2.359a2.515 2.515 0 0 0-.534.555c-.028.611-.038 1.222-.028 1.832h-.954v-7.547z" fill="#2362B6"/><path opacity="0.928" fill-rule="evenodd" clip-rule="evenodd" d="M84.029 38.042c.653-.12.924.139.813.777a.64.64 0 0 1-.197.25c-.647.176-.937-.055-.87-.694a.47.47 0 0 1 .253-.333z" fill="#2362B6"/><path opacity="0.753" fill-rule="evenodd" clip-rule="evenodd" d="M59.106 38.153H3.986v7.659a265.03 265.03 0 0 1-.057-7.714c18.4-.019 36.793 0 55.176.056z" fill="#2C9591"/><path opacity="0.998" fill-rule="evenodd" clip-rule="evenodd" d="M59.106 38.153v7.659H3.986v-7.659h55.12z" fill="#2362B6"/><path opacity="0.954" fill-rule="evenodd" clip-rule="evenodd" d="M63.316 38.153h1.01c-.01 1.758 0 3.515.029 5.272.21.813.743 1.201 1.6 1.166.784-.032 1.217-.296 1.543-.998.082-1.81.11-3.623.084-5.439h1.01c.01 1.776 0 3.552-.028 5.328-.343 1.347-1.516 2.018-2.61 2.018-1.212 0-2.014-.483-2.498-1.518l-.112-.444c-.028-1.794-.037-3.588-.028-5.383z" fill="#2362B6"/><path opacity="0.997" fill-rule="evenodd" clip-rule="evenodd" d="M100.082 38.098h54.56v7.714h-54.56v-7.714z" fill="#2262B6"/><path opacity="0.961" fill-rule="evenodd" clip-rule="evenodd" d="M76.788 39.93h.898v.832a3.95 3.95 0 0 0-1.067.083c-.293.125-.49.337-.59.638-.028 1.276-.038 2.553-.028 3.83h-.954v-5.328h.954c-.01.167 0 .334.028.5.2-.265.453-.45.758-.556z" fill="#2362B6"/><path opacity="0.942" fill-rule="evenodd" clip-rule="evenodd" d="M79.763 39.93c.49-.021.976.006 1.46.083.692.223 1.076.695 1.15 1.415l.056 3.274c.04.206.087.41.14.61h-1.067a1.882 1.882 0 0 0-.084-.444c-.712.576-1.507.714-2.387.417-.822-.42-1.112-1.077-.87-1.97.287-.708.82-1.106 1.6-1.194.542-.026 1.085-.036 1.628-.026.037-1.174-.524-1.59-1.683-1.25-.309.11-.477.323-.506.64h-1.01c.046-.517.29-.915.73-1.194.274-.154.555-.274.843-.36zm1.01 2.83h.618c.274 1.127-.166 1.737-1.319 1.83-.779-.03-1.097-.418-.953-1.165a1.1 1.1 0 0 1 .533-.471c.376-.1.75-.165 1.123-.194z" fill="#2362B6"/><path opacity="0.966" fill-rule="evenodd" clip-rule="evenodd" d="M88.182 39.93a4.42 4.42 0 0 1 1.46.138c.474.28.745.696.814 1.249.028 1.331.037 2.663.028 3.995h-.954a48.505 48.505 0 0 0-.085-3.94c-.156-.462-.484-.665-.982-.61-.572.02-.993.278-1.263.777-.028 1.256-.037 2.514-.028 3.772h-.954v-5.327h.898c.03.184.058.369.084.555.293-.27.62-.472.982-.61z" fill="#2362B6"/><path opacity="0.954" fill-rule="evenodd" clip-rule="evenodd" d="M93.459 39.93c1.427-.188 2.316.404 2.665 1.775.064.423.092.849.084 1.276l-3.65.001c.14 1.203.813 1.73 2.021 1.583.389-.115.707-.328.956-.638.214.146.42.304.617.472-.668.899-1.566 1.232-2.694.999-1.019-.285-1.627-.942-1.825-1.97-.196-1.049.028-1.992.673-2.83a3.28 3.28 0 0 1 1.15-.667zm.167.832c1.02-.074 1.563.398 1.628 1.415-.88.028-1.759.037-2.638.028.057-.684.393-1.165 1.01-1.443z" fill="#2362B6"/><path opacity="0.917" fill-rule="evenodd" clip-rule="evenodd" d="M83.804 39.985h1.01v5.327h-1.01v-5.327z" fill="#2362B6"/></g><defs><clipPath id="clip0_402_221"><rect width="157" height="51" fill="white" transform="translate(0.81366 0.5)"/></clipPath></defs></svg>